<svg width="70" height="70" viewBox="0 0 70 70" fill="none" xmlns="http://www.w3.org/2000/svg">
<path fill-rule="evenodd" clip-rule="evenodd" d="M42.7696 38.8849C40.6248 38.8849 38.8842 40.6256 38.8842 42.7703C38.8842 44.915 40.6248 46.6557 42.7696 46.6557C44.9143 46.6557 46.6549 44.915 46.6549 42.7703C46.6549 40.6256 44.9143 38.8849 42.7696 38.8849ZM42.7696 41.4752C43.4845 41.4752 44.0647 42.0554 44.0647 42.7703C44.0647 43.4852 43.4845 44.0654 42.7696 44.0654C42.0547 44.0654 41.4744 43.4852 41.4744 42.7703C41.4744 42.0554 42.0547 41.4752 42.7696 41.4752Z" fill="#50A0DD"/>
<path fill-rule="evenodd" clip-rule="evenodd" d="M53.1306 49.2459C50.9858 49.2459 49.2452 50.9866 49.2452 53.1313C49.2452 55.276 50.9858 57.0167 53.1306 57.0167C55.2753 57.0167 57.0159 55.276 57.0159 53.1313C57.0159 50.9866 55.2753 49.2459 53.1306 49.2459ZM53.1306 51.8362C53.8455 51.8362 54.4257 52.4164 54.4257 53.1313C54.4257 53.8462 53.8455 54.4264 53.1306 54.4264C52.4157 54.4264 51.8354 53.8462 51.8354 53.1313C51.8354 52.4164 52.4157 51.8362 53.1306 51.8362Z" fill="#50A0DD"/>
<path fill-rule="evenodd" clip-rule="evenodd" d="M41.0943 56.6372L56.6358 41.0957C57.1409 40.5906 57.1409 39.7695 56.6358 39.2644C56.1307 38.7593 55.3096 38.7593 54.8045 39.2644L39.263 54.8059C38.7579 55.311 38.7579 56.1321 39.263 56.6372C39.7681 57.1423 40.5892 57.1423 41.0943 56.6372Z" fill="#50A0DD"/>
<path fill-rule="evenodd" clip-rule="evenodd" d="M49.2452 27.2288V9.09705C49.2452 6.95102 47.5058 5.21167 45.3598 5.21167C37.918 5.21167 16.5381 5.21167 9.09631 5.21167C6.95029 5.21167 5.21094 6.95102 5.21094 9.09705V50.5411C5.21094 51.256 5.79115 51.8362 6.50606 51.8362C7.22097 51.8362 7.80119 51.256 7.80119 50.5411V9.09705C7.80119 8.38214 8.3814 7.80192 9.09631 7.80192C16.5381 7.80192 37.918 7.80192 45.3598 7.80192C46.0747 7.80192 46.6549 8.38214 46.6549 9.09705V27.2288C46.6549 27.9437 47.2352 28.5239 47.9501 28.5239C48.665 28.5239 49.2452 27.9437 49.2452 27.2288Z" fill="#50A0DD"/>
<path fill-rule="evenodd" clip-rule="evenodd" d="M5.21094 55.7216V60.9021C5.21094 63.0481 6.95029 64.7874 9.09631 64.7874H32.4086C33.1235 64.7874 33.7037 64.2072 33.7037 63.4923C33.7037 62.7774 33.1235 62.1972 32.4086 62.1972H9.09631C8.3814 62.1972 7.80119 61.617 7.80119 60.9021V55.7216C7.80119 55.0066 7.22097 54.4264 6.50606 54.4264C5.79115 54.4264 5.21094 55.0066 5.21094 55.7216Z" fill="#50A0DD"/>
<path fill-rule="evenodd" clip-rule="evenodd" d="M47.9501 31.1142C38.6575 31.1142 31.1134 38.6583 31.1134 47.9508C31.1134 57.2433 38.6575 64.7874 47.9501 64.7874C57.2426 64.7874 64.7867 57.2433 64.7867 47.9508C64.7867 38.6583 57.2426 31.1142 47.9501 31.1142ZM47.9501 33.7044C55.8128 33.7044 62.1964 40.0881 62.1964 47.9508C62.1964 55.8135 55.8128 62.1972 47.9501 62.1972C40.0874 62.1972 33.7037 55.8135 33.7037 47.9508C33.7037 40.0881 40.0874 33.7044 47.9501 33.7044Z" fill="#50A0DD"/>
<path fill-rule="evenodd" clip-rule="evenodd" d="M13.3605 17.7834L15.9508 20.3737C16.4559 20.8801 17.277 20.8801 17.7821 20.3737L22.9626 15.1932C23.4677 14.6881 23.4677 13.867 22.9626 13.3619C22.4575 12.8568 21.6364 12.8568 21.1313 13.3619L16.8664 17.6267L15.1918 15.9521C14.6867 15.447 13.8656 15.447 13.3605 15.9521C12.8554 16.4572 12.8554 17.2783 13.3605 17.7834Z" fill="#50A0DD"/>
<path fill-rule="evenodd" clip-rule="evenodd" d="M13.3605 30.7347L15.9508 33.3249C16.4559 33.8313 17.277 33.8313 17.7821 33.3249L22.9626 28.1444C23.4677 27.6393 23.4677 26.8182 22.9626 26.3131C22.4575 25.808 21.6364 25.808 21.1313 26.3131L16.8664 30.578L15.1918 28.9034C14.6867 28.3983 13.8656 28.3983 13.3605 28.9034C12.8554 29.4085 12.8554 30.2296 13.3605 30.7347Z" fill="#50A0DD"/>
<path fill-rule="evenodd" clip-rule="evenodd" d="M27.2281 15.5727H40.1793C40.8942 15.5727 41.4744 14.9925 41.4744 14.2775C41.4744 13.5626 40.8942 12.9824 40.1793 12.9824H27.2281C26.5132 12.9824 25.9329 13.5626 25.9329 14.2775C25.9329 14.9925 26.5132 15.5727 27.2281 15.5727Z" fill="#50A0DD"/>
<path fill-rule="evenodd" clip-rule="evenodd" d="M27.2281 28.5239H40.1793C40.8942 28.5239 41.4744 27.9437 41.4744 27.2288C41.4744 26.5139 40.8942 25.9337 40.1793 25.9337H27.2281C26.5132 25.9337 25.9329 26.5139 25.9329 27.2288C25.9329 27.9437 26.5132 28.5239 27.2281 28.5239Z" fill="#50A0DD"/>
<path fill-rule="evenodd" clip-rule="evenodd" d="M14.2768 41.4752H27.2281C27.943 41.4752 28.5232 40.895 28.5232 40.1801C28.5232 39.4651 27.943 38.8849 27.2281 38.8849H14.2768C13.5619 38.8849 12.9817 39.4651 12.9817 40.1801C12.9817 40.895 13.5619 41.4752 14.2768 41.4752Z" fill="#50A0DD"/>
<path fill-rule="evenodd" clip-rule="evenodd" d="M14.2768 51.8362H27.2281C27.943 51.8362 28.5232 51.256 28.5232 50.5411C28.5232 49.8261 27.943 49.2459 27.2281 49.2459H14.2768C13.5619 49.2459 12.9817 49.8261 12.9817 50.5411C12.9817 51.256 13.5619 51.8362 14.2768 51.8362Z" fill="#50A0DD"/>
<path fill-rule="evenodd" clip-rule="evenodd" d="M27.2281 20.7532H34.9988C35.7137 20.7532 36.2939 20.173 36.2939 19.458C36.2939 18.7431 35.7137 18.1629 34.9988 18.1629H27.2281C26.5132 18.1629 25.9329 18.7431 25.9329 19.458C25.9329 20.173 26.5132 20.7532 27.2281 20.7532Z" fill="#50A0DD"/>
<path fill-rule="evenodd" clip-rule="evenodd" d="M27.2281 33.7044H34.9988C35.7137 33.7044 36.2939 33.1242 36.2939 32.4093C36.2939 31.6944 35.7137 31.1142 34.9988 31.1142H27.2281C26.5132 31.1142 25.9329 31.6944 25.9329 32.4093C25.9329 33.1242 26.5132 33.7044 27.2281 33.7044Z" fill="#50A0DD"/>
<path fill-rule="evenodd" clip-rule="evenodd" d="M14.2768 46.6557H22.0476C22.7625 46.6557 23.3427 46.0755 23.3427 45.3606C23.3427 44.6456 22.7625 44.0654 22.0476 44.0654H14.2768C13.5619 44.0654 12.9817 44.6456 12.9817 45.3606C12.9817 46.0755 13.5619 46.6557 14.2768 46.6557Z" fill="#50A0DD"/>
<path fill-rule="evenodd" clip-rule="evenodd" d="M14.2768 57.0167H22.0476C22.7625 57.0167 23.3427 56.4365 23.3427 55.7216C23.3427 55.0066 22.7625 54.4264 22.0476 54.4264H14.2768C13.5619 54.4264 12.9817 55.0066 12.9817 55.7216C12.9817 56.4365 13.5619 57.0167 14.2768 57.0167Z" fill="#50A0DD"/>
</svg>
