<svg width="70" height="70" viewBox="0 0 70 70" fill="none" xmlns="http://www.w3.org/2000/svg">
<path d="M14.2188 16.4062C14.2188 17.6144 13.2394 18.5938 12.0312 18.5938C10.8231 18.5938 9.84375 17.6144 9.84375 16.4062C9.84375 15.1981 10.8231 14.2188 12.0312 14.2188C13.2394 14.2188 14.2188 15.1981 14.2188 16.4062Z" fill="#50A0DD"/>
<path d="M14.2188 29.5312C14.2188 30.7394 13.2394 31.7188 12.0312 31.7188C10.8231 31.7188 9.84375 30.7394 9.84375 29.5312C9.84375 28.3231 10.8231 27.3438 12.0312 27.3438C13.2394 27.3438 14.2188 28.3231 14.2188 29.5312Z" fill="#50A0DD"/>
<path d="M12.0312 44.8438C13.2394 44.8438 14.2188 43.8644 14.2188 42.6562C14.2188 41.4481 13.2394 40.4688 12.0312 40.4688C10.8231 40.4688 9.84375 41.4481 9.84375 42.6562C9.84375 43.8644 10.8231 44.8438 12.0312 44.8438Z" fill="#50A0DD"/>
<path fill-rule="evenodd" clip-rule="evenodd" d="M54.6875 5.46875C56.4997 5.46875 57.9688 6.93782 57.9688 8.75C62.1972 8.75 65.625 12.1778 65.625 16.4062C65.625 19.1913 64.138 21.629 61.9146 22.9688C64.138 24.3085 65.625 26.7462 65.625 29.5312C65.625 32.3163 64.138 34.754 61.9146 36.0938C64.138 37.4335 65.625 39.8712 65.625 42.6562C65.625 46.8847 62.1972 50.3125 57.9688 50.3125H56.875V57.9688H63.4375C64.0416 57.9688 64.5313 58.4584 64.5313 59.0625C64.5313 62.0001 62.2151 64.3967 59.3094 64.5258C59.2732 64.5294 59.2364 64.5313 59.1992 64.5313H30.7617L30.7529 64.5312L30.7459 64.5311L30.7403 64.5311L30.732 64.5309L30.7256 64.5307L30.7194 64.5305C30.688 64.531 30.6566 64.5313 30.625 64.5313C27.6047 64.5313 25.1563 62.0828 25.1563 59.0625L25.1562 56.0554H25.1671C25.1671 55.452 25.6563 54.9628 26.2597 54.9628C26.8165 54.9628 27.2761 55.3793 27.3438 55.9178L27.3438 59.0625C27.3438 60.8747 28.8128 62.3438 30.625 62.3438C32.4372 62.3438 33.9063 60.8747 33.9063 59.0625C33.9063 58.4584 34.396 57.9688 35 57.9688H54.6875L54.6875 40.4688C54.6875 38.6566 53.2184 37.1875 51.4062 37.1875H26.2504C26.8908 38.0401 27.2878 39.086 27.3383 40.222C27.3419 40.2582 27.3438 40.2949 27.3438 40.332V51.5222C27.2761 52.0606 26.8165 52.4771 26.2597 52.4771C25.6563 52.4771 25.1671 51.988 25.1671 51.3845H25.1562V50.3125H12.168V50.3113C12.1225 50.3121 12.0769 50.3125 12.0312 50.3125C7.80282 50.3125 4.375 46.8847 4.375 42.6562C4.375 39.8712 5.86204 37.4335 8.08545 36.0938C5.86204 34.754 4.375 32.3163 4.375 29.5312C4.375 26.7462 5.86204 24.3085 8.08545 22.9688C5.86204 21.629 4.375 19.1913 4.375 16.4062C4.375 12.1778 7.80282 8.75 12.0312 8.75C12.0769 8.75 12.1225 8.7504 12.168 8.7512V8.75H18.5938C18.5938 6.93782 20.0628 5.46875 21.875 5.46875H54.6875ZM21.875 9.84375C22.4791 9.84375 22.9688 9.35406 22.9688 8.75C22.9688 8.14696 22.4807 7.6579 21.8781 7.65625H21.875C21.2709 7.65625 20.7812 8.14594 20.7812 8.75C20.7812 9.35406 21.2709 9.84375 21.875 9.84375ZM54.6875 7.65625L24.9695 7.65625C25.0905 7.99835 25.1562 8.36649 25.1562 8.75C25.1562 9.13351 25.0905 9.50165 24.9695 9.84375L28.8315 9.84375V9.84606C29.435 9.84606 29.9241 10.3352 29.9241 10.9387C29.9241 11.5405 29.4375 12.0288 28.8362 12.0313H21.875C20.9032 12.0313 20.0301 11.6088 19.4293 10.9375L17.3895 10.9375C18.8076 12.3271 19.6875 14.2639 19.6875 16.4062C19.6875 18.5486 18.8076 20.4854 17.3895 21.875L41.9395 21.875C42.5065 21.9151 42.9539 22.3877 42.9539 22.9648C42.9539 23.5683 42.4648 24.0574 41.8613 24.0574V24.0625L17.3895 24.0625C18.8076 25.4521 19.6875 27.3889 19.6875 29.5312C19.6875 31.6736 18.8076 33.6104 17.3895 35H57.9688C60.9891 35 63.4375 32.5516 63.4375 29.5312C63.4375 26.5109 60.9891 24.0625 57.9688 24.0625H46.5322V24.0574C45.9288 24.0574 45.4396 23.5683 45.4396 22.9648C45.4396 22.3877 45.8871 21.9151 46.454 21.875H57.9688C60.9891 21.875 63.4375 19.4266 63.4375 16.4062C63.4375 13.3859 60.9891 10.9375 57.9688 10.9375L57.1333 10.9375C56.5324 11.6088 55.6593 12.0313 54.6875 12.0313H33.4986C32.8969 12.0292 32.4098 11.5408 32.4098 10.9387C32.4098 10.3352 32.899 9.84606 33.5024 9.84606V9.84375L54.6875 9.84375C55.2916 9.84375 55.7812 9.35406 55.7812 8.75C55.7812 8.14594 55.2916 7.65625 54.6875 7.65625ZM57.9688 48.125H56.875V40.332C56.875 40.2948 56.8732 40.258 56.8695 40.2217C56.819 39.0858 56.422 38.04 55.7817 37.1875H57.9688C60.9891 37.1875 63.4375 39.6359 63.4375 42.6562C63.4375 45.6766 60.9891 48.125 57.9688 48.125ZM21.875 37.1875H17.3895C18.8076 38.5771 19.6875 40.5139 19.6875 42.6562C19.6875 44.7986 18.8076 46.7354 17.3895 48.125H25.1562V40.4688C25.1562 38.6566 23.6872 37.1875 21.875 37.1875ZM17.5 16.4062C17.5 19.4266 15.0516 21.875 12.0312 21.875C9.01094 21.875 6.5625 19.4266 6.5625 16.4062C6.5625 13.3859 9.01094 10.9375 12.0312 10.9375C15.0516 10.9375 17.5 13.3859 17.5 16.4062ZM17.5 29.5312C17.5 32.5516 15.0516 35 12.0312 35C9.01094 35 6.5625 32.5516 6.5625 29.5312C6.5625 26.5109 9.01094 24.0625 12.0312 24.0625C15.0516 24.0625 17.5 26.5109 17.5 29.5312ZM6.5625 42.6562C6.5625 39.6359 9.01094 37.1875 12.0312 37.1875C15.0516 37.1875 17.5 39.6359 17.5 42.6562C17.5 45.6766 15.0516 48.125 12.0312 48.125C9.01094 48.125 6.5625 45.6766 6.5625 42.6562ZM62.1571 60.1563C61.7066 61.4307 60.4912 62.3438 59.0625 62.3438L35.0004 62.3438C35.4781 61.7078 35.8203 60.9644 35.9844 60.1563H62.1571Z" fill="#50A0DD"/>
<path d="M32.2656 41.0156C31.6616 41.0156 31.1719 41.5053 31.1719 42.1094C31.1719 42.7134 31.6616 43.2031 32.2656 43.2031H49.7656C50.3697 43.2031 50.8594 42.7134 50.8594 42.1094C50.8594 41.5053 50.3697 41.0156 49.7656 41.0156H32.2656Z" fill="#50A0DD"/>
<path d="M32.2656 45.6641C31.6616 45.6641 31.1719 46.1538 31.1719 46.7578C31.1719 47.3619 31.6616 47.8516 32.2656 47.8516H49.7656C50.3697 47.8516 50.8594 47.3619 50.8594 46.7578C50.8594 46.1538 50.3697 45.6641 49.7656 45.6641H32.2656Z" fill="#50A0DD"/>
<path d="M31.1719 51.4062C31.1719 50.8022 31.6616 50.3125 32.2656 50.3125H49.7656C50.3697 50.3125 50.8594 50.8022 50.8594 51.4062C50.8594 52.0103 50.3697 52.5 49.7656 52.5H32.2656C31.6616 52.5 31.1719 52.0103 31.1719 51.4062Z" fill="#50A0DD"/>
</svg>
