<svg width="70" height="70" viewBox="0 0 70 70" fill="none" xmlns="http://www.w3.org/2000/svg">
<g clip-path="url(#clip0_759_438)">
<path fill-rule="evenodd" clip-rule="evenodd" d="M10.2865 23.6371L6.17463 27.749C6.17463 27.749 7.5452 30.1475 9.60114 32.2034C11.6571 34.2594 13.713 35.2874 13.713 35.2874L17.8249 31.1755L17.4555 30.806C17.4433 30.6366 17.4745 30.3314 17.6177 29.946C17.7732 29.5276 18.0385 29.0774 18.4247 28.6912C18.8108 28.3051 19.261 28.0397 19.6795 27.8842C19.9828 27.7715 20.2364 27.7282 20.4133 27.7208L23.8019 30.464C23.9855 30.6126 24.214 30.6727 24.4336 30.6472C25.7401 31.7391 27.615 33.3304 29.2782 34.7992L8.19912 55.8783C6.02281 58.0546 6.02281 61.5831 8.19912 63.7594C10.3754 65.9357 13.9041 65.9356 16.0804 63.7593L37.0927 42.747C38.2223 43.9931 39.2705 45.1634 39.9779 45.9592C40.2891 46.3092 40.8251 46.3407 41.1751 46.0296C41.5252 45.7184 41.5567 45.1824 41.2456 44.8324C39.4223 42.7812 35.2702 38.1696 33.3303 36.2297C31.6342 34.5336 28.0073 31.4289 25.7785 29.5611L30.5553 24.7844C31.9767 26.6075 34.5491 29.5674 37.2708 32.2891C39.3446 34.3629 45.532 40.0343 51.2841 45.2732C53.4769 47.2703 55.6035 49.202 57.4212 50.8531L57.4278 50.8591C60.3999 53.5588 62.5446 55.507 62.7988 55.7611C63.3243 56.2866 63.1529 56.949 62.9701 57.1318L58.1729 61.929C58.0963 62.0056 57.8849 62.1176 57.5972 62.1313C57.3248 62.1443 57.1083 62.0637 56.9736 61.929C56.4411 61.3965 47.9865 52.2585 43.8045 47.7328C43.4866 47.3888 42.9501 47.3676 42.6061 47.6855C42.2621 48.0034 42.241 48.5399 42.5588 48.8839C46.7149 53.3815 55.2103 62.5643 55.7743 63.1283C56.3249 63.6789 57.0508 63.8553 57.6779 63.8254C58.2896 63.7963 58.9348 63.5657 59.3722 63.1283L64.1694 58.3311C65.0146 57.4859 65.1859 55.7497 63.9981 54.5618C63.7153 54.2791 61.4556 52.2264 58.3802 49.4328L58.3681 49.4218C56.5854 47.8025 54.5296 45.935 52.4262 44.0192C49.4061 41.2686 46.2823 38.4134 43.6985 36.0245C43.7174 36.042 43.7364 36.0595 43.7553 36.077C47.4457 32.4301 50.3254 32.1163 53.0952 31.8145C55.6823 31.5326 58.1735 31.2612 61.1398 28.2942C63.7842 25.6494 65.8098 21.8497 64.3154 15.5275C64.3059 15.5 64.298 15.4751 64.2903 15.4512L64.29 15.45C64.2731 15.3969 64.2575 15.3478 64.2294 15.2855L64.2287 15.2842C64.1905 15.2138 64.1417 15.1476 64.0823 15.0881C63.7511 14.757 63.2141 14.7569 62.883 15.0881C62.3342 15.6368 61.7853 16.1854 61.2364 16.734C60.663 17.3071 60.0896 17.8802 59.5163 18.4534L58.5792 19.3905C58.248 19.7217 58.248 20.2586 58.5792 20.5898C58.9104 20.921 59.4473 20.921 59.7785 20.5898L63.074 17.2956C63.1423 18.4234 63.1495 19.2549 63.0299 20.3326C62.7097 23.2185 61.3015 25.7336 59.9404 27.0951C58.5682 28.4676 57.3734 29.1351 56.2705 29.5111C55.194 29.8781 54.1528 29.9922 52.8751 30.1323L52.8736 30.1324C52.7831 30.1424 52.6914 30.1524 52.5985 30.1627C51.2309 30.3139 49.6541 30.5127 47.9333 31.1965C46.3077 31.8425 44.6298 32.888 42.8307 34.6104L42.5141 34.9269C42.2075 34.642 41.9114 34.3662 41.6271 34.1007L45.2067 30.5211C46.2475 29.4803 46.2475 27.7927 45.2067 26.7519C44.1658 25.711 42.4783 25.711 41.4374 26.7519L37.7889 30.4004C37.5052 30.1101 37.2246 29.8187 36.9481 29.528L37.348 29.128C39.0704 27.3289 40.1159 25.651 40.7619 24.0254C41.4457 22.3046 41.6445 20.7278 41.7957 19.3602L41.8259 19.0852L41.8261 19.0836C41.9662 17.8059 42.0803 16.7646 42.4473 15.6882C42.8233 14.5853 43.4908 13.3905 44.8633 12.0183C46.2248 10.6571 48.7399 9.24896 51.6258 8.92876C52.7035 8.8092 53.7543 8.82612 54.8443 9.06185L47.6908 16.2157C47.4801 16.4264 47.3955 16.7321 47.4677 17.0211L48.8383 22.5036C48.9153 22.8115 49.1578 23.0507 49.4668 23.1234L55.292 24.494C55.5779 24.5613 55.8782 24.4758 56.0859 24.2682L57.6278 22.7262C57.959 22.395 57.959 21.8581 57.6278 21.5269C57.2966 21.1957 56.7597 21.1957 56.4285 21.5269L55.2206 22.7348L50.3584 21.5908L49.2296 17.0755L57.0518 9.25292C57.3829 8.92174 57.3829 8.38478 57.0517 8.05362C56.9922 7.99412 56.9261 7.94532 56.8557 7.9072L56.8544 7.90649C56.792 7.8784 56.7435 7.86297 56.6904 7.84606C56.6661 7.83835 56.6404 7.83016 56.6124 7.82045C50.6997 5.77173 46.309 8.17452 43.6641 10.8189C40.6972 13.7852 40.4258 16.2764 40.1439 18.8634C39.8397 21.6554 39.5233 24.559 35.7934 28.2919C34.0389 26.3806 32.5471 24.6035 31.6773 23.4624C31.7244 23.2283 31.6725 22.977 31.517 22.7758L25.8195 15.4026C25.8225 15.2477 25.8904 14.9042 26.3704 14.5614C26.7664 14.2785 27.1141 14.1376 27.3707 14.0712C27.6024 14.0112 27.738 14.0168 27.764 14.0178C27.7688 14.018 27.7699 14.0181 27.7671 14.0175C27.8432 14.0328 27.9211 14.0375 27.9985 14.0315L32.453 13.6888C32.487 13.6862 32.5208 13.6816 32.5543 13.6749C33.095 13.5667 34.0082 13.0628 34.3918 11.9122C34.6908 11.0151 34.7779 10.262 34.778 9.93072C34.7779 9.46237 34.3983 9.08269 33.9299 9.08269L28.4474 9.08269C28.4007 9.08269 28.3541 9.08655 28.308 9.09423C26.157 9.45273 24.3874 10.0502 22.7079 11.7297L18.2533 16.1842C17.9222 16.5154 17.9222 17.0523 18.2533 17.3835C18.5845 17.7147 19.1215 17.7147 19.4526 17.3835L23.9072 12.929C25.2274 11.6087 26.5936 11.1058 28.5182 10.7788L32.9524 10.7788C32.91 10.9588 32.8547 11.16 32.7827 11.3758C32.7002 11.6236 32.5698 11.7793 32.4518 11.8768C32.3595 11.9531 32.28 11.9895 32.2432 12.0039L27.9617 12.3333C27.3753 12.2684 26.4058 12.4518 25.3846 13.1812C24.1134 14.0892 23.9878 15.3386 24.2163 16.0241C24.2464 16.1144 24.2915 16.1991 24.3498 16.2744L29.5693 23.0291L24.0863 28.5121L21.2712 26.2331C21.1573 26.141 21.0215 26.0798 20.877 26.0558C20.3424 25.9667 19.6987 26.0677 19.0887 26.2944C18.4621 26.5272 17.7987 26.9186 17.2254 27.4919C16.6521 28.0652 16.2607 28.7286 16.0278 29.3553L16.0216 29.3721L12.1568 25.5074C12.8158 25.3042 13.58 24.9694 14.1414 24.408C14.7241 23.8254 14.9807 23.1826 15.1227 22.613C15.187 22.3549 15.2299 22.102 15.2655 21.892L15.2724 21.8513C15.2955 21.7157 15.3156 21.6009 15.3369 21.4993L16.8827 19.9535C17.2138 19.6223 17.2138 19.0854 16.8827 18.7542C16.5515 18.423 16.0145 18.423 15.6834 18.7542L13.9701 20.4675C13.8682 20.5694 13.7939 20.6956 13.7543 20.8342C13.6824 21.0858 13.6377 21.3472 13.6003 21.567L13.5962 21.5912C13.5582 21.8148 13.5252 22.0093 13.477 22.2027C13.3819 22.5841 13.2387 22.9122 12.9421 23.2087C12.6583 23.4926 12.1858 23.7268 11.6259 23.8961C11.3182 23.9891 11.0127 24.0541 10.7469 24.0974L10.2865 23.6371ZM38.9594 31.5717C39.3538 31.9555 39.8359 32.416 40.3899 32.9393L44.0074 29.3218C44.3858 28.9433 44.3858 28.3297 44.0074 27.9512C43.6289 27.5727 43.0152 27.5727 42.6367 27.9512L38.9882 31.5997C38.9786 31.5903 38.969 31.581 38.9594 31.5717ZM35.9498 41.4913C35.6751 41.1908 35.4006 40.8916 35.13 40.5978L14.0248 61.7029C12.984 62.7438 11.2965 62.7438 10.2556 61.7029C9.21477 60.6621 9.21477 58.9745 10.2556 57.9337L31.4343 36.755C31.1615 36.4977 30.8623 36.2213 30.544 35.932L9.39842 57.0776C7.88446 58.5916 7.8846 61.046 9.39855 62.56C10.9125 64.0739 13.3671 64.0739 14.8811 62.56L35.9498 41.4913ZM32.6405 37.9474L13.2111 57.3769C13.5064 57.5063 13.7831 57.6919 14.0248 57.9337C14.2666 58.1755 14.4522 58.4521 14.5817 58.7475L33.9757 39.3535C33.4893 38.8334 33.0359 38.3551 32.6405 37.9474ZM8.50638 28.2326C8.44683 28.1475 8.39003 28.0652 8.3361 27.9861L10.2865 26.0357L15.4263 31.1755L13.4457 33.1561C13.4204 33.1394 13.3948 33.1225 13.3689 33.1052C12.6668 32.6371 11.7314 31.9351 10.8004 31.0041C9.86534 30.069 9.07169 29.0402 8.50638 28.2326ZM12.8255 59.133C13.204 59.5115 13.204 60.1251 12.8255 60.5036C12.4471 60.8821 11.8334 60.8821 11.4549 60.5036C11.0764 60.1251 11.0764 59.5115 11.4549 59.133C11.8334 58.7545 12.4471 58.7545 12.8255 59.133Z" fill="#50A0DD"/>
</g>
<defs>
<clipPath id="clip0_759_438">
<rect width="70" height="70" fill="white"/>
</clipPath>
</defs>
</svg>
