<svg width="70" height="70" viewBox="0 0 70 70" fill="none" xmlns="http://www.w3.org/2000/svg">
<path d="M34.9988 1.91406C35.4611 1.91406 35.8735 2.20475 36.0289 2.64016L43.7457 24.2617H56.0051C56.5862 24.2868 57.0496 24.7659 57.0496 25.3532C57.0496 25.9567 56.5605 26.4458 55.957 26.4458V26.4492H42.9747C42.5124 26.4492 42.1 26.1585 41.9446 25.7231L34.9988 6.26171L28.053 25.7231C27.8976 26.1585 27.4852 26.4492 27.0229 26.4492H4.7294L8.38142 28.9016L8.37936 28.9047C8.88109 29.24 9.01605 29.9185 8.6808 30.4202C8.35553 30.907 7.70715 31.0485 7.2106 30.7504L0.528997 26.2634C0.129431 25.9951 -0.0477763 25.4971 0.0924708 25.0367C0.232718 24.5763 0.657456 24.2617 1.13876 24.2617H26.2519L33.9687 2.64016C34.1241 2.20475 34.5365 1.91406 34.9988 1.91406Z" fill="#50A0DD"/>
<path fill-rule="evenodd" clip-rule="evenodd" d="M10.7476 31.8012C11.0598 31.3339 11.6699 31.1848 12.1575 31.4374L21.4201 37.6575L21.4352 37.6243C21.7509 36.9201 22.1831 36.3752 22.6634 35.9556L14.2918 30.3391C13.892 30.0709 13.7146 29.5729 13.8548 29.1124C13.9949 28.6518 14.4197 28.3371 14.9011 28.3371H29.0629L33.973 15.0696C34.1319 14.6404 34.5411 14.3555 34.9988 14.3555C35.4564 14.3555 35.8657 14.6404 36.0245 15.0696L40.9346 28.3371H55.0964C55.5778 28.3371 56.0026 28.6518 56.1428 29.1124C56.283 29.5729 56.1055 30.0709 55.7058 30.3391L47.2916 35.9841C47.7589 36.3998 48.1788 36.9359 48.4874 37.6243L48.4976 37.6469L48.5104 37.6747L48.5203 37.6959L65.2682 26.4492H60.6279V26.4458C60.0245 26.4458 59.5353 25.9567 59.5353 25.3532C59.5353 24.7659 59.9987 24.2868 60.5798 24.2617H68.8588C69.3401 24.2617 69.7648 24.5763 69.9051 25.0367C70.0453 25.4971 69.8681 25.9951 69.4686 26.2634L49.6405 39.5787C50.2432 40.4847 51.0088 41.5442 51.8321 42.6007C52.5997 43.5856 53.3938 44.5374 54.1139 45.32C54.8522 46.1223 55.4549 46.6826 55.8462 46.9435C57.1575 47.8177 57.7668 49.0569 58.0451 50.2592C58.1167 50.5685 58.1675 50.8811 58.2035 51.1896C58.259 51.3206 58.2896 51.4646 58.2896 51.6157C58.2896 51.7009 58.2799 51.7837 58.2615 51.8633C58.2919 52.3826 58.2908 52.873 58.2899 53.2954L58.2897 53.4969V64.1063C58.2897 64.485 58.2574 65.1655 57.8774 65.77C57.4352 66.4736 56.6732 66.8555 55.691 66.8555H50.0477C49.2806 66.8555 48.6264 66.575 48.1904 66.0351C47.7872 65.5359 47.6748 64.9436 47.6748 64.4826V63.3942H42.0912C41.522 63.3565 41.0719 62.8828 41.0719 62.304C41.0719 61.7006 41.5611 61.2114 42.1645 61.2114V61.2067H45.5629C45.3812 61.0249 45.2065 60.8783 45.0127 60.7617C44.7293 60.5912 44.3605 60.4597 43.8024 60.4597H34.9988C34.9862 60.4597 34.9737 60.4595 34.9613 60.4591C34.9489 60.4595 34.9364 60.4597 34.9238 60.4597H26.1202C25.5621 60.4597 25.1933 60.5912 24.9099 60.7617C24.7161 60.8783 24.5414 61.0249 24.3597 61.2067H34.9238C34.9364 61.2067 34.9489 61.2069 34.9613 61.2074L34.9728 61.207C34.9814 61.2068 34.9901 61.2067 34.9988 61.2067H37.4937V61.2114C38.0971 61.2114 38.5863 61.7006 38.5863 62.304C38.5863 62.8828 38.1362 63.3565 37.567 63.3942H34.9988C34.9862 63.3942 34.9737 63.394 34.9613 63.3936C34.9489 63.394 34.9364 63.3942 34.9238 63.3942H22.2478V64.4826C22.2478 64.9436 22.1354 65.5359 21.7322 66.0351C21.2962 66.575 20.642 66.8555 19.8749 66.8555H14.2316C13.2494 66.8555 12.4875 66.4736 12.0452 65.77C11.6652 65.1655 11.633 64.485 11.633 64.1063V53.4969L11.6327 53.2954C11.6318 52.873 11.6307 52.3826 11.6611 51.8633C11.6427 51.7838 11.633 51.7009 11.633 51.6157C11.633 51.4646 11.6636 51.3206 11.7191 51.1896C11.7551 50.8811 11.8059 50.5685 11.8775 50.2592C12.1558 49.0569 12.7651 47.8177 14.0764 46.9435C14.4677 46.6826 15.0704 46.1223 15.8087 45.32C16.5288 44.5374 17.3229 43.5856 18.0905 42.6007C18.9244 41.5307 19.699 40.4575 20.3053 39.5438L11.0438 33.3245L11.049 33.3167C10.5473 32.9814 10.4123 32.3029 10.7476 31.8012ZM45.0987 34.8211L51.5029 30.5246H40.1732C39.7155 30.5246 39.3063 30.2397 39.1474 29.8105L34.9988 18.6005L30.8501 29.8105C30.6913 30.2397 30.282 30.5246 29.8244 30.5246H18.4946L24.8771 34.8065C25.6136 34.6084 26.2675 34.5702 26.6469 34.5702H34.9238L34.9387 34.5703L34.9613 34.5708L34.983 34.5703L34.9988 34.5702H43.2757C43.6642 34.5702 44.3406 34.6103 45.0987 34.8211ZM34.9613 36.757L34.9443 36.7575L34.9238 36.7577H26.6469C26.3133 36.7577 25.6549 36.8057 25.0007 37.0659C24.3649 37.3187 23.7755 37.7512 23.4313 38.5191C23.077 39.3094 22.3241 40.5059 21.4148 41.7936H34.9238C34.9364 41.7936 34.9489 41.7939 34.9613 41.7943L34.9683 41.7941L34.9771 41.7938L34.9988 41.7936H38.5524C39.071 41.8788 39.4666 42.3291 39.4666 42.8718C39.4666 43.4752 38.9775 43.9644 38.374 43.9644V43.9811H34.9988C34.9862 43.9811 34.9737 43.9809 34.9613 43.9805L34.94 43.981L34.9238 43.9811H20.1007C20.0025 43.9811 19.9074 43.9682 19.817 43.944L19.8159 43.9454C19.1518 44.7974 18.4602 45.6365 17.8007 46.3783L22.5512 48.3481C22.6897 48.4055 22.8149 48.4908 22.9191 48.5987L24.7034 50.4468H31.9893C32.2365 50.4468 32.4764 50.5305 32.6699 50.6843L34.9612 52.5058L37.2527 50.6843C37.4462 50.5305 37.6861 50.4468 37.9333 50.4468H45.2192L47.0035 48.5987C47.1077 48.4908 47.2329 48.4055 47.3714 48.3481L52.1219 46.3784C51.4624 45.6365 50.7708 44.7974 50.1067 43.9454L50.1056 43.944C50.0152 43.9682 49.9201 43.9811 49.8219 43.9811H43.0449V43.9644C42.4415 43.9644 41.9523 43.4752 41.9523 42.8718C41.9523 42.3291 42.348 41.8788 42.8666 41.7936H48.5078C47.5985 40.5059 46.8456 39.3094 46.4913 38.5191C46.1471 37.7512 45.5577 37.3187 44.9219 37.0659C44.2677 36.8057 43.6093 36.7577 43.2757 36.7577H34.9988C34.9862 36.7577 34.9737 36.7575 34.9613 36.757ZM53.7617 48.0665L48.4193 50.2817L48.2599 50.4468H55.8328C55.6236 49.7555 55.2625 49.1834 54.6328 48.7636C54.3628 48.5836 54.069 48.3452 53.7617 48.0665ZM49.2129 52.6343H38.3151L35.6794 54.7293C35.4674 54.8978 35.2121 54.975 34.9611 54.9662C34.7102 54.975 34.4549 54.8978 34.2429 54.7293L31.6075 52.6343H20.7097C20.9021 52.8394 21.0856 53.0484 21.2591 53.2556C22.1551 54.3259 22.8847 55.4786 23.2058 55.9861C23.267 56.0828 23.3134 56.1561 23.3433 56.2009C23.6784 56.7035 23.5426 57.3826 23.0399 57.7177C22.8307 57.8572 22.5908 57.9151 22.3579 57.8988C22.3331 57.9005 22.308 57.9014 22.2828 57.9014H17.8433C16.8631 57.9014 16.0554 57.5694 15.4346 57.01C14.8373 56.4717 14.4688 55.7747 14.2348 55.1118C14.0109 54.4774 13.8877 53.8073 13.8203 53.2023L13.8205 59.3659C13.8205 59.9823 14.1196 60.4142 14.5663 60.7333C15.054 61.0816 15.6057 61.2067 15.8117 61.2067H20.9284C21.4233 61.2067 21.6328 60.9699 22.3673 60.1394L22.3947 60.1085C22.731 59.7283 23.1733 59.2536 23.7823 58.8872C24.4136 58.5075 25.1735 58.2722 26.1202 58.2722H34.9238C34.9364 58.2722 34.9489 58.2724 34.9613 58.2728C34.9737 58.2724 34.9862 58.2722 34.9988 58.2722H43.8024C44.7491 58.2722 45.509 58.5075 46.1403 58.8872C46.7493 59.2536 47.1916 59.7283 47.5279 60.1085L47.5553 60.1394C48.2898 60.9699 48.4993 61.2067 48.9943 61.2067H54.1109C54.3169 61.2067 54.8686 61.0816 55.3563 60.7333C55.803 60.4142 56.1022 59.9823 56.1022 59.3659L56.1023 53.2023C56.0349 53.8072 55.9117 54.4774 55.6878 55.1118C55.4538 55.7747 55.0853 56.4717 54.488 57.01C53.8672 57.5694 53.0595 57.9014 52.0793 57.9014H47.6399C47.6146 57.9014 47.5895 57.9005 47.5647 57.8988C47.3318 57.9151 47.0919 57.8572 46.8827 57.7177C46.38 57.3826 46.2442 56.7035 46.5793 56.2009C46.6092 56.1561 46.6555 56.0829 46.7167 55.9862C47.0379 55.4787 47.7675 54.3258 48.6635 53.2556C48.837 53.0484 49.0206 52.8394 49.2129 52.6343ZM49.5274 55.7139H52.0793C52.5287 55.7139 52.812 55.5756 53.0236 55.3849C53.2587 55.1731 53.4639 54.8402 53.625 54.3838C53.8123 53.8531 53.9064 53.2555 53.9527 52.7095H52.9822C52.7135 52.7095 52.3251 52.8428 51.8178 53.2143C51.3244 53.5755 50.8197 54.0878 50.3408 54.6599C50.0438 55.0146 49.7708 55.3743 49.5274 55.7139ZM56.1022 62.8389C55.4053 63.2116 54.6651 63.3942 54.1109 63.3942H49.8623V64.4826C49.8623 64.5446 49.8703 64.5943 49.8803 64.6282C49.8826 64.6363 49.8849 64.6428 49.8869 64.6479L49.8876 64.6497C49.909 64.6564 49.9584 64.668 50.0477 64.668H55.691C55.8992 64.668 55.9874 64.6305 56.0084 64.62C56.0204 64.614 56.0211 64.6129 56.0242 64.6079L56.0253 64.6059C56.0358 64.5893 56.0585 64.5431 56.0764 64.4479C56.0943 64.353 56.1022 64.2392 56.1022 64.1063V62.8389ZM20.0603 63.3942H15.8117C15.2575 63.3942 14.5173 63.2116 13.8205 62.8389V64.1063C13.8205 64.2392 13.8283 64.353 13.8462 64.4479C13.8641 64.5431 13.8868 64.5893 13.8973 64.6059L13.8984 64.6078C13.9015 64.6129 13.9022 64.614 13.9142 64.62C13.9352 64.6305 14.0235 64.668 14.2316 64.668H19.8749C19.9642 64.668 20.0136 64.6564 20.035 64.6497C20.0371 64.6444 20.0397 64.6373 20.0423 64.6282C20.0523 64.5943 20.0603 64.5446 20.0603 64.4826V63.3942ZM15.9699 52.7095C16.0162 53.2555 16.1103 53.8531 16.2976 54.3838C16.4587 54.8402 16.6639 55.1731 16.899 55.3849C17.1106 55.5756 17.3939 55.7139 17.8433 55.7139H20.3952C20.1518 55.3743 19.8788 55.0146 19.5818 54.6599C19.1029 54.0878 18.5982 53.5755 18.1048 53.2143C17.5975 52.8428 17.2091 52.7095 16.9404 52.7095H15.9699ZM14.0898 50.4468H21.6627L21.5033 50.2817L16.161 48.0665C15.8536 48.3452 15.5598 48.5836 15.2898 48.7636C14.6601 49.1834 14.299 49.7555 14.0898 50.4468Z" fill="#50A0DD"/>
</svg>
