<svg width="70" height="70" viewBox="0 0 70 70" fill="none" xmlns="http://www.w3.org/2000/svg">
<path d="M34.9998 32.5C36.1043 32.5 36.9998 31.6046 36.9998 30.5C36.9998 29.3954 36.1043 28.5 34.9998 28.5C33.8952 28.5 32.9998 29.3954 32.9998 30.5C32.9998 31.6046 33.8952 32.5 34.9998 32.5Z" fill="#50A0DD"/>
<path fill-rule="evenodd" clip-rule="evenodd" d="M52.9681 8.62161C52.9681 9.18244 52.5455 9.64458 52.0014 9.70703H9.43359V16.543H60.5664V9.70703H56.4205C55.8763 9.64459 55.4538 9.18245 55.4538 8.62161C55.4538 8.01818 55.943 7.52901 56.5464 7.52901V7.51953H67.4023C68.0064 7.51953 68.4961 8.00922 68.4961 8.61328C68.4961 9.21734 68.0064 9.70703 67.4023 9.70703H62.7539V17.6367C62.7539 17.6745 62.752 17.7118 62.7483 17.7485C62.6923 18.3001 62.2265 18.7305 61.6602 18.7305H43.7565C43.1149 21.307 41.3659 23.4456 39.0442 24.6116C40.9757 25.9131 42.2461 28.1207 42.2461 30.625C42.2461 32.9834 41.1194 35.0786 39.375 36.4018V45.5473C41.746 45.6576 43.6971 46.2376 45.0793 47.5914C46.6354 49.1155 47.2363 51.3894 47.2363 54.2773C47.2363 56.8767 47.8915 58.2541 48.831 59.0317C49.8184 59.8491 51.3725 60.2246 53.6621 60.2246H55.918C56.522 60.2246 57.0117 60.7143 57.0117 61.3184C57.0117 61.9224 56.522 62.4121 55.918 62.4121H53.6621C51.2349 62.4121 49.0293 62.0357 47.4361 60.7168C45.795 59.3583 45.0488 57.2151 45.0488 54.2773C45.0488 51.6282 44.4877 50.0739 43.5486 49.1542C42.6992 48.3222 41.3503 47.8219 39.224 47.7302C38.8068 49.2748 37.565 50.4808 36 50.8467V61.5C36 62.0523 35.5523 62.5 35 62.5C34.4477 62.5 34 62.0523 34 61.5V50.8467C32.4332 50.4804 31.1904 49.2721 30.7746 47.7249C28.57 47.801 27.182 48.3047 26.3146 49.1542C25.3756 50.0739 24.8145 51.6282 24.8145 54.2773C24.8145 57.2151 24.0683 59.3583 22.4272 60.7168C20.834 62.0357 18.6284 62.4121 16.2012 62.4121H13.9453C13.3413 62.4121 12.8516 61.9224 12.8516 61.3184C12.8516 60.7143 13.3413 60.2246 13.9453 60.2246H16.2012C18.4908 60.2246 20.0449 59.8491 21.0323 59.0317C21.9717 58.2541 22.627 56.8767 22.627 54.2773C22.627 51.3894 23.2279 49.1155 24.784 47.5914C26.1927 46.2116 28.1922 45.6357 30.625 45.5415V43.7866H30.6296C30.6296 43.1831 31.1188 42.694 31.7222 42.694C32.3016 42.694 32.7757 43.145 32.8125 43.7151V46.5865C32.8125 47.7946 33.7919 48.774 35 48.774C36.2081 48.774 37.1875 47.7946 37.1875 46.5865V37.5351C36.4973 37.7534 35.7624 37.8711 35 37.8711C34.2376 37.8711 33.5027 37.7534 32.8125 37.5351V39.1871C32.7757 39.7572 32.3016 40.2083 31.7222 40.2083C31.1188 40.2083 30.6296 39.7191 30.6296 39.1157H30.625V36.4018C28.8806 35.0786 27.7539 32.9834 27.7539 30.625C27.7539 28.1207 29.0243 25.9131 30.9558 24.6116C28.6341 23.4456 26.8851 21.307 26.2435 18.7305H8.33984C7.77354 18.7305 7.30775 18.3001 7.25174 17.7485C7.24801 17.7118 7.24609 17.6745 7.24609 17.6367V9.70703H2.59766C1.99359 9.70703 1.50391 9.21734 1.50391 8.61328C1.50391 8.00922 1.99359 7.51953 2.59766 7.51953H51.8755V7.52901C52.4789 7.52901 52.9681 8.01819 52.9681 8.62161ZM35 35.6836C37.7938 35.6836 40.0586 33.4188 40.0586 30.625C40.0586 27.8312 37.7938 25.5664 35 25.5664C32.2062 25.5664 29.9414 27.8312 29.9414 30.625C29.9414 33.4188 32.2062 35.6836 35 35.6836ZM41.4784 18.7305C40.5662 21.433 38.0104 23.3789 35 23.3789C31.9896 23.3789 29.4338 21.433 28.5216 18.7305H41.4784Z" fill="#50A0DD"/>
<path d="M11 13C11 12.4477 11.4477 12 12 12H57.5C58.0523 12 58.5 12.4477 58.5 13C58.5 13.5523 58.0523 14 57.5 14H12C11.4477 14 11 13.5523 11 13Z" fill="#50A0DD"/>
</svg>
