<svg width="70" height="70" viewBox="0 0 70 70" fill="none" xmlns="http://www.w3.org/2000/svg">
<path d="M35 1.64075C35.1551 1.63832 35.3132 1.67058 35.4629 1.74156C36.9167 2.43107 39.8662 3.6637 43.3846 5.08972C43.7077 5.38929 43.8297 5.86843 43.6546 6.30115C43.4598 6.78242 42.9611 7.04946 42.4694 6.9705C39.2881 5.68006 36.5712 4.54696 35 3.828C30.4595 5.90571 16.3501 11.442 9.11864 14.2394C8.77433 21.3162 8.53401 30.309 11.6262 39.468C14.7653 48.7659 21.3679 58.31 35 66.1244C48.6321 58.31 55.2347 48.7659 58.3738 39.468C61.466 30.309 61.2257 21.3162 60.8814 14.2394C57.1171 12.7833 51.4891 10.585 46.3173 8.51865C45.929 8.2288 45.7685 7.70373 45.9588 7.23348C46.137 6.79311 46.5697 6.53211 47.0186 6.55141C52.4771 8.73252 58.4805 11.0753 62.2663 12.5372L62.8988 12.7814L62.9327 13.4585C63.2914 20.6312 63.6829 30.2681 60.3515 40.1355C57.0055 50.0463 49.9339 60.1125 35.5277 68.2249C35.3607 68.319 35.1788 68.3621 35 68.3592C34.8212 68.3621 34.6393 68.319 34.4723 68.2249C20.0661 60.1125 12.9945 50.0463 9.64849 40.1355C6.31713 30.2681 6.70861 20.6312 7.06731 13.4585L7.10117 12.7814L7.73366 12.5372C15.0178 9.72436 30.5115 3.65082 34.5371 1.74156C34.6868 1.67058 34.8449 1.63832 35 1.64075Z" fill="#50A0DD"/>
<path d="M52.236 31.7717C52.236 41.2808 44.526 48.9894 35.0153 48.9894C25.5045 48.9894 17.7946 41.2808 17.7946 31.7717C17.7946 22.2627 25.5045 14.5541 35.0153 14.5541C40.0023 14.5541 44.4942 16.6736 47.6391 20.0608C47.8567 20.5263 47.7207 21.0955 47.289 21.4078C46.9262 21.6702 46.4566 21.6775 46.0939 21.4642C43.331 18.4969 39.3899 16.6411 35.0153 16.6411C26.6574 16.6411 19.8819 23.4153 19.8819 31.7717C19.8819 40.1281 26.6574 46.9024 35.0153 46.9024C43.3732 46.9024 50.1486 40.1281 50.1486 31.7717C50.1486 29.1615 49.4875 26.7056 48.3236 24.5623C48.2234 24.1447 48.3763 23.6891 48.7459 23.4218C49.1724 23.1132 49.7468 23.1573 50.1212 23.4983C51.4693 25.9535 52.236 28.7731 52.236 31.7717Z" fill="#50A0DD"/>
<path fill-rule="evenodd" clip-rule="evenodd" d="M34.3187 19.0783C34.5172 18.9239 34.7541 18.8525 34.9873 18.8588C35.084 18.8562 35.1812 18.8669 35.2761 18.8914C35.333 18.906 35.388 18.9253 35.4406 18.9488C35.5208 18.9846 35.5956 19.0303 35.6636 19.0842C39.096 21.7572 42.1868 26.8162 42.8953 31.4932C43.2523 33.8502 43.0216 36.2338 41.782 38.1736C40.6456 39.952 38.7541 41.2136 36.059 41.7776V43.6415C36.059 44.2178 35.5917 44.6849 35.0153 44.6849C34.4389 44.6849 33.9716 44.2178 33.9716 43.6415V41.7892C31.2467 41.2309 29.3369 39.9643 28.1926 38.1736C26.9531 36.2338 26.7224 33.8502 27.0794 31.4932C27.7884 26.8127 30.8833 21.7498 34.3187 19.0783ZM33.9716 35.0295C32.7585 33.9143 31.1129 32.5323 29.2297 31.3023C29.4461 30.1735 29.8163 29.0199 30.3014 27.8945C32.3862 29.3527 33.272 30.3102 33.9716 31.0688V35.0295ZM33.9716 28.1201C33.3132 27.5305 32.447 26.8356 31.2375 26.004C32.0211 24.6074 32.9609 23.3098 33.9716 22.2276V28.1201ZM29.017 33.6826C31.2569 35.2722 33.0589 37.0023 33.9716 37.931V39.6508C31.9324 39.1502 30.6821 38.1932 29.9516 37.05C29.3531 36.1133 29.05 34.9683 29.017 33.6826ZM36.059 37.9975V39.637C38.0651 39.1327 39.2992 38.1827 40.023 37.05C40.6079 36.1348 40.9106 35.0207 40.955 33.7709C38.7183 35.3748 36.9331 37.1032 36.059 37.9975ZM40.7583 31.373C40.548 30.2436 40.1827 29.088 39.7013 27.9598C37.6753 29.3868 36.8066 30.3288 36.1162 31.0775L36.059 31.1396V35.0896C37.2551 33.9853 38.8863 32.6074 40.7583 31.373ZM36.059 28.1788C36.7095 27.5909 37.567 26.8968 38.7708 26.0643C37.9949 24.6706 37.0629 23.3734 36.059 22.2877V28.1788Z" fill="#50A0DD"/>
<path d="M35.3944 6.08624C35.2669 6.02559 35.1322 5.99803 35 6.00011C34.8678 5.99803 34.7331 6.02559 34.6056 6.08624C31.1751 7.71737 17.9722 12.9062 11.765 15.3093L11.226 15.518L11.1972 16.0964C10.8915 22.2242 10.5579 30.4574 13.3967 38.8874C14.71 42.7872 16.4835 46.4181 19.4442 50.1982C19.5666 50.3545 20.1734 50.5191 20.5828 50.2572C20.9726 49.9299 21.0412 49.4682 20.8792 49.1599C18.0964 45.5758 16.3145 41.9771 15.082 38.3172C12.447 30.4923 12.6518 22.8095 12.9452 16.7635C19.1075 14.3737 31.1308 9.64382 35 7.86876C38.8692 9.64382 50.8925 14.3737 57.0548 16.7635C57.3482 22.8095 57.553 30.4923 54.918 38.3172C52.243 46.2606 46.6166 54.4145 35 61.0905C30.0814 58.2638 26.3445 55.3145 23.3431 52.0861C23.0976 51.8656 22.4914 51.8972 22.1925 52.1512C21.9275 52.3764 21.8421 53.0296 22.0399 53.2842C25.2702 56.789 29.201 59.8651 34.5503 62.8851C34.6927 62.9655 34.8477 63.0023 35 62.9999C35.1524 63.0023 35.3073 62.9655 35.4497 62.8851C47.7259 55.9545 53.752 47.3545 56.6033 38.8874C59.4421 30.4574 59.1085 22.2242 58.8028 16.0964L58.774 15.518L58.235 15.3093C52.0278 12.9062 38.8249 7.71737 35.3944 6.08624Z" fill="#50A0DD"/>
</svg>
