<svg width="79" height="55" viewBox="0 0 79 55" fill="none" xmlns="http://www.w3.org/2000/svg">
<path fill-rule="evenodd" clip-rule="evenodd" d="M67.5842 15.1922H77.362L76.4005 20.4233H72.4364L71.5198 25.357H75.0723L74.1964 30.2948H70.6398L66.8346 51.6715H61.0168L67.5842 15.1922ZM65.4942 15.1922H59.5542L55.9568 34.3933C55.8218 35.2467 55.6119 36.0865 55.3294 36.9029C55.2512 37.0576 55.131 37.187 54.9825 37.2764C54.834 37.3658 54.6634 37.4114 54.4901 37.4081C54.4216 37.4166 54.352 37.4114 54.2855 37.3928C54.2189 37.3742 54.1568 37.3426 54.1026 37.2998C54.0484 37.2569 54.0032 37.2038 53.9697 37.1433C53.9362 37.0829 53.9151 37.0164 53.9075 36.9478C53.9046 36.2005 53.988 35.4555 54.156 34.7274L57.8227 15.1922H51.8583L48.9698 30.6289C48.4279 33.5581 48.0898 35.4811 48.0083 36.4018C47.9486 37.3046 48.1065 38.2086 48.4686 39.0378C48.8567 39.9241 49.555 40.6383 50.4323 41.0463C51.5016 41.6098 52.6997 41.8837 53.9075 41.8407C55.058 41.8666 56.2001 41.6385 57.2523 41.1726C58.245 40.7446 59.1199 40.0836 59.8027 39.2455C60.4468 38.5345 60.9451 37.704 61.2694 36.8011C61.6887 35.4227 62.01 34.0163 62.2309 32.5926L65.4901 15.1881L65.4942 15.1922ZM41.1883 31.9692C41.4409 28.9992 41.8157 25.4018 42.3616 21.0507C40.8135 26.0292 39.7664 29.6063 39.2246 31.9692H41.1883ZM47.2586 15.1922L45.4172 41.2989H39.9253L40.512 36.5689H38.426L37.1712 41.2989H31.2312L39.5994 15.1922H47.2586ZM34.8775 15.1922H29.8501L27.6786 26.95L26.5053 15.1922H21.5268L16.6379 41.2989H21.6531L23.8694 29.4148L24.7494 41.2989H29.9764L34.8653 15.1922H34.8775ZM18.8542 15.404L13.9164 27.2189L15.1386 41.3192H9.64679L8.64049 31.9896L6.88457 41.3192H1.15234L7.13716 3.23071H12.8694L9.94012 24.0615L13.5783 15.404H18.8542Z" fill="black"/>
</svg>
