<svg width="191" height="27" viewBox="0 0 191 27" fill="none" xmlns="http://www.w3.org/2000/svg">
<path fill-rule="evenodd" clip-rule="evenodd" d="M74.524 4.34124C72.4442 6.55602 71.3945 9.65272 71.3945 13.638C71.3945 16.4894 71.9291 18.8632 72.9722 20.7797C74.0284 22.6695 75.3911 24.062 77.0861 24.944C78.7942 25.8126 80.9196 26.2569 83.5014 26.2569C86.0374 26.2569 88.1694 25.7463 89.8709 24.7251C91.5725 23.7172 92.8764 22.2915 93.7761 20.4613C94.6758 18.6311 95.1322 16.3036 95.1322 13.4457C95.1322 9.52011 94.089 6.46319 92.0288 4.28157C89.9753 2.09995 87.0284 1.01245 83.2209 1.01245C79.4983 1.01245 76.6102 2.11984 74.524 4.34124ZM79.7657 18.9826C78.8986 17.9084 78.4748 16.1378 78.4748 13.6711C78.4748 11.1911 78.9115 9.40738 79.7722 8.32651C80.6327 7.25228 81.7867 6.70853 83.2145 6.70853C84.7009 6.70853 85.8875 7.24565 86.7415 8.30662C87.6151 9.36096 88.052 11.0386 88.052 13.3396C88.052 16.0649 87.6347 17.9614 86.8002 19.0157C85.9657 20.0701 84.7922 20.6006 83.2667 20.6006C81.7997 20.6006 80.6262 20.0634 79.7657 18.9826Z" fill="black"/>
<path fill-rule="evenodd" clip-rule="evenodd" d="M9.40773 21.574H17.5446L18.7069 25.492H26.2164L17.4917 1.77759H9.67191L0.947266 25.492H8.27834L9.40773 21.574ZM13.4893 7.91887L16.052 16.4444H10.9532L13.4893 7.91887Z" fill="black"/>
<path fill-rule="evenodd" clip-rule="evenodd" d="M40.3873 1.77759H26.9937V25.492H39.3576C39.8791 25.492 40.955 25.3825 42.5657 25.17C43.7803 25.0025 44.6847 24.7448 45.2853 24.384C46.2557 23.8171 47.0215 23.044 47.5826 22.0648C48.1436 21.0919 48.4209 19.9773 48.4209 18.7469C48.4209 17.2393 48.0248 15.9831 47.2459 14.991C46.4537 13.9924 45.226 13.2902 43.5624 12.8778C44.6516 12.4913 45.49 11.9566 46.0577 11.2866C46.9159 10.288 47.3384 9.08327 47.3384 7.68527C47.3384 6.01669 46.7376 4.61224 45.5428 3.47838C44.3546 2.33808 42.6251 1.77759 40.3873 1.77759ZM37.3244 11.0739H34.2086V6.57074H37.3772C38.4532 6.57074 39.2189 6.77045 39.6546 7.15699C40.1035 7.54354 40.3147 8.0847 40.3147 8.78048C40.3147 9.5278 40.0969 10.0883 39.6546 10.4877C39.2189 10.8872 38.4466 11.0739 37.3244 11.0739ZM37.8657 20.3897H34.2086V15.5837H37.8459C39.1001 15.5837 39.9781 15.7962 40.4797 16.2279C40.9814 16.6466 41.2322 17.2136 41.2322 17.9158C41.2322 18.6696 40.9748 19.2688 40.4731 19.7133C39.9648 20.1578 39.1001 20.3897 37.8657 20.3897Z" fill="black"/>
<path d="M49.1875 1.77759H70.628V7.63532H63.4357V25.492H56.3798V7.63532H49.1875V1.77759Z" fill="black"/>
<path d="M118.868 25.492H111.71V7.60954H103.833V25.492H96.6621V1.77759H118.868V25.492Z" fill="black"/>
<path fill-rule="evenodd" clip-rule="evenodd" d="M123.639 4.34124C121.486 6.55602 120.402 9.65272 120.402 13.638C120.402 16.4894 120.947 18.8632 122.024 20.7797C123.114 22.6695 124.534 24.062 126.283 24.944C128.034 25.8126 130.241 26.2569 132.906 26.2569C135.531 26.2569 137.718 25.7463 139.474 24.7251C141.231 23.7172 142.577 22.2915 143.506 20.4613C144.434 18.6311 144.906 16.3036 144.906 13.4457C144.906 9.52011 143.848 6.46319 141.715 4.28157C139.589 2.09995 136.547 1.01245 132.616 1.01245C128.787 1.01245 125.78 2.11984 123.639 4.34124ZM129.043 18.9826C128.161 17.9084 127.71 16.1378 127.71 13.6711C127.71 11.1911 128.161 9.40738 129.05 8.32651C129.951 7.25228 131.13 6.70853 132.603 6.70853C134.131 6.70853 135.355 7.24565 136.251 8.30662C137.146 9.36096 137.597 11.0386 137.597 13.3396C137.597 16.0649 137.166 17.9614 136.305 19.0157C135.456 20.0701 134.232 20.6006 132.657 20.6006C131.143 20.6006 129.932 20.0634 129.043 18.9826Z" fill="black"/>
<path d="M167.876 25.3958H160.682V7.58587H155.057V14.8446C155.057 17.829 154.905 20.0304 154.594 21.423C154.282 22.8286 153.54 23.8555 152.4 24.5166C151.248 25.1712 149.386 25.492 146.828 25.492C146.053 25.492 145.153 25.4087 144.139 25.2418V20.4539H145.219C146.199 20.4539 146.881 20.2358 147.279 19.7994C147.677 19.3693 147.882 18.5671 147.882 17.4054V1.77759H167.876V25.3958Z" fill="black"/>
<path d="M188.979 1.77759H170.172V25.492H189.315V20.1176H177.206V15.4457H188.12V10.6125H177.206V6.84269H188.979V1.77759Z" fill="black"/>
</svg>
