<svg width="120" height="38" viewBox="0 0 120 38" fill="none" xmlns="http://www.w3.org/2000/svg">
<g clip-path="url(#clip0_759_376)">
<path d="M10.3483 6.97272C11.6697 5.84921 13.6025 5.58482 14.3145 7.99706H14.3165C16.7579 15.6888 23.7529 37.7558 23.7529 37.7558L33.1893 7.99706C33.9003 5.58482 35.833 5.84921 37.1555 6.97272C40.4107 9.98068 44.6493 16.2921 41.9366 25.379C39.664 33.0781 30.2115 38.0017 30.2115 38.0017H41.2315C41.2315 38.0017 46.9216 31.6242 47.4302 24.1234C48.0745 14.64 44.2764 8.65898 39.8683 4.75997C35.7314 1.09211 31.798 0.00170898 31.798 0.00170898L23.7519 26.3642L15.7058 0.00170898C15.7058 0.00170898 11.7724 1.09211 7.63553 4.75997C3.22739 8.65899 -0.570682 14.64 0.0735603 24.1234C0.582219 31.6242 6.27231 38.0017 6.27231 38.0017H17.2923C17.2923 38.0017 7.83904 33.0781 5.56717 25.379C2.85445 16.291 7.09303 9.97965 10.3483 6.97272Z" fill="black"/>
<path d="M60.9448 8.48405C61.3671 7.90349 61.963 7.61322 62.7327 7.61322C63.0845 7.61322 63.443 7.67699 63.808 7.80454C64.1731 7.93208 64.5359 8.08162 64.8966 8.25315L65.5563 6.59065C64.6107 6.13764 63.6695 5.91113 62.7327 5.91113C61.8135 5.91113 61.0108 6.11345 60.3247 6.51808C59.643 6.91831 59.1196 7.49667 58.7546 8.25315C58.3895 9.00523 58.207 9.88266 58.207 10.8854C58.207 12.4776 58.5786 13.7003 59.3219 14.5535C60.0652 15.4023 61.1384 15.8268 62.5414 15.8268C63.5177 15.8268 64.4018 15.6618 65.1934 15.332V13.6167C64.2302 13.9553 63.41 14.1247 62.7327 14.1247C61.1186 14.1247 60.3115 13.0493 60.3115 10.8986C60.3115 9.86507 60.5226 9.06021 60.9448 8.48405Z" fill="black"/>
<path d="M73.1959 9.82988V8.31912H66.348V9.82988H68.7691V15.6948H70.7813V9.82988H73.1959Z" fill="black"/>
<path fill-rule="evenodd" clip-rule="evenodd" d="M79.2587 15.6948L78.8695 14.692H78.8167C78.4781 15.1187 78.1284 15.4155 77.7677 15.5827C77.4115 15.7454 76.9453 15.8268 76.3691 15.8268C75.661 15.8268 75.1025 15.6244 74.6934 15.2198C74.2888 14.8152 74.0865 14.239 74.0865 13.4913C74.0865 12.7085 74.3592 12.1323 74.9046 11.7629C75.4543 11.389 76.2812 11.1823 77.3851 11.1427L78.665 11.1031V10.7799C78.665 10.0322 78.2823 9.65836 77.5171 9.65836C76.9277 9.65836 76.235 9.83648 75.4389 10.1927L74.7726 8.8337C75.6215 8.38949 76.5627 8.16738 77.5962 8.16738C78.5858 8.16738 79.3445 8.38289 79.8723 8.81391C80.4 9.24493 80.6639 9.90025 80.6639 10.7799V15.6948H79.2587ZM78.665 12.2775L77.8865 12.3038C77.3015 12.3214 76.8661 12.427 76.5802 12.6205C76.2944 12.814 76.1514 13.1087 76.1514 13.5045C76.1514 14.0719 76.4769 14.3556 77.1278 14.3556C77.594 14.3556 77.9657 14.2214 78.2428 13.9531C78.5242 13.6849 78.665 13.3286 78.665 12.8844V12.2775Z" fill="black"/>
<path d="M84.7542 11.1559V8.31912H82.7421V15.6948H84.7542V12.6535H87.5646V15.6948H89.5768V8.31912H87.5646V11.1559H84.7542Z" fill="black"/>
<path d="M98.6611 14.2236H99.7365V18.3403H97.9289V15.6948H91.6879V8.31912H93.7V14.184H96.6424V8.31912H98.6611V14.2236Z" fill="black"/>
<path d="M102.936 11.2351V8.31912H100.99V15.6948H103.405L106.796 10.5358C106.708 11.4902 106.664 12.2291 106.664 12.7525V15.6948H108.61V8.31912H106.189L102.784 13.4913C102.886 12.295 102.936 11.543 102.936 11.2351Z" fill="black"/>
<path fill-rule="evenodd" clip-rule="evenodd" d="M111.849 15.6948H109.672L111.658 12.7788C111.183 12.5809 110.822 12.295 110.576 11.9212C110.334 11.5474 110.213 11.1075 110.213 10.6018C110.213 9.88926 110.479 9.33069 111.011 8.92606C111.548 8.52143 112.278 8.31912 113.201 8.31912H116.632V15.6948H114.62V12.9504H113.511L111.849 15.6948ZM112.185 10.615C112.185 10.9228 112.306 11.1647 112.548 11.3406C112.79 11.5122 113.107 11.5979 113.498 11.5979H114.62V9.73752H113.241C112.911 9.73752 112.652 9.81889 112.463 9.98162C112.278 10.14 112.185 10.3511 112.185 10.615Z" fill="black"/>
<path d="M60.4105 25.8018L57.9629 28.8035V28.975L60.4105 31.9636L61.8553 31.1785L60.0146 28.8827L61.8553 26.5868L60.4105 25.8018Z" fill="black"/>
<path d="M63.7421 25.8018L61.3011 28.8035V28.975L63.7421 31.9636L65.1934 31.1785L63.3528 28.8827L65.1934 26.5868L63.7421 25.8018Z" fill="black"/>
<path d="M73.6115 25.1948C73.6115 25.815 73.3916 26.3273 72.9518 26.732C72.512 27.1366 71.916 27.3939 71.1639 27.5038V27.5434C72.048 27.6314 72.7253 27.8755 73.1959 28.2757C73.6709 28.6759 73.9084 29.1971 73.9084 29.8393C73.9084 30.7277 73.5477 31.4292 72.8264 31.9438C72.1095 32.4584 71.1156 32.7156 69.8445 32.7156C68.4283 32.7156 67.2914 32.5419 66.4337 32.1945V30.4792C66.8472 30.6771 67.3309 30.8332 67.8851 30.9476C68.4437 31.0575 68.9649 31.1125 69.4487 31.1125C71.0716 31.1125 71.883 30.6397 71.883 29.6941C71.883 29.2675 71.6213 28.9398 71.098 28.7111C70.579 28.4824 69.8093 28.3681 68.7889 28.3681H67.8851V26.7716H68.6966C69.7169 26.7716 70.4602 26.6748 70.9264 26.4813C71.3926 26.2878 71.6257 25.9667 71.6257 25.5181C71.6257 25.1882 71.4784 24.9265 71.1837 24.733C70.8934 24.5351 70.4558 24.4361 69.8709 24.4361C68.9649 24.4361 68.0896 24.6978 67.2452 25.2212L66.3546 23.8556C66.9043 23.4905 67.4871 23.2244 68.1028 23.0573C68.7186 22.8858 69.4025 22.8 70.1546 22.8C71.2057 22.8 72.0436 23.0199 72.6681 23.4597C73.297 23.8996 73.6115 24.4779 73.6115 25.1948Z" fill="black"/>
<path fill-rule="evenodd" clip-rule="evenodd" d="M76.1052 31.7327C76.7738 32.388 77.7018 32.7156 78.8893 32.7156C79.4654 32.7156 79.9536 32.6717 80.3539 32.5837C80.7541 32.5001 81.1301 32.3704 81.482 32.1945V30.6375C81.051 30.8398 80.6375 30.9872 80.2417 31.0795C79.8459 31.1719 79.4258 31.2181 78.9816 31.2181C78.4099 31.2181 77.9657 31.0575 77.649 30.7365C77.3323 30.4154 77.163 29.969 77.141 29.3972H81.8976V28.4209C81.8976 27.3741 81.6073 26.5538 81.0268 25.9601C80.4462 25.3663 79.6348 25.0695 78.5924 25.0695C77.5017 25.0695 76.6462 25.4081 76.0261 26.0854C75.4103 26.7584 75.1025 27.7128 75.1025 28.9486C75.1025 30.1493 75.4367 31.0773 76.1052 31.7327ZM77.6028 26.9101C77.8447 26.6374 78.179 26.5011 78.6056 26.5011C79.0322 26.5011 79.3709 26.6374 79.6216 26.9101C79.8723 27.1784 80.002 27.561 80.0108 28.058H77.1872C77.2224 27.561 77.3609 27.1784 77.6028 26.9101Z" fill="black"/>
<path d="M85.5459 25.208V28.0448H88.3563V25.208H90.3684V32.5837H88.3563V29.5424H85.5459V32.5837H83.5337V25.208H85.5459Z" fill="black"/>
<path d="M94.4257 28.124V25.208H92.4796V32.5837H94.8941L98.2851 27.4247C98.1971 28.3791 98.1532 29.118 98.1532 29.6413V32.5837H100.099V25.208H97.6782L94.274 30.3802C94.3752 29.1839 94.4257 28.4319 94.4257 28.124Z" fill="black"/>
<path d="M108.319 25.208V26.7188H105.905V32.5837H103.893V26.7188H101.472V25.208H108.319Z" fill="black"/>
<path d="M113.967 31.9636L116.414 28.975V28.8035L113.967 25.8018L112.522 26.5868L114.356 28.8827L112.522 31.1785L113.967 31.9636Z" fill="black"/>
<path d="M110.629 31.9636L113.076 28.975V28.8035L110.629 25.8018L109.184 26.5868L111.018 28.8827L109.184 31.1785L110.629 31.9636Z" fill="black"/>
</g>
<defs>
<clipPath id="clip0_759_376">
<rect width="119.911" height="38" fill="white"/>
</clipPath>
</defs>
</svg>
