<svg width="115" height="30" viewBox="0 0 115 30" fill="none" xmlns="http://www.w3.org/2000/svg">
<g clip-path="url(#clip0_759_372)">
<path d="M64.0876 15.2747L63.5783 15.4446L63.5563 15.4523C63.1089 15.6095 56.2359 18.0249 52.5626 13.2662C52.0122 12.4403 51.0071 10.4457 51.2077 7.07659C51.2605 6.24318 51.4256 5.42076 51.6988 4.63171C52.0023 3.75981 52.4865 2.96199 53.1198 2.29059C53.7626 1.62881 54.5363 1.10842 55.3913 0.762621C55.406 0.75616 55.4212 0.74771 55.4362 0.739402C55.4521 0.730543 55.4678 0.721846 55.4822 0.715895C55.4966 0.709939 55.5107 0.706574 55.5248 0.703206C55.538 0.700056 55.5512 0.696903 55.5647 0.691623C56.9165 0.165509 58.3691 -0.00925513 59.8185 -0.000152822C60.5288 -0.00419354 61.2382 0.0475449 61.9403 0.154586C62.5181 0.249857 63.0903 0.349376 63.6535 0.518679L64.0348 0.634582L63.9415 1.39553C63.9214 1.55999 63.9004 1.72412 63.8794 1.88833C63.8508 2.11192 63.8222 2.33567 63.796 2.56063C63.776 2.73025 63.7534 2.89719 63.7306 3.06542C63.7208 3.13713 63.711 3.20965 63.7014 3.28214L63.5444 4.45391L62.9867 4.3283C62.2795 4.1604 61.559 4.05502 60.8334 4.01336C59.9386 3.97209 59.0195 3.95268 58.1581 4.20269C57.6592 4.34772 57.1924 4.63232 56.9093 5.06923C56.66 5.46646 56.5003 5.91336 56.4413 6.37875C56.369 6.8201 56.3319 7.26651 56.3303 7.71375C56.3334 7.85868 56.3319 8.00329 56.3305 8.1475C56.3291 8.28649 56.3276 8.42511 56.3303 8.5633C56.3243 10.2642 56.9075 11.1041 56.9972 11.2145C58.5921 13.1836 63.0388 11.7952 63.1807 11.7376L63.5486 11.5883L63.6699 12.4099C63.7294 12.8106 63.787 13.2115 63.8446 13.6119L63.8449 13.6139C63.901 14.0042 63.9571 14.3942 64.0148 14.7832L64.0876 15.2747Z" fill="black"/>
<path fill-rule="evenodd" clip-rule="evenodd" d="M99.1504 15.8987H104.028L104.032 14.4727V10.7668L106.006 10.7571L106.067 10.8651L108.437 15.4205L108.696 15.8987H114.455L113.134 13.8895C112.896 13.5263 112.657 13.1633 112.418 12.8002L112.416 12.7976C111.77 11.8161 111.124 10.8346 110.484 9.85053C110.564 9.79686 110.647 9.74822 110.733 9.70489L110.743 9.69993C110.99 9.57482 113.84 8.13118 113.046 4.09726C113.01 3.93201 112.965 3.76876 112.912 3.60816C112.838 3.38711 112.746 3.17273 112.636 2.96736C111.34 0.344582 106.998 0.304017 106.506 0.29942L106.481 0.299172C105.787 0.289871 105.093 0.292967 104.398 0.296067C104.05 0.297619 103.701 0.299172 103.353 0.299172C102.977 0.299172 102.603 0.297939 102.228 0.296707C101.213 0.293365 100.199 0.290026 99.1662 0.311308C99.1573 1.83378 99.1588 3.34621 99.1602 4.85788V4.85913C99.1612 5.94658 99.1623 7.03458 99.1595 8.12473V14.1674L99.1504 15.8987ZM105.682 7.48211L105.74 7.48256C106.287 7.48694 106.825 7.49126 107.341 7.27033C107.914 7.0276 108.072 6.31337 108.074 5.73446C108.076 5.15556 108.013 4.43101 107.391 4.15673C107.376 4.15021 107.368 4.14256 107.359 4.13519C107.348 4.12543 107.337 4.11615 107.313 4.11061C107.283 4.10379 107.266 4.09726 107.249 4.09104L107.235 4.08609L107.227 4.0833C106.729 3.93726 106.216 3.94323 105.698 3.94926L105.65 3.9498H104.04L104.035 4.88491C104.032 5.34014 104.033 5.79242 104.034 6.24746C104.034 6.47602 104.035 6.70528 104.035 6.93597V7.48211L104.591 7.49C104.766 7.49087 104.94 7.48839 105.113 7.48591C105.302 7.48322 105.491 7.48053 105.682 7.48211Z" fill="black"/>
<path d="M114.42 20.7065H0V30H114.42V20.7065Z" fill="black"/>
<path fill-rule="evenodd" clip-rule="evenodd" d="M4.91074 15.8986L4.91984 14.9883C4.9254 14.4393 4.92277 13.8927 4.92014 13.3459C4.91761 12.82 4.91508 12.2938 4.91984 11.7655V9.80852H6.40751L6.85733 10.5367C7.69715 11.8863 8.53556 13.236 9.37255 14.586C9.4187 14.6624 9.46533 14.7366 9.51183 14.8106C9.53925 14.8542 9.56662 14.8977 9.59382 14.9416L10.1849 15.8986H21.3109L21.5152 15.2311L21.5355 15.1651C21.5766 15.0316 21.6177 14.898 21.6619 14.7656C21.6983 14.657 21.7341 14.546 21.7692 14.4361L22.142 13.2723L23.0083 13.2801H27.9757L28.2983 14.3293C28.3267 14.4349 28.3589 14.5381 28.3934 14.6418L28.796 15.9022H34.2805L33.4887 13.9464C32.5915 11.7323 31.6941 9.51907 30.7965 7.3066C30.4515 6.45454 30.1055 5.60088 29.7601 4.74843L28.4401 1.48962L27.9551 0.296003H22.2809L21.9487 1.15829C21.8698 1.36512 21.7874 1.56909 21.705 1.77325C21.6505 1.90811 21.596 2.04306 21.5425 2.17897C21.2691 2.87135 20.9969 3.55766 20.7199 4.25187C20.116 5.77415 19.5132 7.29169 18.9109 8.808L18.9104 8.80935C18.413 10.0615 17.916 11.3129 17.419 12.5653L17.1954 13.1279C16.9976 13.6257 16.7993 14.1246 16.603 14.6212C16.5537 14.7454 16.5044 14.8702 16.4551 14.9956L16.1119 15.8676L15.6452 15.1431C15.6148 15.0957 15.5845 15.0484 15.553 15.0017C14.6554 13.6323 13.7574 12.2621 12.8589 10.8911C12.5181 10.3689 12.1736 9.84229 11.8306 9.31814L11.4877 8.79392C11.475 8.77466 11.4619 8.75529 11.4488 8.7359C11.4318 8.71075 11.4146 8.6854 11.3986 8.66042L10.7463 7.6895L11.595 6.45887C11.7854 6.1816 11.9774 5.90374 12.1694 5.62573L12.1719 5.62217C12.3732 5.33066 12.5746 5.03899 12.7747 4.74764C13.2435 4.06679 13.7123 3.38694 14.1811 2.70811C14.407 2.37962 14.6336 2.05153 14.8607 1.72385L15.844 0.296003H10.2152L9.42226 1.52421C9.00648 2.16836 8.59091 2.8144 8.1758 3.45974C7.88701 3.90869 7.59844 4.3573 7.31018 4.80468L7.24642 4.90331C7.15505 5.04465 7.06309 5.1869 6.97312 5.32715C6.93008 5.39451 6.88703 5.46187 6.84339 5.52922L6.46025 6.12876H4.9162V0.29661L0.0445853 0.292969V3.46239C0.0445853 3.92245 0.044181 4.38224 0.0437768 4.84193C0.0429686 5.76106 0.0421607 6.67984 0.0445853 7.59969C0.047126 8.56515 0.0460065 9.5296 0.0448874 10.4937C0.0438702 11.3699 0.0428535 12.2457 0.0445853 13.1218L0.0457978 15.8986L0.975139 15.9016C1.76687 15.9046 2.53798 15.9046 3.31941 15.9016L4.91074 15.8986ZM23.3042 9.64225L25.0592 9.63315L26.1722 9.6374H26.8391L26.479 8.46866C26.3113 7.92616 26.1417 7.38427 25.9704 6.84299C25.7539 6.16214 25.5551 5.48128 25.3575 4.79558L25.1028 3.91083L24.8197 4.87325C24.7211 5.20821 24.6201 5.54298 24.5166 5.87754C24.5073 5.90875 24.4963 5.93851 24.4854 5.96815C24.4751 5.99614 24.4648 6.02402 24.456 6.05291C24.3031 6.53758 24.1471 7.02093 23.9912 7.50383L23.9909 7.50481C23.9108 7.75306 23.8306 8.00147 23.751 8.2496L23.3042 9.64225Z" fill="black"/>
<path fill-rule="evenodd" clip-rule="evenodd" d="M40.64 15.8987H35.7617L35.7702 14.1674V8.12473C35.773 7.03426 35.772 5.94687 35.7709 4.8591V4.85784C35.7695 3.34618 35.7681 1.83377 35.7769 0.311308C36.8094 0.290026 37.8238 0.293365 38.8392 0.296707C39.2135 0.297939 39.5879 0.299172 39.9635 0.299172C40.3121 0.299172 40.6603 0.297619 41.0082 0.296067C41.7035 0.292967 42.3979 0.28987 43.0928 0.299172L43.1173 0.29942C43.6089 0.304019 47.9516 0.344632 49.246 2.96736C49.3559 3.17331 49.4479 3.3883 49.5212 3.60998C49.5741 3.77099 49.6192 3.93403 49.6564 4.09908C50.4501 8.13629 47.5951 9.57899 47.3516 9.70205L47.3424 9.70671C47.2564 9.75004 47.1732 9.79868 47.0933 9.85235C47.7336 10.8371 48.3801 11.8193 49.0266 12.8014L49.0346 12.8136C49.2711 13.1728 49.5075 13.532 49.7437 13.8913L51.0646 15.9005H45.3055L45.0491 15.4217L42.6787 10.8663L42.6181 10.7583L40.6442 10.768V14.4727L40.64 15.8987ZM42.3508 7.48256L42.2926 7.48211C42.1018 7.48053 41.9131 7.48322 41.7243 7.48591C41.5501 7.48839 41.3759 7.49087 41.2002 7.49L40.6449 7.48211V6.93597C40.6449 6.70528 40.6444 6.47602 40.6439 6.24746C40.643 5.79242 40.642 5.34014 40.6449 4.88491L40.6503 3.9498H42.261L42.3084 3.94926C42.8264 3.94323 43.3395 3.93726 43.8372 4.0833C43.8482 4.08652 43.8573 4.08982 43.8665 4.09321C43.8817 4.09878 43.8975 4.10458 43.9239 4.11061C43.9481 4.11615 43.9587 4.12543 43.9699 4.13519C43.9783 4.14256 43.987 4.15021 44.0021 4.15673C44.6241 4.43101 44.6865 5.15556 44.6847 5.73446C44.6829 6.31337 44.5247 7.0276 43.9518 7.27033C43.436 7.49126 42.8976 7.48694 42.3508 7.48256Z" fill="black"/>
<path d="M20.1891 0.29126H16.5293V3.61117H20.1891V0.29126Z" fill="black"/>
<path d="M30.0898 0.29126H33.7393V3.61178H30.0898V0.29126Z" fill="black"/>
<path d="M76.305 10.0204V15.8999H81.1796V0.296143H76.305V6.02878H71.1442V0.296143H66.2695V15.8999H71.1442V10.0204H76.305Z" fill="black"/>
<path d="M95.2842 9.69933H88.957V12.0144H96.927L96.8325 15.9004L84.0781 15.8998V0.299072H96.5354L96.63 4.18455H88.957V6.24045H95.2842V9.69933Z" fill="black"/>
</g>
<defs>
<clipPath id="clip0_759_372">
<rect width="114.452" height="30" fill="white"/>
</clipPath>
</defs>
</svg>
