<svg width="207" height="40" viewBox="0 0 207 40" fill="none" xmlns="http://www.w3.org/2000/svg">
<g clip-path="url(#clip0_759_384)">
<path fill-rule="evenodd" clip-rule="evenodd" d="M39.6271 9.93939C39.6271 6.7152 42.1811 4.12121 45.3563 4.12121C48.5314 4.12121 51.0855 6.69093 51.0855 9.91513C51.0855 13.1394 48.5314 15.7333 45.3563 15.7333C44.4252 15.7333 43.5421 15.5152 42.7542 15.103L33.2773 26.9334C34.5422 28.3394 35.3302 30.1818 35.3302 32.2424C35.3302 36.5334 31.9163 40 27.6912 40C23.4661 40 20.0522 36.5334 20.0522 32.2424C20.0522 29.2364 21.747 26.6181 24.2298 25.3333L22.2007 19.7818L11.2915 24.0243C11.3521 24.317 11.4029 24.6197 11.4323 24.9259C11.4491 25.1013 11.4584 25.2779 11.4584 25.4545C11.4584 28.6787 8.90434 31.2727 5.72921 31.2727C2.55409 31.2727 0 28.6787 0 25.4545C0 22.2304 2.55409 19.6364 5.72921 19.6364C6.30223 19.6364 6.82722 19.7333 7.35268 19.8788L14.0125 9.16359C13.0339 8.19389 12.4133 6.83641 12.4133 5.33333C12.4133 2.37571 14.7529 0 17.6651 0C20.5772 0 22.9169 2.37571 22.9169 5.33333C22.9169 7.17578 21.9858 8.79995 20.6015 9.76965L23.3225 17.2607L39.6989 10.8848C39.6508 10.5697 39.6271 10.2545 39.6271 9.93939ZM9.07126 20.7515C9.64427 21.1636 10.1217 21.6727 10.5036 22.2545L21.5321 17.9394L18.8349 10.5212C18.453 10.6181 18.0707 10.6667 17.6651 10.6667C16.9251 10.6667 16.2328 10.5212 15.5884 10.2545L9.07126 20.7515ZM40.3432 12.7273L23.9911 19.0788L26.0202 24.6787C26.34 24.605 26.6771 24.5491 27.0217 24.5168C27.2427 24.496 27.4669 24.4848 27.6912 24.4848C29.1953 24.4848 30.6034 24.9212 31.7969 25.697L41.2263 13.9637C40.8924 13.6 40.5819 13.1879 40.3432 12.7273Z" fill="black"/>
<path d="M84.3371 23.7443L87.0134 24.6061C86.6031 26.1212 85.9191 27.2481 84.9619 27.9867C84.0107 28.7191 82.8013 29.0852 81.3345 29.0852C79.519 29.0852 78.027 28.457 76.8586 27.2008C75.6897 25.9381 75.1055 24.2146 75.1055 22.0303C75.1055 19.7197 75.6929 17.9267 76.8679 16.6515C78.0428 15.3699 79.5875 14.7292 81.5024 14.7292C83.1743 14.7292 84.5329 15.2311 85.5773 16.2348C86.1988 16.8282 86.6651 17.6805 86.9761 18.7917L84.2439 19.4545C84.0821 18.7348 83.7431 18.1667 83.2275 17.75C82.7174 17.3333 82.0959 17.125 81.3625 17.125C80.3489 17.125 79.5255 17.4943 78.8914 18.233C78.2634 18.9716 77.9496 20.168 77.9496 21.822C77.9496 23.5771 78.2601 24.8271 78.8821 25.572C79.5036 26.3169 80.3116 26.6894 81.3065 26.6894C82.0399 26.6894 82.6708 26.4527 83.1995 25.9792C83.7277 25.5057 84.1068 24.7608 84.3371 23.7443Z" fill="black"/>
<path fill-rule="evenodd" clip-rule="evenodd" d="M51.9975 14.9659V28.8485H54.7576V23.6117H56.5573C57.8069 23.6117 58.7613 23.5455 59.4201 23.4129C59.905 23.3055 60.3805 23.0877 60.8468 22.7595C61.3191 22.4248 61.7079 21.9672 62.0124 21.3864C62.3169 20.8055 62.4693 20.089 62.4693 19.2367C62.4693 18.132 62.205 17.2324 61.6767 16.5379C61.1484 15.8371 60.4924 15.3826 59.7092 15.1742C59.1995 15.0354 58.1053 14.9659 56.4268 14.9659H51.9975ZM54.7576 21.2538V17.3144H56.0911C57.0856 17.3144 57.7477 17.346 58.0773 17.4091C58.2531 17.4413 58.4167 17.4925 58.5687 17.5627L58.6102 17.5824L58.6713 17.614C58.7235 17.6422 58.7743 17.6728 58.8233 17.7058C58.8694 17.737 58.9142 17.7701 58.958 17.8055L59.0014 17.8421L59.0457 17.8812L59.0769 17.9106C59.0951 17.9279 59.1133 17.9455 59.1305 17.9637C59.1497 17.9834 59.1683 18.0038 59.187 18.0246C59.4793 18.3529 59.6252 18.7695 59.6252 19.2746C59.6252 19.685 59.5194 20.0449 59.3082 20.3542C59.103 20.6635 58.8172 20.8907 58.4503 21.036C58.0834 21.1812 57.356 21.2538 56.2683 21.2538H54.7576Z" fill="black"/>
<path d="M65.7894 14.9659H62.7029L67.729 24.928C67.474 25.7108 67.2068 26.2222 66.9271 26.4621C66.6534 26.6957 66.1965 26.8125 65.5563 26.8125C65.2393 26.8125 64.8849 26.7998 64.4933 26.7746V28.858C64.953 28.9653 65.5904 29.0189 66.4049 29.0189C67.2315 29.0189 67.9062 28.7222 68.4284 28.1288C68.9506 27.529 69.4635 26.6578 69.967 25.5152L74.5828 14.9659H71.7014L68.9786 22.1723L65.7894 14.9659Z" fill="black"/>
<path d="M91.5639 21.6042L86.8921 28.8485H90.2025L93.2424 24.0473L96.273 28.8485H99.602L94.9302 21.7083L99.1824 14.9659H95.9839L93.2983 19.4261L90.5568 14.9659H87.3304L91.5639 21.6042Z" fill="black"/>
<path d="M100.675 14.9659H103.258V24.2083L108.797 14.9659H111.548V28.8485H108.965V19.786L103.435 28.8485H100.675V14.9659Z" fill="black"/>
<path d="M113.945 14.9659V28.8485H116.509V17.9205L119.213 28.8485H121.871L124.584 17.9205V28.8485H127.149V14.9659H123.008L120.556 24.4356L118.076 14.9659H113.945Z" fill="black"/>
<path fill-rule="evenodd" clip-rule="evenodd" d="M141.836 28.8485H138.833L137.64 25.6951H132.175L131.047 28.8485H128.119L133.443 14.9659H136.362L141.836 28.8485ZM136.754 23.3561L134.87 18.2045L133.024 23.3561H136.754Z" fill="black"/>
<path d="M153.726 14.9659H144.149V22.892L144.158 25.2784C144.158 25.8971 144.058 26.2854 143.86 26.4432C143.661 26.601 143.272 26.6799 142.694 26.6799L142.079 26.6705V28.839C142.585 28.8765 142.998 28.9029 143.317 28.9181C143.535 28.9285 143.71 28.9337 143.841 28.9337C144.761 28.9337 145.436 28.7475 145.865 28.375C146.3 27.9962 146.573 27.4722 146.685 26.803C146.797 26.1275 146.853 24.9407 146.853 23.2424V17.3144H150.965V28.8485H153.726V14.9659Z" fill="black"/>
<path fill-rule="evenodd" clip-rule="evenodd" d="M156.253 14.9659H159.013V20.5152H162.705C164.446 20.5152 165.705 20.9286 166.482 21.7557C167.265 22.5827 167.657 23.5739 167.657 24.7292C167.657 25.6761 167.421 26.4811 166.948 27.1439C166.476 27.8068 165.935 28.2582 165.326 28.4981C164.723 28.7317 163.85 28.8485 162.705 28.8485H156.253V14.9659ZM159.013 26.5189H161.698C162.569 26.5189 163.172 26.4779 163.507 26.3958C163.562 26.3815 163.615 26.3643 163.668 26.3443C163.695 26.3339 163.722 26.3227 163.749 26.3107C163.813 26.2824 163.875 26.25 163.935 26.2132C164.102 26.1112 164.258 25.9763 164.403 25.8087C164.67 25.5057 164.803 25.1332 164.803 24.6913C164.803 24.0536 164.577 23.5865 164.123 23.2898C163.675 22.993 162.908 22.8447 161.82 22.8447H159.013V26.5189Z" fill="black"/>
<path fill-rule="evenodd" clip-rule="evenodd" d="M176.992 23.053V28.8485H179.752V14.9659H173.942C172.575 14.9659 171.546 15.0795 170.856 15.3068C170.172 15.5278 169.619 15.9665 169.196 16.6231C168.78 17.2733 168.571 18.0214 168.571 18.8674C168.571 19.8396 168.854 20.6761 169.42 21.3769C169.986 22.0714 170.906 22.5195 172.18 22.7216C171.59 23.0625 171.098 23.4508 170.707 23.8864C170.315 24.3157 169.79 25.0669 169.131 26.1402L167.462 28.8485H170.763L172.758 25.8277C173.622 24.5082 174.231 23.7159 174.586 23.4508C174.947 23.1856 175.562 23.053 176.432 23.053H176.992ZM174.838 17.3144H176.992V20.8371H174.949C174.774 20.8371 174.607 20.8363 174.45 20.8346C174.176 20.8318 173.93 20.8265 173.711 20.8185C173.241 20.8016 172.899 20.7731 172.683 20.733C172.317 20.6635 172.012 20.4867 171.77 20.2027C171.534 19.9123 171.415 19.524 171.415 19.0379C171.415 18.5707 171.54 18.1919 171.788 17.9015C171.865 17.8119 171.946 17.7338 172.032 17.6671C172.073 17.6355 172.114 17.6065 172.157 17.58C172.315 17.4811 172.488 17.4177 172.674 17.3902C173.022 17.3396 173.744 17.3144 174.838 17.3144Z" fill="black"/>
<path d="M182.167 28.8485V14.9659H184.928V20.4299H190.336V14.9659H193.096V28.8485H190.336V22.7784H184.928V28.8485H182.167Z" fill="black"/>
<path d="M207 24.6061L204.324 23.7443C204.093 24.7608 203.714 25.5057 203.186 25.9792C202.657 26.4527 202.027 26.6894 201.293 26.6894C200.298 26.6894 199.49 26.3169 198.869 25.572C198.247 24.8271 197.936 23.5771 197.936 21.822C197.936 20.168 198.25 18.9716 198.878 18.233C199.512 17.4943 200.336 17.125 201.349 17.125C202.083 17.125 202.704 17.3333 203.214 17.75C203.73 18.1667 204.069 18.7348 204.231 19.4545L206.963 18.7917C206.652 17.6805 206.185 16.8282 205.564 16.2348C204.52 15.2311 203.161 14.7292 201.489 14.7292C199.574 14.7292 198.029 15.3699 196.855 16.6515C195.68 17.9267 195.092 19.7197 195.092 22.0303C195.092 24.2146 195.676 25.9381 196.845 27.2008C198.014 28.457 199.506 29.0852 201.321 29.0852C202.788 29.0852 203.997 28.7191 204.949 27.9867C205.906 27.2481 206.59 26.1212 207 24.6061Z" fill="black"/>
</g>
<defs>
<clipPath id="clip0_759_384">
<rect width="207" height="40" fill="white"/>
</clipPath>
</defs>
</svg>
