<svg width="210" height="24" viewBox="0 0 210 24" fill="none" xmlns="http://www.w3.org/2000/svg">
<path d="M0.000657478 1.99559C-0.0161847 1.7485 0.0170644 1.50057 0.0984095 1.26665C0.179755 1.03273 0.307519 0.817659 0.474035 0.634339C0.640551 0.451018 0.842387 0.303228 1.06743 0.199837C1.29247 0.0964454 1.53608 0.0395847 1.78365 0.0326666C9.45213 0.0326666 17.1217 0.0326666 24.7924 0.0326666C25.0413 0.0364207 25.2869 0.0910723 25.514 0.19326C25.7411 0.295448 25.9448 0.443011 26.1128 0.626873C26.2807 0.810735 26.4092 1.02701 26.4905 1.26239C26.5717 1.49777 26.6039 1.74729 26.5852 1.99559C26.5852 6.36963 26.5852 10.7437 26.5852 15.1177C26.5842 15.5097 26.4594 15.8913 26.2284 16.208C25.9975 16.5247 25.6724 16.7603 25.2995 16.8811C24.3834 16.9956 23.4543 16.9171 22.5317 16.9465C23.716 18.2944 24.8022 19.724 25.9472 21.1079C26.3692 21.6641 26.9287 22.217 26.9614 22.9563C26.9614 23.5714 26.3365 24.013 25.7607 23.9672C23.0028 23.9934 20.2417 23.9672 17.4838 23.9672C15.5699 21.6543 13.7411 19.2693 11.8404 16.9302H8.58517C8.52956 18.8571 8.72585 20.8069 8.4903 22.7208C8.07808 24.0065 6.58953 24.0588 5.4674 23.9738C4.25366 23.9509 3.03664 23.9934 1.8229 23.9738C1.56677 23.9713 1.31393 23.9157 1.08045 23.8103C0.846959 23.705 0.637916 23.5523 0.466577 23.3618C0.295239 23.1714 0.165346 22.9475 0.0851396 22.7042C0.00493324 22.461 -0.0238359 22.2037 0.000657478 21.9487C0.000657478 15.2966 0.000657478 8.64444 0.000657478 1.99232V1.99559ZM8.63752 3.9258C8.53937 6.55938 8.61789 9.19297 8.58517 11.8298C8.65387 12.229 8.39215 13.0861 9.0759 13.0207C12.0497 13.0468 15.0301 13.0861 18.0039 12.988C18.0268 9.96833 18.0497 6.94542 18.0039 3.9258C14.8785 3.86909 11.7564 3.86909 8.63752 3.9258ZM30.5339 1.99232C30.521 1.72606 30.565 1.46011 30.6628 1.21216C30.7607 0.964202 30.9102 0.739923 31.1015 0.554237C31.2928 0.36855 31.5214 0.22571 31.7721 0.135217C32.0228 0.0447234 32.29 0.00864978 32.5557 0.0293951C39.7793 0.0293951 47.0039 0.0293951 54.2297 0.0293951C55.3256 -0.111281 56.2711 0.893081 56.2417 1.96287C56.2417 6.25295 56.2417 10.543 56.2417 14.8331C56.3104 15.9389 55.3551 17.0905 54.1937 16.9367C49.2144 16.9367 44.2384 16.9367 39.2624 16.9367C39.0644 17.9764 39.0644 19.0442 39.2624 20.0839C44.2482 20.1134 49.2373 20.0839 54.2264 20.0839C55.6266 19.9432 56.7487 21.7001 56.0094 22.8974C55.8571 23.2306 55.6073 23.5096 55.2931 23.6977C54.9788 23.8858 54.6148 23.9741 54.2493 23.9509C47.017 23.9509 39.7836 23.9509 32.5492 23.9509C32.2814 23.9692 32.0129 23.9306 31.7611 23.8377C31.5093 23.7448 31.2801 23.5996 31.0885 23.4117C30.8969 23.2238 30.7472 22.9974 30.6494 22.7475C30.5515 22.4976 30.5077 22.2298 30.5208 21.9618C30.5208 15.3009 30.5208 8.64008 30.5208 1.97923L30.5339 1.99232ZM39.1315 12.9356C41.9123 13.0992 44.7128 13.0403 47.4968 12.9781C47.6599 9.95108 47.6675 6.91765 47.5197 3.88981C44.7749 3.87345 42.0301 3.88981 39.2885 3.88981C38.9319 6.88654 39.2166 9.92907 39.1315 12.9454V12.9356ZM60.4685 -4.87226e-05C66.8971 -4.87226e-05 73.3289 -4.87226e-05 79.7706 -4.87226e-05C81.0563 -0.0294926 82.0606 0.850551 82.908 1.72732C83.8894 2.70878 85.1064 3.78185 85.1261 5.29984C85.1424 9.73605 85.1261 14.1723 85.1261 18.6085C85.0901 20.3097 83.6081 21.3467 82.5677 22.4852C82.1816 22.9548 81.6938 23.3304 81.1413 23.5837C80.5887 23.8371 79.9857 23.9615 79.378 23.9476C73.0704 23.9476 66.7651 23.9476 60.4619 23.9476C60.4816 15.9607 60.4816 7.97596 60.4619 -0.0065918L60.4685 -4.87226e-05ZM69.125 3.87672C68.9221 5.42089 69.0465 6.98468 69.017 8.53539C69.0726 12.3729 68.9123 16.2202 69.1021 20.0512C71.4739 20.0872 73.8458 20.1166 76.2177 20.0512L76.5186 19.7633C76.5579 14.4798 76.5383 9.19624 76.5186 3.91271C74.0519 3.82765 71.5852 3.88981 69.1184 3.87999L69.125 3.87672ZM89.3496 1.97596C89.3328 1.72888 89.366 1.48094 89.4474 1.24702C89.5287 1.0131 89.6565 0.79803 89.823 0.61471C89.9895 0.431389 90.1913 0.283599 90.4164 0.180207C90.6414 0.0768162 90.885 0.0199555 91.1326 0.0130374C92.788 0.0130374 94.4467 -0.00986333 96.1021 0.0130374C96.8087 -0.0393072 97.3485 0.467781 97.7378 0.994498C100.322 4.18425 102.877 7.40671 105.488 10.5768C107.968 7.44597 110.503 4.36091 112.986 1.23005C113.408 0.716418 113.86 0.0882828 114.59 0.0359382C116.281 -0.0294926 117.976 0.00976589 119.667 0.00976589C119.929 -0.00597604 120.191 0.034012 120.436 0.12709C120.682 0.220168 120.904 0.364218 121.09 0.549729C121.275 0.735241 121.419 0.957994 121.513 1.20328C121.606 1.44857 121.646 1.71081 121.63 1.97269C121.63 8.64008 121.63 15.3075 121.63 21.9749C121.661 22.4391 121.517 22.8981 121.226 23.2614C120.935 23.6247 120.519 23.866 120.06 23.9378C118.375 24.0065 116.683 23.9607 114.998 23.9607C114.737 23.9749 114.475 23.9338 114.231 23.8401C113.986 23.7465 113.764 23.6024 113.579 23.4172C113.394 23.2321 113.25 23.01 113.156 22.7654C113.062 22.5208 113.021 22.2593 113.036 21.9978C113.036 17.1526 113.036 12.3042 113.036 7.45906C111.145 9.74913 109.306 12.0883 107.422 14.3914C107.422 16.9171 107.422 19.4427 107.422 21.9683C107.533 23.2769 106.067 24.3893 104.84 23.8854C104.451 23.7546 104.115 23.4998 103.884 23.1601C103.653 22.8205 103.54 22.4145 103.561 22.0043C103.561 19.4885 103.561 16.9694 103.561 14.4536C101.696 12.1046 99.7825 9.81456 97.9407 7.42307C97.908 12.2748 97.9407 17.1264 97.9407 21.9781C97.9521 22.2272 97.9138 22.476 97.828 22.7101C97.7422 22.9442 97.6106 23.1589 97.441 23.3416C97.2714 23.5243 97.0671 23.6714 96.84 23.7743C96.6129 23.8773 96.3676 23.9339 96.1184 23.9411C94.463 23.9607 92.8076 23.964 91.1555 23.9411C90.9046 23.9352 90.6575 23.8782 90.4294 23.7734C90.2013 23.6686 89.9971 23.5183 89.8292 23.3317C89.6613 23.1451 89.5333 22.9262 89.4531 22.6884C89.3729 22.4506 89.3421 22.1988 89.3627 21.9487C89.3627 15.29 89.3627 8.63136 89.3627 1.97269L89.3496 1.97596ZM126.661 0.27476C127.103 -0.00659182 127.643 0.022852 128.147 0.00976589C134.908 0.00976589 141.676 0.00976589 148.45 0.00976589C149.549 -0.121096 150.675 0.837465 150.531 1.97269C150.531 8.63136 150.531 15.2889 150.531 21.9454C150.678 23.0905 149.549 24.0948 148.44 23.9607C141.544 23.9607 134.648 23.9607 127.754 23.9607C127.495 23.9665 127.237 23.9197 126.996 23.8231C126.755 23.7265 126.537 23.5821 126.353 23.3987C126.17 23.2153 126.025 22.9965 125.929 22.7558C125.832 22.515 125.785 22.2571 125.791 21.9978C125.768 15.4383 125.791 8.8789 125.791 2.31947C125.752 1.55393 125.994 0.70006 126.671 0.268217L126.661 0.27476ZM134.461 4.9367C134.5 9.91925 134.402 14.9051 134.507 19.8844L134.667 20.0414C136.986 20.1428 139.319 20.1068 141.639 20.061C141.72 19.9727 141.881 19.7895 141.966 19.6979C142.038 15.3304 141.966 10.9596 141.998 6.58883C141.998 5.68261 142.084 4.75349 141.792 3.87999C139.519 3.9029 137.245 3.85382 134.971 3.89635C134.317 3.76222 134.503 4.57356 134.464 4.9367H134.461ZM154.744 1.99232C154.724 1.74013 154.756 1.48643 154.839 1.2475C154.923 1.00857 155.055 0.789669 155.228 0.604849C155.401 0.42003 155.61 0.273367 155.843 0.174269C156.076 0.0751709 156.327 0.0258246 156.58 0.0293951C158.242 0.0293951 159.907 0.00322281 161.572 0.0293951C162.272 -0.0229495 162.776 0.507039 163.175 1.01086C166.054 4.57683 168.91 8.15916 171.815 11.7055C171.815 8.48305 171.815 5.25731 171.815 2.03812C171.791 1.78722 171.819 1.53411 171.897 1.29443C171.975 1.05476 172.101 0.833627 172.268 0.644721C172.435 0.455815 172.639 0.303156 172.867 0.19619C173.095 0.0892242 173.343 0.0302279 173.595 0.022852C175.254 -4.87217e-05 176.912 0.00322282 178.571 0.022852C179.03 0.0139589 179.474 0.185536 179.807 0.500648C180.141 0.815761 180.337 1.24921 180.354 1.70769C180.37 8.46015 180.354 15.2126 180.354 21.965C180.375 22.2176 180.343 22.4718 180.261 22.7116C180.179 22.9514 180.048 23.1717 179.877 23.3587C179.706 23.5457 179.499 23.6954 179.267 23.7984C179.035 23.9014 178.785 23.9556 178.532 23.9574C176.876 23.9803 175.221 23.9574 173.566 23.9574C173.114 23.9349 172.687 23.7488 172.363 23.4339C172.039 23.119 171.841 22.6968 171.805 22.2464C171.747 20.8102 171.805 19.3707 171.805 17.9345C168.985 14.4372 166.149 10.9531 163.345 7.4427C163.345 12.2617 163.345 17.0872 163.345 21.9062C163.375 22.4152 163.203 22.9154 162.866 23.2982C162.529 23.6811 162.055 23.9156 161.546 23.9509C159.91 23.9738 158.248 23.9705 156.603 23.9509C156.35 23.9503 156.099 23.8984 155.867 23.7982C155.635 23.6981 155.425 23.5518 155.251 23.3683C155.077 23.1847 154.942 22.9677 154.855 22.7305C154.767 22.4932 154.728 22.2406 154.741 21.988C154.728 15.3249 154.728 8.65971 154.741 1.99232H154.744ZM184.6 0.0293951C191.091 0.022852 197.602 -4.87217e-05 204.118 0.0326666C205.813 0.117727 206.831 1.61609 207.959 2.6728C208.417 3.08139 208.778 3.58725 209.015 4.15331C209.252 4.71937 209.36 5.33132 209.33 5.94433C209.33 9.97487 209.33 14.0087 209.33 18.049C209.358 18.6229 209.264 19.1961 209.055 19.7312C208.846 20.2663 208.526 20.7511 208.116 21.1537C206.938 22.2628 205.901 23.8233 204.141 23.964C197.618 24.0196 191.091 23.964 184.568 23.9869C184.581 15.9999 184.581 8.01631 184.568 0.0359382L184.6 0.0293951ZM193.231 4.25295C193.156 9.17661 193.231 14.1035 193.198 19.0272C193.198 19.4754 193.172 20.2737 193.872 20.1003C196.123 20.1199 198.372 20.1199 200.621 20.1003C200.801 17.6793 200.664 15.2486 200.706 12.8276C200.66 9.85709 200.808 6.88327 200.624 3.91925C198.239 3.91925 195.851 3.85709 193.47 3.93888L193.231 4.26604V4.25295Z" fill="black"/>
</svg>
