<svg width="132" height="26" viewBox="0 0 132 26" fill="none" xmlns="http://www.w3.org/2000/svg">
<g clip-path="url(#clip0_759_374)">
<path fill-rule="evenodd" clip-rule="evenodd" d="M48.9529 13.0349C48.9529 20.7865 43.9348 26 36.4793 26C28.8838 26 23.7969 20.8208 23.7969 13.0005C23.7969 5.1448 28.8483 0 36.5492 0C43.9703 0 48.9529 5.24793 48.9529 13.0349ZM31.5312 12.8953C31.5312 17.3091 33.3434 19.8471 36.4793 19.8471C39.5797 19.8471 41.252 17.3799 41.252 12.686C41.252 8.54938 39.4753 6.08113 36.4438 6.08113C33.3778 6.08113 31.5312 8.65453 31.5312 12.8943V12.8953Z" fill="black"/>
<path fill-rule="evenodd" clip-rule="evenodd" d="M10.8013 0.6604C16.2369 0.6604 21.637 2.22466 21.637 9.4575C21.637 15.1584 17.6305 17.7652 12.2993 17.7652H7.56099V25.4126H0V0.6604H10.8013ZM7.55795 11.9925H11.2158C13.0625 11.9925 14.3527 11.402 14.3527 9.38571C14.3527 7.61315 13.3067 6.74356 11.0769 6.74356H7.55795V11.9925Z" fill="black"/>
<path d="M74.2489 25.4096V0.6604H54.6359V11.2948C54.6359 15.3273 54.5315 19.8118 51.9531 19.8118C51.4291 19.8145 50.9132 19.6825 50.4551 19.4286V25.3034C51.419 25.6862 52.4492 25.8756 53.4866 25.8606C62.135 25.8606 62.1304 15.8885 62.1271 8.88065L62.127 7.02162H66.6879V25.4096H74.2489Z" fill="black"/>
<path fill-rule="evenodd" clip-rule="evenodd" d="M85.4372 8.34119H89.6526C96.4118 8.34119 99.4443 11.5041 99.4443 16.6833C99.4443 22.0364 95.9983 25.3732 89.2005 25.3732H77.8418V0.625H85.4372V8.34119ZM85.4372 19.464H88.9248C90.5617 19.464 92.0607 18.9078 92.0607 16.752C92.0607 14.6286 90.7715 13.9713 88.9603 13.9713H85.4413L85.4372 19.464Z" fill="black"/>
<path fill-rule="evenodd" clip-rule="evenodd" d="M120.348 25.4105V23.007C127.627 23.007 131.599 18.6954 131.599 12.8559C131.599 7.53822 127.561 3.12349 120.348 3.12349V0.65625H112.892V3.12349C104.739 3.12349 101.533 8.30771 101.533 12.9318C101.533 18.7358 105.888 23.012 112.892 23.012V25.4105H120.348ZM109.129 12.9287C109.129 11.0864 110.035 8.47961 113.066 8.47961V17.6215C110.069 17.6215 109.129 15.1179 109.129 12.9287ZM120.174 17.5861V8.47961C123.275 8.47961 124.006 11.2603 124.006 12.9287C124.006 14.6315 123.417 17.5861 120.174 17.5861Z" fill="black"/>
</g>
<defs>
<clipPath id="clip0_759_374">
<rect width="131.603" height="26" fill="white"/>
</clipPath>
</defs>
</svg>
