<svg width="164" height="40" viewBox="0 0 164 40" fill="none" xmlns="http://www.w3.org/2000/svg">
<path d="M24.3225 5.62867L20.0074 15.4379V15.4476L15.6924 5.62867C18.5071 4.78398 21.5078 4.78398 24.3225 5.62867Z" fill="black"/>
<path d="M30.6997 9.44961C31.2356 9.98395 31.7265 10.5616 32.1674 11.1766L25.1958 27.2309L22.3338 20.7314H17.686L14.8289 27.2309L7.84991 11.1864C8.29089 10.5714 8.78179 9.99378 9.31762 9.4594C10.2327 8.52625 11.2695 7.72072 12.3998 7.06458L17.6126 19.2001H22.4023L27.6175 7.06458C28.7469 7.72207 29.7835 8.52746 30.6997 9.4594V9.44961Z" fill="black"/>
<path d="M9.31762 30.5602C10.5778 31.8197 12.0427 32.8561 13.6498 33.6252L5.70705 15.4134C5.22304 16.8973 4.97942 18.449 4.98542 20.0098C4.98189 23.9602 6.53893 27.7522 9.31762 30.5602Z" fill="black"/>
<path d="M34.3103 15.4134L30.6997 23.6815V23.6913L26.3773 33.6252C27.9852 32.8562 29.4509 31.8197 30.7119 30.5602C33.4895 27.7514 35.0463 23.96 35.0441 20.0098C35.045 18.4484 34.7972 16.8969 34.3103 15.4134Z" fill="black"/>
<path d="M20.0074 24.8434L24.2002 34.408C21.463 35.207 18.5544 35.207 15.8171 34.408L20.0074 24.8434Z" fill="black"/>
<path fill-rule="evenodd" clip-rule="evenodd" d="M31.1177 36.6251C27.8295 38.8241 23.9631 39.9985 20.0073 40C17.3806 40.0029 14.779 39.4879 12.3514 38.4846C9.9238 37.4812 7.71782 36.0091 5.85962 34.1525C4.00141 32.2959 2.52744 30.0912 1.52199 27.6644C0.516547 25.2377 -0.000642229 22.6366 2.39397e-06 20.0098C-0.00193263 16.0541 1.16922 12.1866 3.36534 8.89648C5.56147 5.60637 8.68393 3.0414 12.3379 1.52593C15.9918 0.0104622 20.013 -0.387429 23.8931 0.382575C27.7732 1.15258 31.3377 3.05589 34.1361 5.85182C36.9344 8.64774 38.8407 12.2107 39.6141 16.0901C40.3874 19.9695 39.993 23.9911 38.4806 27.6463C36.9683 31.3015 34.406 34.4262 31.1177 36.6251ZM30.6997 34.4007C34.1158 31.8602 36.5156 28.1863 37.4692 24.0372C38.4227 19.8882 37.8676 15.5352 35.9034 11.7582C33.9391 7.98124 30.6941 5.02715 26.7498 3.42528C22.8054 1.8234 18.4195 1.67844 14.378 3.01636C10.3365 4.35428 6.90353 7.08765 4.69417 10.7267C2.4848 14.3657 1.64349 18.6726 2.32096 22.8755C2.99843 27.0785 5.15043 30.9028 8.39133 33.6633C11.6322 36.4238 15.7502 37.94 20.0074 37.9403C23.8595 37.9416 27.6093 36.7002 30.6997 34.4007Z" fill="black"/>
<path d="M53.2112 17.1562H58.0083V21.9365H60.3398V10.5308H58.0083V15.2105H53.2112V10.5308H50.8797V21.9365H53.2112V17.1562Z" fill="black"/>
<path fill-rule="evenodd" clip-rule="evenodd" d="M64.7793 19.3199C64.6786 19.0963 64.6171 18.8391 64.5948 18.5483H69.9957C70.0181 18.403 70.0405 18.1905 70.0628 17.911C70.0964 17.6202 70.1131 17.3463 70.1131 17.0891C70.1131 16.6194 70.0405 16.1721 69.8951 15.7472C69.7497 15.3223 69.5205 14.9533 69.2074 14.6402C68.8943 14.3159 68.4973 14.0643 68.0165 13.8854C67.5468 13.6953 66.9877 13.6002 66.3392 13.6002C65.6794 13.6002 65.098 13.7177 64.5948 13.9525C64.0916 14.1761 63.6666 14.4836 63.32 14.875C62.9845 15.2664 62.7273 15.7248 62.5484 16.2504C62.3807 16.7648 62.2968 17.3071 62.2968 17.8774C62.2968 18.4701 62.3807 19.0292 62.5484 19.5547C62.7273 20.0803 62.9845 20.5387 63.32 20.9301C63.6666 21.3215 64.0972 21.629 64.6115 21.8526C65.1371 22.0763 65.7521 22.1881 66.4566 22.1881C67.1051 22.1881 67.709 22.121 68.2681 21.9868C68.8384 21.8526 69.3248 21.6905 69.7273 21.5004L69.2074 19.8734C68.816 20.0188 68.4023 20.1418 67.9662 20.2424C67.5412 20.3319 67.094 20.3766 66.6243 20.3766C66.3224 20.3766 66.0484 20.3375 65.8024 20.2592C65.5676 20.1697 65.3607 20.0467 65.1818 19.8902C65.0141 19.7336 64.8799 19.5435 64.7793 19.3199ZM68.05 17.022C68.05 17.0555 68.0444 17.0947 68.0333 17.1394H64.5948C64.6059 16.8934 64.6507 16.6586 64.729 16.4349C64.8072 16.2113 64.919 16.01 65.0644 15.8311C65.2098 15.6522 65.3887 15.5124 65.6012 15.4118C65.8136 15.2999 66.0652 15.244 66.3559 15.244C66.669 15.244 66.9318 15.2887 67.1443 15.3782C67.3679 15.4565 67.5468 15.5739 67.681 15.7304C67.8152 15.8758 67.9103 16.0491 67.9662 16.2504C68.0221 16.4517 68.05 16.6641 68.05 16.8878V17.022Z" fill="black"/>
<path fill-rule="evenodd" clip-rule="evenodd" d="M75.7164 13.8518C76.611 13.8518 77.321 14.0252 77.8466 14.3718C78.3833 14.7185 78.6517 15.272 78.6517 16.0324C78.6517 16.5244 78.5399 16.9046 78.3163 17.1729C78.0926 17.4413 77.8298 17.6482 77.5279 17.7935V17.8103C77.9417 17.9333 78.2939 18.1458 78.5846 18.4477C78.8754 18.7496 79.0207 19.1522 79.0207 19.6554C79.0207 20.4493 78.7524 21.0308 78.2156 21.3998C77.6789 21.7576 76.9017 21.9365 75.8841 21.9365H71.7579V13.8518H75.7164ZM73.9552 20.3263H75.5822C76.0631 20.3263 76.3818 20.2424 76.5383 20.0747C76.706 19.8958 76.7899 19.6833 76.7899 19.4373C76.7899 19.1913 76.706 18.9788 76.5383 18.7999C76.3818 18.621 76.0631 18.5316 75.5822 18.5316H73.9552V20.3263ZM73.9552 17.1058H75.2132C75.4704 17.1058 75.6773 17.0835 75.8338 17.0387C75.9904 16.994 76.1134 16.9325 76.2028 16.8542C76.2923 16.776 76.3482 16.6865 76.3706 16.5859C76.4041 16.4852 76.4209 16.379 76.4209 16.2672C76.4209 16.1554 76.4041 16.0491 76.3706 15.9485C76.3482 15.8479 76.2923 15.7584 76.2028 15.6801C76.1246 15.6018 76.0016 15.5403 75.8338 15.4956C75.6773 15.4397 75.4704 15.4118 75.2132 15.4118H73.9552V17.1058Z" fill="black"/>
<path fill-rule="evenodd" clip-rule="evenodd" d="M87.5441 20.4269C87.5217 20.3822 87.5106 20.2983 87.5106 20.1753V16.871C87.5106 15.8199 87.2254 15.0148 86.6551 14.4557C86.0848 13.8854 85.2126 13.6002 84.0385 13.6002C83.4011 13.6002 82.7917 13.6729 82.2103 13.8183C81.6288 13.9637 81.1256 14.1314 80.7007 14.3215L81.2374 16.0491C81.6288 15.8702 82.0593 15.7304 82.5289 15.6298C83.0098 15.518 83.4738 15.4621 83.9211 15.4621C84.0441 15.4621 84.1839 15.4788 84.3404 15.5124C84.497 15.5348 84.6479 15.5851 84.7933 15.6633C84.9387 15.7416 85.0561 15.859 85.1456 16.0156C85.2462 16.1721 85.2965 16.3734 85.2965 16.6194V16.9884H84.2063C83.4906 16.9884 82.8812 17.0443 82.378 17.1562C81.8748 17.2568 81.461 17.4189 81.1368 17.6426C80.8237 17.855 80.5888 18.129 80.4323 18.4645C80.2869 18.7999 80.2142 19.1913 80.2142 19.6386C80.2142 20.3766 80.4435 20.986 80.9019 21.4669C81.3604 21.9477 82.0425 22.1881 82.9483 22.1881C83.1943 22.1881 83.4403 22.1546 83.6863 22.0875C83.9435 22.0316 84.1839 21.9533 84.4075 21.8526C84.6424 21.752 84.8548 21.6458 85.0449 21.534C85.2462 21.4109 85.4139 21.2935 85.5481 21.1817H85.5816C85.727 21.4948 85.9227 21.7352 86.1687 21.903C86.4147 22.0595 86.7558 22.1378 87.1919 22.1378C87.4379 22.1378 87.6503 22.1266 87.8293 22.1042C88.0082 22.0819 88.1871 22.0539 88.366 22.0204V20.4772H87.7789C87.6559 20.4772 87.5777 20.4605 87.5441 20.4269ZM82.8476 18.7161C83.1607 18.5371 83.6919 18.4477 84.4411 18.4477H85.2965V19.8566C85.0617 20.0244 84.7654 20.1586 84.4075 20.2592C84.0609 20.3598 83.7422 20.4102 83.4515 20.4102C82.7358 20.4102 82.378 20.0859 82.378 19.4373C82.378 19.1354 82.5345 18.895 82.8476 18.7161Z" fill="black"/>
<path d="M89.8247 18.2464V16.5188H94.6889V18.2464H89.8247Z" fill="black"/>
<path fill-rule="evenodd" clip-rule="evenodd" d="M104.318 21.9365H106.884L102.691 10.5308H99.9735L95.7803 21.9365H98.3298L99.1013 19.5883H103.563L104.318 21.9365ZM99.7387 17.7097L101.299 12.9125H101.349L102.909 17.7097H99.7387Z" fill="black"/>
<path fill-rule="evenodd" clip-rule="evenodd" d="M111.949 13.8518C112.844 13.8518 113.554 14.0252 114.079 14.3718C114.616 14.7185 114.884 15.272 114.884 16.0324C114.884 16.5244 114.773 16.9046 114.549 17.1729C114.325 17.4413 114.062 17.6482 113.761 17.7935V17.8103C114.174 17.9333 114.527 18.1458 114.817 18.4477C115.108 18.7496 115.253 19.1522 115.253 19.6554C115.253 20.4493 114.985 21.0308 114.448 21.3998C113.912 21.7576 113.134 21.9365 112.117 21.9365H107.991V13.8518H111.949ZM110.188 20.3263H111.815C112.296 20.3263 112.614 20.2424 112.771 20.0747C112.939 19.8958 113.023 19.6833 113.023 19.4373C113.023 19.1913 112.939 18.9788 112.771 18.7999C112.614 18.621 112.296 18.5316 111.815 18.5316H110.188V20.3263ZM110.188 17.1058H111.446C111.703 17.1058 111.91 17.0835 112.066 17.0387C112.223 16.994 112.346 16.9325 112.435 16.8542C112.525 16.776 112.581 16.6865 112.603 16.5859C112.637 16.4852 112.654 16.379 112.654 16.2672C112.654 16.1554 112.637 16.0491 112.603 15.9485C112.581 15.8479 112.525 15.7584 112.435 15.6801C112.357 15.6018 112.234 15.5403 112.066 15.4956C111.91 15.4397 111.703 15.4118 111.446 15.4118H110.188V17.1058Z" fill="black"/>
<path d="M123.274 15.5795V13.8518H116.246V15.5795H118.644V21.9365H120.841V15.5795H123.274Z" fill="black"/>
<path fill-rule="evenodd" clip-rule="evenodd" d="M132.767 17.8942C132.767 18.4868 132.677 19.0459 132.499 19.5715C132.32 20.0859 132.046 20.5387 131.677 20.9301C131.319 21.3103 130.872 21.6178 130.335 21.8526C129.809 22.0763 129.194 22.1881 128.49 22.1881C127.796 22.1881 127.181 22.0763 126.645 21.8526C126.119 21.6178 125.677 21.3103 125.32 20.9301C124.962 20.5387 124.688 20.0859 124.498 19.5715C124.319 19.0459 124.229 18.4868 124.229 17.8942C124.229 17.3127 124.319 16.7592 124.498 16.2336C124.688 15.7081 124.962 15.2552 125.32 14.875C125.677 14.4836 126.119 14.1761 126.645 13.9525C127.181 13.7177 127.796 13.6002 128.49 13.6002C129.194 13.6002 129.809 13.7177 130.335 13.9525C130.872 14.1761 131.319 14.4836 131.677 14.875C132.046 15.2552 132.32 15.7081 132.499 16.2336C132.677 16.7592 132.767 17.3127 132.767 17.8942ZM126.544 17.8942C126.544 18.2967 126.589 18.6546 126.678 18.9677C126.779 19.2696 126.913 19.5212 127.081 19.7225C127.249 19.9237 127.45 20.0747 127.685 20.1753C127.931 20.276 128.199 20.3263 128.49 20.3263C128.792 20.3263 129.06 20.276 129.295 20.1753C129.541 20.0747 129.748 19.9237 129.915 19.7225C130.083 19.5212 130.212 19.2696 130.301 18.9677C130.402 18.6546 130.452 18.2967 130.452 17.8942C130.452 17.4916 130.402 17.1394 130.301 16.8375C130.212 16.5244 130.083 16.2672 129.915 16.0659C129.748 15.8646 129.541 15.7137 129.295 15.613C129.06 15.5124 128.792 15.4621 128.49 15.4621C128.199 15.4621 127.931 15.5124 127.685 15.613C127.45 15.7137 127.249 15.8646 127.081 16.0659C126.913 16.2672 126.779 16.5244 126.678 16.8375C126.589 17.1394 126.544 17.4916 126.544 17.8942Z" fill="black"/>
<path d="M136.675 21.9365V18.3974H136.709L139.661 21.9365H142.16V21.8191L138.856 17.9445L142.009 13.9693V13.8518H139.577L136.709 17.7097H136.675V13.8518H134.444V21.9365H136.675Z" fill="black"/>
<path fill-rule="evenodd" clip-rule="evenodd" d="M151.506 17.8942C151.506 18.4868 151.416 19.0459 151.237 19.5715C151.058 20.0859 150.784 20.5387 150.415 20.9301C150.058 21.3103 149.61 21.6178 149.074 21.8526C148.548 22.0763 147.933 22.1881 147.229 22.1881C146.535 22.1881 145.92 22.0763 145.383 21.8526C144.858 21.6178 144.416 21.3103 144.058 20.9301C143.701 20.5387 143.427 20.0859 143.237 19.5715C143.058 19.0459 142.968 18.4868 142.968 17.8942C142.968 17.3127 143.058 16.7592 143.237 16.2336C143.427 15.7081 143.701 15.2552 144.058 14.875C144.416 14.4836 144.858 14.1761 145.383 13.9525C145.92 13.7177 146.535 13.6002 147.229 13.6002C147.933 13.6002 148.548 13.7177 149.074 13.9525C149.61 14.1761 150.058 14.4836 150.415 14.875C150.784 15.2552 151.058 15.7081 151.237 16.2336C151.416 16.7592 151.506 17.3127 151.506 17.8942ZM145.283 17.8942C145.283 18.2967 145.328 18.6546 145.417 18.9677C145.518 19.2696 145.652 19.5212 145.82 19.7225C145.987 19.9237 146.189 20.0747 146.423 20.1753C146.669 20.276 146.938 20.3263 147.229 20.3263C147.53 20.3263 147.799 20.276 148.034 20.1753C148.28 20.0747 148.486 19.9237 148.654 19.7225C148.822 19.5212 148.951 19.2696 149.04 18.9677C149.141 18.6546 149.191 18.2967 149.191 17.8942C149.191 17.4916 149.141 17.1394 149.04 16.8375C148.951 16.5244 148.822 16.2672 148.654 16.0659C148.486 15.8646 148.28 15.7137 148.034 15.613C147.799 15.5124 147.53 15.4621 147.229 15.4621C146.938 15.4621 146.669 15.5124 146.423 15.613C146.189 15.7137 145.987 15.8646 145.82 16.0659C145.652 16.2672 145.518 16.5244 145.417 16.8375C145.328 17.1394 145.283 17.4916 145.283 17.8942Z" fill="black"/>
<path d="M160.412 13.8518L157.88 18.0619H157.846L155.313 13.8518H153.183V21.9365H155.38V17.3071H155.414L156.957 20.0076H158.752L160.312 17.3071H160.345V21.9365H162.543V13.8518H160.412Z" fill="black"/>
<path fill-rule="evenodd" clip-rule="evenodd" d="M55.0954 26.7878C55.0954 27.1749 55.0541 27.5362 54.9715 27.8716C54.8941 28.2071 54.7703 28.4987 54.6 28.7464C54.4296 28.9941 54.2077 29.1877 53.9342 29.327C53.6658 29.4664 53.3407 29.536 52.9588 29.536C52.5769 29.536 52.2491 29.4664 51.9756 29.327C51.7021 29.1877 51.4776 28.9941 51.3021 28.7464C51.1318 28.4987 51.0053 28.2071 50.9228 27.8716C50.8453 27.5362 50.8066 27.1749 50.8066 26.7878C50.8066 26.4007 50.8453 26.0395 50.9228 25.704C51.0053 25.3686 51.1318 25.077 51.3021 24.8292C51.4776 24.5815 51.7021 24.388 51.9756 24.2486C52.2491 24.1093 52.5769 24.0396 52.9588 24.0396C53.3407 24.0396 53.6658 24.1093 53.9342 24.2486C54.2077 24.388 54.4296 24.5815 54.6 24.8292C54.7703 25.077 54.8941 25.3686 54.9715 25.704C55.0541 26.0395 55.0954 26.4007 55.0954 26.7878ZM51.4801 26.7878C51.4801 27.0872 51.5034 27.3684 51.5498 27.6316C51.6014 27.8897 51.684 28.1168 51.7975 28.3129C51.9111 28.509 52.0608 28.6638 52.2466 28.7774C52.4375 28.8909 52.6749 28.9477 52.9588 28.9477C53.2426 28.9477 53.4774 28.8909 53.6632 28.7774C53.849 28.6638 53.9987 28.509 54.1122 28.3129C54.2258 28.1168 54.3058 27.8897 54.3522 27.6316C54.3987 27.3684 54.4219 27.0872 54.4219 26.7878C54.4219 26.4885 54.3987 26.2098 54.3522 25.9517C54.3058 25.6885 54.2258 25.4589 54.1122 25.2628C53.9987 25.0666 53.849 24.9118 53.6632 24.7983C53.4774 24.6847 53.2426 24.628 52.9588 24.628C52.6749 24.628 52.4375 24.6847 52.2466 24.7983C52.0608 24.9118 51.9111 25.0666 51.7975 25.2628C51.684 25.4589 51.6014 25.6885 51.5498 25.9517C51.5034 26.2098 51.4801 26.4885 51.4801 26.7878Z" fill="black"/>
<path fill-rule="evenodd" clip-rule="evenodd" d="M59.3972 25.6498C59.2527 25.6963 59.1211 25.7634 59.0024 25.8511H58.9869V24.0009H58.3521V25.8511H58.3367C58.218 25.7634 58.0838 25.6963 57.9341 25.6498C57.7844 25.5982 57.5961 25.5724 57.369 25.5724C57.1264 25.5724 56.92 25.6266 56.7497 25.735C56.5793 25.8382 56.44 25.9801 56.3316 26.1608C56.2232 26.3362 56.1432 26.5453 56.0916 26.7878C56.04 27.0304 56.0142 27.2859 56.0142 27.5542C56.0142 27.8278 56.04 28.0858 56.0916 28.3284C56.1432 28.5658 56.2232 28.7748 56.3316 28.9554C56.44 29.1309 56.5793 29.2728 56.7497 29.3812C56.92 29.4844 57.1264 29.536 57.369 29.536C57.627 29.536 57.8231 29.5128 57.9573 29.4664C58.0915 29.4199 58.218 29.3477 58.3367 29.2496H58.3521V30.9527H58.9869V29.2496H59.0024C59.1211 29.3477 59.2476 29.4199 59.3818 29.4664C59.5159 29.5128 59.7121 29.536 59.9701 29.536C60.2127 29.536 60.4191 29.4844 60.5894 29.3812C60.7597 29.2728 60.8991 29.1309 61.0075 28.9554C61.1158 28.7748 61.1958 28.5658 61.2474 28.3284C61.2991 28.0858 61.3249 27.8278 61.3249 27.5542C61.3249 27.2859 61.2991 27.0304 61.2474 26.7878C61.1958 26.5453 61.1158 26.3362 61.0075 26.1608C60.8991 25.9801 60.7597 25.8382 60.5894 25.735C60.4191 25.6266 60.2127 25.5724 59.9701 25.5724C59.7379 25.5724 59.5469 25.5982 59.3972 25.6498ZM59.3508 28.9245C59.2166 28.878 59.0953 28.8109 58.9869 28.7232V26.3853C59.0953 26.2975 59.2166 26.2304 59.3508 26.184C59.485 26.1375 59.6372 26.1143 59.8075 26.1143C59.9779 26.1143 60.1172 26.1556 60.2256 26.2382C60.3391 26.3156 60.4294 26.4214 60.4965 26.5556C60.5636 26.6846 60.6101 26.8369 60.6359 27.0123C60.6617 27.1878 60.6746 27.3684 60.6746 27.5542C60.6746 27.74 60.6617 27.9207 60.6359 28.0961C60.6101 28.2716 60.5636 28.4264 60.4965 28.5606C60.4294 28.6896 60.3391 28.7954 60.2256 28.878C60.1172 28.9554 59.9779 28.9941 59.8075 28.9941C59.6372 28.9941 59.485 28.9709 59.3508 28.9245ZM57.5393 26.1143C57.8593 26.1143 58.1302 26.2046 58.3521 26.3853V28.7232C58.1302 28.9038 57.8593 28.9941 57.5393 28.9941C57.369 28.9941 57.2271 28.9554 57.1135 28.878C57 28.7954 56.9097 28.6896 56.8426 28.5606C56.7755 28.4264 56.729 28.2716 56.7032 28.0961C56.6774 27.9207 56.6645 27.74 56.6645 27.5542C56.6645 27.3684 56.6774 27.1878 56.7032 27.0123C56.729 26.8369 56.7755 26.6846 56.8426 26.5556C56.9097 26.4214 57 26.3156 57.1135 26.2382C57.2271 26.1556 57.369 26.1143 57.5393 26.1143Z" fill="black"/>
<path d="M62.9881 28.5916L63.3055 27.9568L64.6216 25.6885H65.3338V29.4199H64.7067V27.3375L64.7454 26.5169H64.73L64.3042 27.3375L63.0965 29.4199H62.3843V25.6885H63.0114V27.9568L62.9726 28.5916H62.9881Z" fill="black"/>
<path d="M69.2507 29.4199L69.3049 30.3489H69.7539L69.8546 28.9012H69.4752V25.6885H68.8482V28.9012H67.2147V25.6885H66.5877V29.4199H69.2507Z" fill="black"/>
<path d="M71.4629 28.5916L71.7803 27.9568L73.0964 25.6885H73.8086V29.4199H73.1815V27.3375L73.2202 26.5169H73.2047L72.779 27.3375L71.5713 29.4199H70.8591V25.6885H71.4861V27.9568L71.4474 28.5916H71.4629Z" fill="black"/>
<path fill-rule="evenodd" clip-rule="evenodd" d="M77.1372 29.0793L77.1991 29.4199H77.6636V27.0123C77.6636 26.5685 77.5474 26.2175 77.3152 25.9595C77.083 25.7014 76.7294 25.5724 76.2546 25.5724C75.9914 25.5724 75.7514 25.6111 75.5347 25.6885C75.3231 25.7659 75.1373 25.8666 74.9773 25.9905L75.2405 26.4317C75.3747 26.3285 75.5295 26.2511 75.705 26.1995C75.8805 26.1427 76.0559 26.1143 76.2314 26.1143C76.3708 26.1143 76.4895 26.1375 76.5875 26.184C76.6907 26.2253 76.7733 26.2872 76.8352 26.3698C76.9023 26.4472 76.9514 26.5401 76.9823 26.6485C77.0133 26.7569 77.0288 26.873 77.0288 26.9968V27.2368H76.2701C76.0895 27.2368 75.9114 27.2549 75.7359 27.291C75.5605 27.322 75.4031 27.3813 75.2637 27.4691C75.1244 27.5516 75.0108 27.6703 74.9231 27.8252C74.8405 27.9748 74.7992 28.1684 74.7992 28.4058C74.7992 28.7671 74.8999 29.0457 75.1012 29.2419C75.3076 29.438 75.5811 29.536 75.9217 29.536C76.1591 29.536 76.3785 29.4922 76.5798 29.4044C76.781 29.3167 76.9617 29.2083 77.1217 29.0793H77.1372ZM75.6818 27.8639C75.8366 27.7452 76.0508 27.6858 76.3243 27.6858H77.0288V28.6767C76.8688 28.8109 76.7088 28.8987 76.5488 28.9399C76.394 28.9761 76.2314 28.9941 76.0611 28.9941C75.8495 28.9941 75.6947 28.9425 75.5966 28.8393C75.4985 28.7309 75.4495 28.5864 75.4495 28.4058C75.4495 28.1581 75.5269 27.9774 75.6818 27.8639Z" fill="black"/>
<path d="M81.1328 26.2072H79.8013L79.7316 27.4458C79.7058 27.8949 79.6645 28.2535 79.6078 28.5219C79.551 28.7903 79.471 28.9941 79.3678 29.1335C79.2697 29.2728 79.1459 29.3657 78.9962 29.4122C78.8465 29.4535 78.6711 29.4741 78.4698 29.4741V28.9477C78.5678 28.9477 78.6556 28.9322 78.733 28.9012C78.8104 28.8651 78.8775 28.7954 78.9343 28.6922C78.991 28.5838 79.0349 28.429 79.0659 28.2277C79.102 28.0265 79.1278 27.7555 79.1433 27.4149L79.2207 25.6885H81.7599V29.4199H81.1328V26.2072Z" fill="black"/>
<path fill-rule="evenodd" clip-rule="evenodd" d="M83.6426 27.1362V25.6885H83.0156V29.4199H84.4478C84.8555 29.4199 85.1651 29.3244 85.3767 29.1335C85.5935 28.9374 85.7019 28.6535 85.7019 28.2819C85.7019 27.9052 85.5935 27.6213 85.3767 27.4304C85.1651 27.2342 84.8555 27.1362 84.4478 27.1362H83.6426ZM84.4013 28.9012H83.6426V27.6549H84.4013C84.5097 27.6549 84.6026 27.6703 84.68 27.7013C84.7626 27.7323 84.8297 27.7761 84.8813 27.8329C84.938 27.8845 84.9793 27.949 85.0051 28.0265C85.0361 28.1039 85.0516 28.189 85.0516 28.2819C85.0516 28.3748 85.0361 28.46 85.0051 28.5374C84.9793 28.6148 84.938 28.6819 84.8813 28.7387C84.8297 28.7903 84.7626 28.8316 84.68 28.8625C84.6026 28.8883 84.5097 28.9012 84.4013 28.9012Z" fill="black"/>
<path d="M88.9893 27.7942H87.3017V29.4199H86.6746V25.6885H87.3017V27.2523H88.9893V25.6885H89.6164V29.4199H88.9893V27.7942Z" fill="black"/>
<path fill-rule="evenodd" clip-rule="evenodd" d="M91.4975 27.1362V25.6885H90.8704V29.4199H92.3026C92.7103 29.4199 93.02 29.3244 93.2316 29.1335C93.4483 28.9374 93.5567 28.6535 93.5567 28.2819C93.5567 27.9052 93.4483 27.6213 93.2316 27.4304C93.02 27.2342 92.7103 27.1362 92.3026 27.1362H91.4975ZM92.2562 28.9012H91.4975V27.6549H92.2562C92.3645 27.6549 92.4574 27.6703 92.5349 27.7013C92.6174 27.7323 92.6845 27.7761 92.7361 27.8329C92.7929 27.8845 92.8342 27.949 92.86 28.0265C92.891 28.1039 92.9064 28.189 92.9064 28.2819C92.9064 28.3748 92.891 28.46 92.86 28.5374C92.8342 28.6148 92.7929 28.6819 92.7361 28.7387C92.6845 28.7903 92.6174 28.8316 92.5349 28.8625C92.4574 28.8883 92.3645 28.9012 92.2562 28.9012Z" fill="black"/>
<path d="M94.0909 25.6885V29.4199H94.7257V25.6885H94.0909Z" fill="black"/>
<path d="M96.5848 28.5916L96.9022 27.9568L98.2183 25.6885H98.9305V29.4199H98.3035V27.3375L98.3422 26.5169H98.3267L97.9009 27.3375L96.6932 29.4199H95.981V25.6885H96.6081V27.9568L96.5694 28.5916H96.5848Z" fill="black"/>
<path d="M97.5758 24.357C97.7719 24.357 97.9396 24.3312 98.0789 24.2796C98.2234 24.2228 98.3396 24.166 98.4273 24.1093L98.6054 24.5118C98.5486 24.5686 98.4841 24.6228 98.4118 24.6744C98.3396 24.7209 98.2596 24.7647 98.1718 24.806C98.0893 24.8473 97.9964 24.8808 97.8932 24.9066C97.7951 24.9273 97.6893 24.9376 97.5758 24.9376C97.4622 24.9376 97.3564 24.9273 97.2584 24.9066C97.1603 24.8808 97.0674 24.8473 96.9797 24.806C96.8971 24.7647 96.8197 24.7209 96.7474 24.6744C96.6752 24.6228 96.6106 24.5686 96.5539 24.5118L96.7319 24.1093C96.8197 24.166 96.9332 24.2228 97.0726 24.2796C97.2119 24.3312 97.3796 24.357 97.5758 24.357Z" fill="black"/>
<path fill-rule="evenodd" clip-rule="evenodd" d="M101.648 28.8858L101.741 30.3489H102.198L102.252 29.4199H104.613L104.675 30.3489H105.124L105.225 28.8858H104.846V25.6885H102.515L102.43 27.1981C102.42 27.3994 102.402 27.5852 102.376 27.7555C102.35 27.9207 102.317 28.0729 102.275 28.2122C102.239 28.3516 102.193 28.478 102.136 28.5916C102.085 28.7 102.023 28.798 101.95 28.8858H101.648ZM104.219 26.2072V28.8858H102.647C102.699 28.8083 102.745 28.718 102.786 28.6148C102.828 28.5064 102.861 28.3826 102.887 28.2432C102.918 28.1039 102.941 27.949 102.957 27.7787C102.977 27.6084 102.995 27.42 103.011 27.2136L103.073 26.2072H104.219Z" fill="black"/>
<path d="M106.836 28.5916L107.154 27.9568L108.47 25.6885H109.182V29.4199H108.555V27.3375L108.594 26.5169H108.578L108.152 27.3375L106.945 29.4199H106.232V25.6885H106.859V27.9568L106.821 28.5916H106.836Z" fill="black"/>
<path d="M111.349 26.2072H112.681V29.4199H113.308V25.6885H110.769L110.691 27.4149C110.676 27.7555 110.65 28.0265 110.614 28.2277C110.583 28.429 110.539 28.5838 110.482 28.6922C110.425 28.7954 110.358 28.8651 110.281 28.9012C110.204 28.9322 110.116 28.9477 110.018 28.9477V29.4741C110.219 29.4741 110.394 29.4535 110.544 29.4122C110.694 29.3657 110.818 29.2728 110.916 29.1335C111.019 28.9941 111.099 28.7903 111.156 28.5219C111.212 28.2535 111.254 27.8949 111.28 27.4458L111.349 26.2072Z" fill="black"/>
<path fill-rule="evenodd" clip-rule="evenodd" d="M114.966 27.7168C114.966 27.8871 114.992 28.0497 115.044 28.2045C115.1 28.3593 115.178 28.4961 115.276 28.6148C115.379 28.7283 115.498 28.8212 115.632 28.8935C115.771 28.9606 115.923 28.9941 116.089 28.9941C116.326 28.9941 116.525 28.9606 116.685 28.8935C116.845 28.8264 116.989 28.7464 117.118 28.6535L117.358 29.1257C117.209 29.2341 117.025 29.3296 116.809 29.4122C116.592 29.4948 116.334 29.536 116.034 29.536C115.74 29.536 115.487 29.4819 115.276 29.3735C115.064 29.2651 114.889 29.1206 114.749 28.9399C114.615 28.7593 114.515 28.5477 114.447 28.3051C114.385 28.0626 114.355 27.8071 114.355 27.5387C114.355 27.2859 114.388 27.0433 114.455 26.811C114.522 26.5736 114.623 26.3646 114.757 26.184C114.891 25.9982 115.059 25.8511 115.26 25.7427C115.462 25.6292 115.696 25.5724 115.965 25.5724C116.238 25.5724 116.471 25.6189 116.661 25.7118C116.858 25.7995 117.018 25.9182 117.141 26.0679C117.265 26.2175 117.356 26.3904 117.412 26.5865C117.469 26.7775 117.498 26.9762 117.498 27.1826C117.498 27.2755 117.492 27.371 117.482 27.4691C117.477 27.5671 117.469 27.6497 117.459 27.7168H114.966ZM116.87 27.2368C116.876 27.211 116.878 27.1826 116.878 27.1517V27.0588C116.878 26.9246 116.858 26.8007 116.816 26.6872C116.78 26.5736 116.723 26.4756 116.646 26.393C116.569 26.3053 116.473 26.2382 116.36 26.1917C116.246 26.1401 116.114 26.1143 115.965 26.1143C115.82 26.1143 115.691 26.1453 115.578 26.2072C115.464 26.264 115.366 26.344 115.283 26.4472C115.201 26.5453 115.134 26.664 115.082 26.8033C115.036 26.9375 115.007 27.082 114.997 27.2368H116.87Z" fill="black"/>
<path fill-rule="evenodd" clip-rule="evenodd" d="M119.044 26.0292L118.966 25.6885H118.517V30.9527H119.152V29.1567H119.168C119.23 29.2083 119.294 29.2573 119.361 29.3038C119.433 29.3502 119.513 29.389 119.601 29.4199C119.694 29.456 119.792 29.4844 119.895 29.5051C120.004 29.5257 120.125 29.536 120.259 29.536C120.512 29.536 120.729 29.4844 120.91 29.3812C121.09 29.2728 121.237 29.1309 121.351 28.9554C121.469 28.7748 121.555 28.5658 121.606 28.3284C121.663 28.0858 121.691 27.8278 121.691 27.5542C121.691 27.2859 121.663 27.0304 121.606 26.7878C121.555 26.5453 121.469 26.3362 121.351 26.1608C121.237 25.9801 121.09 25.8382 120.91 25.735C120.729 25.6266 120.512 25.5724 120.259 25.5724C119.991 25.5724 119.753 25.624 119.547 25.7272C119.341 25.8305 119.175 25.9311 119.052 26.0292H119.044ZM119.57 28.909C119.405 28.8522 119.266 28.7671 119.152 28.6535V26.4549C119.266 26.3414 119.405 26.2562 119.57 26.1995C119.741 26.1427 119.913 26.1143 120.089 26.1143C120.27 26.1143 120.419 26.1556 120.538 26.2382C120.662 26.3156 120.76 26.4214 120.832 26.5556C120.91 26.6846 120.964 26.8369 120.995 27.0123C121.026 27.1826 121.041 27.3633 121.041 27.5542C121.041 27.7452 121.026 27.9284 120.995 28.1039C120.964 28.2742 120.91 28.4264 120.832 28.5606C120.76 28.6896 120.662 28.7954 120.538 28.878C120.419 28.9554 120.27 28.9941 120.089 28.9941C119.913 28.9941 119.741 28.9658 119.57 28.909Z" fill="black"/>
<path d="M128.442 24.2331L126.631 29.4199H125.98L124.177 24.2331V24.1557H124.858L125.911 27.3375L126.305 28.7774H126.321L126.716 27.3297L127.753 24.1557H128.442V24.2331Z" fill="black"/>
<path fill-rule="evenodd" clip-rule="evenodd" d="M132.039 28.3284C132.106 28.0858 132.139 27.8278 132.139 27.5542C132.139 27.2859 132.106 27.0304 132.039 26.7878C131.977 26.5453 131.876 26.3362 131.737 26.1608C131.603 25.9801 131.427 25.8382 131.21 25.735C130.999 25.6266 130.741 25.5724 130.436 25.5724C130.137 25.5724 129.881 25.6266 129.67 25.735C129.458 25.8382 129.283 25.9801 129.143 26.1608C129.009 26.3362 128.911 26.5453 128.849 26.7878C128.787 27.0304 128.756 27.2859 128.756 27.5542C128.756 27.8278 128.787 28.0858 128.849 28.3284C128.911 28.5658 129.009 28.7748 129.143 28.9554C129.283 29.1309 129.458 29.2728 129.67 29.3812C129.881 29.4844 130.137 29.536 130.436 29.536C130.741 29.536 130.999 29.4844 131.21 29.3812C131.427 29.2728 131.603 29.1309 131.737 28.9554C131.876 28.7748 131.977 28.5658 132.039 28.3284ZM129.461 28.1039C129.425 27.9284 129.407 27.7452 129.407 27.5542C129.407 27.3633 129.425 27.1801 129.461 27.0046C129.497 26.8291 129.554 26.6769 129.631 26.5478C129.714 26.4137 129.82 26.3079 129.949 26.2304C130.083 26.153 130.245 26.1143 130.436 26.1143C130.627 26.1143 130.79 26.153 130.924 26.2304C131.058 26.3079 131.167 26.4137 131.249 26.5478C131.337 26.6769 131.399 26.8291 131.435 27.0046C131.471 27.1801 131.489 27.3633 131.489 27.5542C131.489 27.7452 131.471 27.9284 131.435 28.1039C131.399 28.2793 131.337 28.4342 131.249 28.5684C131.167 28.6974 131.058 28.8006 130.924 28.878C130.79 28.9554 130.627 28.9941 130.436 28.9941C130.245 28.9941 130.083 28.9554 129.949 28.878C129.82 28.8006 129.714 28.6974 129.631 28.5684C129.554 28.4342 129.497 28.2793 129.461 28.1039Z" fill="black"/>
<path d="M133.215 29.4199V24.0009H133.85V29.4199H133.215Z" fill="black"/>
<path d="M135.769 29.4199V27.6858H135.785L137.255 29.4199H138.037V29.358L136.396 27.5387L137.983 25.7427V25.6885H137.248L135.785 27.4226H135.769V24.0009H135.134V29.4199H135.769Z" fill="black"/>
<path d="M138.846 28.6767C138.995 28.7748 139.153 28.8522 139.318 28.909C139.483 28.9658 139.664 28.9941 139.86 28.9941C140.097 28.9941 140.27 28.9399 140.378 28.8316C140.492 28.718 140.549 28.5813 140.549 28.4213C140.549 28.2871 140.507 28.1813 140.425 28.1039C140.342 28.0213 140.216 27.9516 140.046 27.8949L139.627 27.7555C139.493 27.7091 139.367 27.6574 139.248 27.6007C139.135 27.5387 139.034 27.4665 138.946 27.3839C138.864 27.2962 138.799 27.1981 138.753 27.0897C138.706 26.9762 138.683 26.8472 138.683 26.7027C138.683 26.5478 138.711 26.4007 138.768 26.2614C138.83 26.1221 138.915 26.0034 139.024 25.9053C139.137 25.8021 139.274 25.7221 139.434 25.6653C139.594 25.6034 139.772 25.5724 139.968 25.5724C140.206 25.5724 140.415 25.5956 140.595 25.6421C140.776 25.6885 140.954 25.753 141.129 25.8356L140.92 26.3466C140.765 26.2691 140.608 26.2124 140.448 26.1762C140.293 26.135 140.141 26.1143 139.991 26.1143C139.759 26.1143 139.591 26.1737 139.488 26.2924C139.385 26.4059 139.333 26.5375 139.333 26.6872C139.333 26.811 139.369 26.9143 139.442 26.9968C139.519 27.0794 139.646 27.1491 139.821 27.2059L140.231 27.3297C140.371 27.371 140.497 27.4226 140.611 27.4846C140.729 27.5465 140.833 27.6213 140.92 27.7091C141.008 27.7968 141.075 27.9 141.122 28.0187C141.173 28.1323 141.199 28.2639 141.199 28.4135C141.199 28.5735 141.168 28.7232 141.106 28.8625C141.049 28.9967 140.964 29.1154 140.851 29.2186C140.737 29.3167 140.6 29.3941 140.44 29.4509C140.28 29.5077 140.1 29.536 139.898 29.536C139.749 29.536 139.615 29.5283 139.496 29.5128C139.377 29.4973 139.266 29.4741 139.163 29.4431C139.065 29.4122 138.972 29.3761 138.884 29.3348C138.797 29.2883 138.709 29.2367 138.621 29.1799L138.846 28.6767Z" fill="black"/>
<path d="M146.097 29.4199L147.266 25.766V25.6885H146.623L145.934 28.0497L145.78 28.7309H145.764L145.601 28.0497L144.866 25.6885H144.216L143.488 28.0497L143.325 28.7309H143.31L143.155 28.0497L142.466 25.6885H141.824V25.766L142.993 29.4199H143.604L144.363 27.0046L144.533 26.3079H144.549L144.719 27.0046L145.485 29.4199H146.097Z" fill="black"/>
<path fill-rule="evenodd" clip-rule="evenodd" d="M150.244 29.4199L150.182 29.0793H150.167C150.007 29.2083 149.826 29.3167 149.625 29.4044C149.423 29.4922 149.204 29.536 148.967 29.536C148.626 29.536 148.352 29.438 148.146 29.2419C147.945 29.0457 147.844 28.7671 147.844 28.4058C147.844 28.1684 147.885 27.9748 147.968 27.8252C148.056 27.6703 148.169 27.5516 148.309 27.4691C148.448 27.3813 148.605 27.322 148.781 27.291C148.956 27.2549 149.134 27.2368 149.315 27.2368H150.074V26.9968C150.074 26.873 150.058 26.7569 150.027 26.6485C149.996 26.5401 149.947 26.4472 149.88 26.3698C149.818 26.2872 149.736 26.2253 149.632 26.184C149.534 26.1375 149.416 26.1143 149.276 26.1143C149.101 26.1143 148.925 26.1427 148.75 26.1995C148.574 26.2511 148.42 26.3285 148.285 26.4317L148.022 25.9905C148.182 25.8666 148.368 25.7659 148.58 25.6885C148.796 25.6111 149.036 25.5724 149.3 25.5724C149.774 25.5724 150.128 25.7014 150.36 25.9595C150.592 26.2175 150.708 26.5685 150.708 27.0123V29.4199H150.244ZM149.369 27.6858C149.096 27.6858 148.881 27.7452 148.727 27.8639C148.572 27.9774 148.494 28.1581 148.494 28.4058C148.494 28.5864 148.543 28.7309 148.641 28.8393C148.74 28.9425 148.894 28.9941 149.106 28.9941C149.276 28.9941 149.439 28.9761 149.594 28.9399C149.754 28.8987 149.914 28.8109 150.074 28.6767V27.6858H149.369Z" fill="black"/>
<path fill-rule="evenodd" clip-rule="evenodd" d="M154.797 30.1166C154.869 29.9205 154.905 29.7038 154.905 29.4664V25.6885H154.464L154.379 26.0292H154.364C154.307 25.9827 154.237 25.9337 154.154 25.8821C154.077 25.8253 153.987 25.7737 153.884 25.7272C153.785 25.6808 153.677 25.6447 153.558 25.6189C153.44 25.5879 153.313 25.5724 153.179 25.5724C152.926 25.5724 152.709 25.624 152.529 25.7272C152.348 25.8305 152.198 25.9724 152.08 26.153C151.961 26.3285 151.873 26.5375 151.817 26.7801C151.76 27.0175 151.731 27.2704 151.731 27.5387C151.731 27.8123 151.76 28.0677 151.817 28.3051C151.873 28.5426 151.961 28.7516 152.08 28.9322C152.198 29.1128 152.348 29.2548 152.529 29.358C152.709 29.4612 152.926 29.5128 153.179 29.5128C153.442 29.5128 153.656 29.4741 153.822 29.3967C153.992 29.3193 154.136 29.2315 154.255 29.1335H154.271V29.536C154.271 29.8612 154.185 30.1089 154.015 30.2792C153.85 30.4547 153.628 30.5424 153.349 30.5424C153.148 30.5424 152.957 30.5244 152.777 30.4882C152.596 30.4573 152.428 30.4057 152.273 30.3334L152.103 30.7979C152.273 30.8805 152.457 30.945 152.653 30.9914C152.854 31.043 153.086 31.0688 153.349 31.0688C153.592 31.0688 153.809 31.0301 154 30.9527C154.196 30.8753 154.361 30.7644 154.495 30.6198C154.629 30.4805 154.73 30.3128 154.797 30.1166ZM153.845 26.1995C154.015 26.2562 154.157 26.3414 154.271 26.4549V28.6225C154.157 28.7413 154.015 28.829 153.845 28.8858C153.68 28.9374 153.512 28.9632 153.342 28.9632C153.161 28.9632 153.009 28.9245 152.885 28.8471C152.761 28.7696 152.66 28.6664 152.583 28.5374C152.511 28.4084 152.459 28.2587 152.428 28.0884C152.397 27.9129 152.382 27.7297 152.382 27.5387C152.382 27.3478 152.397 27.1672 152.428 26.9968C152.459 26.8265 152.511 26.6769 152.583 26.5478C152.66 26.4137 152.761 26.3079 152.885 26.2304C153.009 26.153 153.161 26.1143 153.342 26.1143C153.512 26.1143 153.68 26.1427 153.845 26.1995Z" fill="black"/>
<path fill-rule="evenodd" clip-rule="evenodd" d="M156.561 27.7168C156.561 27.8871 156.587 28.0497 156.639 28.2045C156.695 28.3593 156.773 28.4961 156.871 28.6148C156.974 28.7283 157.093 28.8212 157.227 28.8935C157.366 28.9606 157.519 28.9941 157.684 28.9941C157.921 28.9941 158.12 28.9606 158.28 28.8935C158.44 28.8264 158.584 28.7464 158.713 28.6535L158.953 29.1257C158.804 29.2341 158.621 29.3296 158.404 29.4122C158.187 29.4948 157.929 29.536 157.63 29.536C157.335 29.536 157.083 29.4819 156.871 29.3735C156.659 29.2651 156.484 29.1206 156.345 28.9399C156.21 28.7593 156.11 28.5477 156.043 28.3051C155.981 28.0626 155.95 27.8071 155.95 27.5387C155.95 27.2859 155.983 27.0433 156.05 26.811C156.117 26.5736 156.218 26.3646 156.352 26.184C156.486 25.9982 156.654 25.8511 156.855 25.7427C157.057 25.6292 157.292 25.5724 157.56 25.5724C157.833 25.5724 158.066 25.6189 158.257 25.7118C158.453 25.7995 158.613 25.9182 158.737 26.0679C158.861 26.2175 158.951 26.3904 159.008 26.5865C159.064 26.7775 159.093 26.9762 159.093 27.1826C159.093 27.2755 159.088 27.371 159.077 27.4691C159.072 27.5671 159.064 27.6497 159.054 27.7168H156.561ZM158.466 27.2368C158.471 27.211 158.473 27.1826 158.473 27.1517V27.0588C158.473 26.9246 158.453 26.8007 158.411 26.6872C158.375 26.5736 158.319 26.4756 158.241 26.393C158.164 26.3053 158.068 26.2382 157.955 26.1917C157.841 26.1401 157.71 26.1143 157.56 26.1143C157.415 26.1143 157.286 26.1453 157.173 26.2072C157.059 26.264 156.961 26.344 156.879 26.4472C156.796 26.5453 156.729 26.664 156.677 26.8033C156.631 26.9375 156.603 27.082 156.592 27.2368H158.466Z" fill="black"/>
<path d="M160.639 26.0292L160.562 25.6885H160.113V29.4199H160.747V26.4472C160.794 26.4111 160.853 26.3749 160.925 26.3388C160.998 26.2975 161.078 26.2614 161.165 26.2304C161.253 26.1943 161.344 26.1659 161.436 26.1453C161.529 26.1246 161.62 26.1143 161.707 26.1143C161.971 26.1143 162.164 26.1969 162.288 26.362C162.417 26.5272 162.482 26.7723 162.482 27.0975V29.4199H163.116V26.9891C163.116 26.5143 163.005 26.1608 162.783 25.9285C162.562 25.6911 162.257 25.5724 161.87 25.5724C161.746 25.5724 161.622 25.5905 161.498 25.6266C161.374 25.6576 161.258 25.6963 161.15 25.7427C161.042 25.7892 160.944 25.8382 160.856 25.8898C160.773 25.9414 160.706 25.9879 160.655 26.0292H160.639Z" fill="black"/>
</svg>
