<svg width="118" height="45" viewBox="0 0 118 45" fill="none" xmlns="http://www.w3.org/2000/svg">
<g clip-path="url(#clip0_759_380)">
<path fill-rule="evenodd" clip-rule="evenodd" d="M100.109 9.0559H88.9126V9.96892H89.0437C90.9876 9.96892 91.3895 10.5761 91.3895 11.5547C91.3895 12.2825 90.8985 13.5317 90.6789 14.0902C90.6349 14.2021 90.6018 14.2864 90.5857 14.3331L87.3705 22.2794C86.7415 23.8782 86.3177 24.9005 84.9722 25.2106C84.7654 25.2572 84.5647 25.2817 84.3788 25.3044C83.7794 25.3776 83.334 25.4319 83.334 26.1455C83.334 27.3294 84.5703 29.1772 85.5576 30.0772C86.5449 30.9771 86.9686 31.0164 87.1958 31.0164C87.6982 31.0164 87.8598 30.7586 87.8598 30.431C87.8237 30.0626 87.7278 29.7026 87.5758 29.3651C87.3512 28.8356 87.204 28.2765 87.139 27.7051C87.139 27.0541 87.4972 26.7484 88.585 26.7484H96.4483C96.6139 26.7445 96.7785 26.7758 96.9311 26.8402C97.0837 26.9047 97.2209 27.0008 97.3336 27.1222C97.4463 27.2435 97.532 27.3875 97.585 27.5444C97.6379 27.7014 97.657 27.8678 97.6409 28.0327C97.6133 28.4214 97.511 28.8011 97.3395 29.151C97.2412 29.3716 97.159 29.5471 97.0915 29.6913C96.9131 30.0722 96.8371 30.2345 96.8371 30.431C96.8367 30.5129 96.8535 30.594 96.8864 30.669C96.9193 30.744 96.9676 30.8112 97.0281 30.8664C97.0886 30.9216 97.16 30.9634 97.2378 30.9893C97.3155 31.0151 97.3977 31.0243 97.4792 31.0164C98.8728 31.0164 101.162 28.4215 101.651 26.7484H103.757V25.8353C101.508 25.4085 102.11 24.0727 102.372 23.4941L102.389 23.4545L103.053 21.9692H111.109L111.891 23.5899C112.004 23.8382 112.081 24.1016 112.118 24.3719C112.128 24.5595 112.099 24.7471 112.033 24.9231C111.967 25.0991 111.866 25.2597 111.736 25.3952C111.606 25.5307 111.449 25.6381 111.276 25.7108C111.103 25.7834 110.917 25.8199 110.729 25.8179V26.7265H117.95V25.8353C117.395 25.5514 116.744 25.0534 115.582 22.6201L108.96 8.77195H108.047C107.68 9.2088 106.789 9.99076 104.866 10.1437V11.0523C105.168 11.0217 106.059 10.978 106.059 11.5547C106.071 12.0844 105.968 12.6104 105.758 13.0968L100.651 23.8913C100.407 24.4161 100.073 24.8938 99.6635 25.3024C98.7898 25.084 98.7898 24.5292 98.7898 23.9656V11.4018C98.7898 10.5281 99.2267 10.1655 100.1 9.96892L100.109 9.0559ZM95.0067 10.3883V25.3985H89.1398C88.336 25.3985 88.087 25.1713 88.087 24.5947C88.166 24.0044 88.3432 23.4315 88.6112 22.8997L92.5734 12.5201C93.137 11.0741 93.5956 10.3927 94.7577 10.3927L95.0067 10.3883ZM107.016 13.6079H107.112L110.379 20.5538V20.6193H103.827V20.532L107.016 13.6079Z" fill="black"/>
<path fill-rule="evenodd" clip-rule="evenodd" d="M74.7019 26.744H81.0668V25.8353C80.7029 25.7968 80.3657 25.6261 80.1193 25.3556C79.8729 25.085 79.7344 24.7334 79.73 24.3675V19.6888C80.8581 20.4578 82.201 20.8493 83.5656 20.8072C84.3206 20.7855 85.0635 20.6117 85.7498 20.2961C88.7029 19.0161 89.0306 16.0062 89.0306 14.6607C89.0306 11.7382 86.8812 8.77195 82.6875 8.77195C79.1927 8.77195 75.925 10.349 75.925 14.486V24.3675C75.9554 24.7239 75.8441 25.078 75.6151 25.3528C75.3861 25.6276 75.0579 25.801 74.7019 25.8353V26.744ZM79.7256 12.6949C79.7099 12.3572 79.7639 12.02 79.8844 11.7042C80.0048 11.3884 80.189 11.1008 80.4255 10.8593C80.6621 10.6179 80.9458 10.4278 81.2591 10.3009C81.5723 10.174 81.9084 10.113 82.2463 10.1218H82.3992C84.7975 10.2398 84.8543 12.3061 84.8543 14.6389C84.8543 16.9716 84.6446 19.134 82.3773 19.134C81.0668 19.134 79.7256 18.3084 79.7256 16.9847V12.6949Z" fill="black"/>
<path d="M9.77763 11.6377C8.49601 10.5481 7.25366 9.49191 7.82071 7.86326H7.83381C9.42798 7.29742 10.4506 8.56535 11.5082 9.8766C12.2387 10.7824 12.9859 11.7088 13.9497 12.0658C14.5898 12.2706 15.2666 12.3349 15.9338 12.2543C16.6011 12.1736 17.243 11.9499 17.8159 11.5983C17.5625 13.3588 16.4529 13.9005 14.7579 13.6428C15.0506 14.9883 16.1034 15.246 17.5931 14.8878C17.33 15.2889 17.1696 15.7485 17.1262 16.2262C17.0828 16.7039 17.1576 17.1849 17.3441 17.6269L17.3004 17.5832L17.3309 17.6269C16.9006 17.4342 16.4281 17.3551 15.9585 17.3972C15.4889 17.4392 15.0379 17.601 14.6487 17.8671C15.02 16.3469 14.7448 15.281 13.4342 14.9664C13.6832 16.692 13.1416 17.8235 11.416 18.0594C11.7667 17.4741 11.991 16.822 12.0746 16.1448C12.1581 15.4677 12.0989 14.7806 11.9009 14.1277C11.5575 13.1509 10.6583 12.3864 9.77763 11.6377Z" fill="black"/>
<path d="M27.2227 11.6637C28.5218 10.5752 29.7816 9.51977 29.2351 7.88523C27.6447 7.3189 26.6008 8.58953 25.5225 9.902C24.7793 10.8067 24.0198 11.7312 23.0536 12.0877C22.4125 12.2898 21.7353 12.3515 21.0682 12.2686C20.4011 12.1857 19.7597 11.9601 19.1875 11.6072C19.419 13.3677 20.5155 13.9094 22.2192 13.6517C21.9047 14.9972 20.8519 15.268 19.3622 14.9098C19.6233 15.3098 19.78 15.7688 19.8182 16.245C19.8563 16.7211 19.7747 17.1992 19.5807 17.6357L19.6243 17.6008L19.5894 17.6357C20.0186 17.4446 20.4895 17.3664 20.9574 17.4085C21.4253 17.4505 21.8747 17.6115 22.2629 17.876C21.9266 16.3645 22.2105 15.2898 23.5211 14.9841C23.2502 16.714 23.7526 17.8411 25.5 18.0813C25.1577 17.4924 24.9421 16.8386 24.8669 16.1616C24.7917 15.4846 24.8585 14.7994 25.0631 14.1497C25.4205 13.1735 26.3309 12.4108 27.2227 11.6637Z" fill="black"/>
<path d="M29.0903 29.7058C29.6568 28.0734 28.414 27.0185 27.1302 25.9288C26.2461 25.1785 25.3426 24.4116 24.997 23.4282C24.8057 22.7742 24.7504 22.088 24.8346 21.4118C24.9187 20.7356 25.1405 20.0838 25.4863 19.4966C23.7389 19.7369 23.219 20.8683 23.468 22.5939C22.1575 22.2881 21.891 21.2134 22.2492 19.6932C21.8601 19.9597 21.4092 20.1217 20.9395 20.1638C20.4698 20.2059 19.9972 20.1265 19.5669 19.9334C19.7545 20.3744 19.83 20.8549 19.7865 21.3321C19.7431 21.8093 19.5821 22.2683 19.3179 22.6681C20.8076 22.3099 21.8604 22.572 22.14 23.9306C20.4581 23.6554 19.3398 24.2015 19.082 25.9576C19.6539 25.6075 20.2945 25.3849 20.9602 25.305C21.6259 25.2251 22.301 25.2898 22.9394 25.4945C23.9093 25.8524 24.6585 26.782 25.3904 27.6901C26.4452 28.9988 27.464 30.2629 29.0553 29.7058H29.0903Z" fill="black"/>
<path d="M9.67955 25.901C8.3826 26.9859 7.12753 28.0357 7.66771 29.6666H7.66334C9.25989 30.2332 10.3062 28.9607 11.386 27.6473C12.1292 26.7434 12.8883 25.8202 13.8535 25.4641C14.4949 25.2647 15.1713 25.2041 15.8378 25.2862C16.5044 25.3683 17.1458 25.5912 17.7196 25.9402C17.4925 24.1841 16.3829 23.638 14.6879 23.9001C14.9937 22.5546 16.0552 22.2925 17.5449 22.6507C17.285 22.2488 17.1283 21.7889 17.0887 21.3119C17.049 20.8348 17.1277 20.3554 17.3177 19.916C16.8875 20.1091 16.4149 20.1885 15.9452 20.1464C15.4755 20.1043 15.0245 19.9423 14.6355 19.6758C14.9806 21.1873 14.6966 22.2619 13.3861 22.5634C13.6569 20.8378 13.124 19.7107 11.4115 19.4705C11.7486 20.0614 11.9612 20.715 12.0363 21.3911C12.1114 22.0673 12.0475 22.7516 11.8484 23.4021C11.4898 24.3868 10.5747 25.1523 9.67955 25.901Z" fill="black"/>
<path d="M17.3041 2.5293C14.293 2.76369 11.4124 3.85681 9.00391 5.67899C9.64656 5.8142 10.2286 6.15271 10.6639 6.64443C11.3367 4.48202 12.4332 3.60395 13.9228 4.10196C11.2493 7.03323 12.704 11.2707 15.845 10.694C17.9375 10.2484 18.5273 7.47008 16.6269 7.09002C15.1722 7.34776 14.9538 8.11225 16.1377 9.4228C12.1973 9.61065 13.8573 4.10196 17.1031 5.24214C17.0128 4.33304 17.0808 3.41516 17.3041 2.5293Z" fill="black"/>
<path d="M2.50781 17.4739C2.7536 14.419 3.85251 11.4947 5.67935 9.03394C5.71214 9.368 5.81042 9.69233 5.96857 9.98841C6.12673 10.2845 6.34167 10.5465 6.6011 10.7595C4.30764 11.4672 3.66984 12.6292 4.11542 14.0708C7.66265 10.576 12.2234 13.7781 10.0085 17.2773C8.78536 18.2559 7.78497 18.2952 7.09038 17.155C6.39578 16.0148 8.10824 14.6606 9.27463 16.3425C9.17415 12.0526 3.46452 14.7348 5.46092 17.7884C4.34259 17.2861 3.3553 17.155 2.50781 17.4826V17.4739Z" fill="black"/>
<path d="M19.8078 2.54248C22.8096 2.78344 25.6788 3.88289 28.073 5.70965C27.4264 5.84692 26.8403 6.18662 26.3998 6.67946C25.7577 4.4952 24.6524 3.6215 23.1759 4.12825C25.797 7.05952 24.2942 11.2926 21.1664 10.7072C19.0826 10.2704 18.5453 7.48326 20.4368 7.11194C21.8915 7.36095 22.1012 8.12107 20.8737 9.44909C24.8053 9.64131 23.2196 4.12825 19.9607 5.25532C20.0642 4.34785 20.005 3.42918 19.7859 2.54248H19.8078Z" fill="black"/>
<path d="M27.9059 31.8596C25.4947 33.6768 22.6156 34.7693 19.6058 35.0092C19.8266 34.123 19.896 33.2058 19.8111 32.2964C23.0569 33.4366 24.7213 27.9279 20.7765 28.1157C21.9604 29.4263 21.7463 30.1995 20.2872 30.4485C18.3869 30.0685 18.9767 27.2901 21.0605 26.8445C24.1971 26.2679 25.6649 30.5009 22.9826 33.4366C24.4679 33.9346 25.5775 33.0565 26.2415 30.8941C26.6791 31.3874 27.2645 31.7261 27.9103 31.8596H27.9059Z" fill="black"/>
<path d="M17.0953 35.0093L17.0775 35.0079C16.8662 34.1204 16.8101 33.2031 16.9118 32.2965C13.6442 33.4236 12.0584 27.9061 15.9901 28.1027C14.7975 29.4264 15.0028 30.1865 16.4575 30.4486C18.3491 30.0685 17.803 27.2814 15.728 26.8446C12.6088 26.2548 11.0973 30.4923 13.7403 33.4236C12.2594 33.939 11.1541 33.0653 10.512 30.8811C10.0656 31.3686 9.4772 31.7033 8.83008 31.8378C11.2186 33.6634 14.0814 34.7637 17.0775 35.0079L17.0778 35.0093H17.0953Z" fill="black"/>
<path d="M2.50391 20.047C2.70918 23.0946 3.76899 26.0227 5.56186 28.4957C5.64267 27.823 5.98085 27.2077 6.50546 26.7789C4.2251 26.0493 3.60477 24.9004 4.0722 23.4544C7.57137 26.9536 12.1845 23.7559 10.0003 20.2611C8.78582 19.2869 7.78543 19.2432 7.0821 20.3834C6.39188 21.4449 8.07375 22.8778 9.26635 21.1959C9.09598 25.4858 3.41692 22.7992 5.45702 19.7412C4.32557 20.2392 3.33829 20.3703 2.50391 20.047Z" fill="black"/>
<path d="M44.415 11.5197L44.4171 11.5067L44.4325 11.5197H44.415Z" fill="black"/>
<path fill-rule="evenodd" clip-rule="evenodd" d="M66.2313 8.76321C64.7066 8.74769 63.2044 9.13146 61.874 9.87637C60.5436 10.6213 59.4312 11.7014 58.6476 13.0094C58.6641 12.7492 58.605 12.4897 58.4772 12.2624L58.0404 11.7076L58.0098 11.6639C58.4363 11.6814 58.5747 11.8528 58.745 12.0638C58.7875 12.1165 58.832 12.1716 58.8835 12.2274C58.8405 12.028 58.7421 11.8448 58.5995 11.6988L58.1889 11.262C58.1133 11.2017 58.033 11.1476 57.9486 11.1004L57.7957 10.9693C57.141 10.3091 57.1356 10.2725 57.1031 10.0504C57.0838 9.91838 57.0548 9.72075 56.874 9.28743C56.7839 9.0622 56.6473 8.84393 56.523 8.64521C56.4062 8.4585 56.3002 8.28903 56.2536 8.14725H56.6119C56.7186 8.17022 56.83 8.15474 56.9264 8.10356C56.7748 7.97062 56.6621 7.91859 56.5399 7.86216C56.2604 7.73315 55.931 7.58111 54.9737 6.38674C54.894 6.28796 54.6981 6.07062 54.4791 5.82758C54.0975 5.40425 53.6456 4.90288 53.6151 4.81408C53.7594 4.73219 53.9389 4.73109 54.112 4.73003C54.2898 4.72894 54.461 4.72788 54.5805 4.63934L53.8641 4.26801C53.5645 4.10416 53.316 3.92831 53.0605 3.74748C52.88 3.61977 52.6959 3.48955 52.488 3.35937C52.3905 3.30089 52.2626 3.2485 52.1373 3.19715C51.9817 3.13342 51.83 3.07131 51.7453 3.00115L52.0075 2.8133C50.9995 2.50844 50.0489 2.03905 49.1941 1.42412C43.1918 -1.9309 38.1637 1.48964 37.0016 2.29782C36.7244 2.22796 36.553 2.09266 36.3898 1.96385C36.2264 1.8349 36.0713 1.71246 35.8265 1.66875C35.7871 1.66875 35.7637 1.699 35.7337 1.73792C35.6838 1.80253 35.6154 1.89102 35.4246 1.90465C35.181 1.91978 35.0359 1.87203 34.9093 1.83036C34.6704 1.75172 34.4973 1.69475 33.8519 2.12308C33.8818 2.14588 33.9538 2.13488 34.0528 2.11977C34.2005 2.09724 34.4081 2.06555 34.6252 2.12308C34.4408 2.42187 34.0127 2.59485 33.5653 2.7756C33.0053 3.0018 32.4153 3.24016 32.2356 3.75253C32.5118 3.60562 32.8232 3.5376 33.1355 3.55595C33.0071 3.84632 32.6509 4.10544 32.2839 4.37246C31.8897 4.65921 31.483 4.95509 31.3324 5.30861C29.6649 3.63948 27.6871 2.31224 25.5101 1.40176C23.3146 0.483502 20.9595 0.0071652 18.5797 1.49012e-08C8.38356 1.49012e-08 0.0746542 8.3919 0.000389612 18.7846C-0.065138 29.1467 8.14329 37.5692 18.3481 37.5692C21.9366 37.5662 25.4444 36.5041 28.4318 34.5162C29.4402 34.045 30.0112 33.2344 30.6021 32.3957C30.8887 31.989 31.1799 31.5756 31.5279 31.1911L33.1049 29.7495L34.8523 27.9366C35.0942 28.0897 35.3158 28.3555 35.5468 28.6327C35.7707 28.9012 36.0034 29.1804 36.2721 29.3782C37.0175 29.8866 37.8158 30.3128 38.6529 30.6494C38.6867 30.6654 38.7188 30.6844 38.749 30.7062C38.7767 30.7062 38.8308 30.7537 38.8856 30.8018C38.9172 30.8295 38.949 30.8574 38.9762 30.8766C39.0202 30.9092 39.0668 30.9466 39.1153 30.9856C39.3461 31.1711 39.6221 31.3929 39.8892 31.3134C40.2277 31.2305 40.477 31.1548 40.721 31.0807C41.1067 30.9636 41.4791 30.8505 42.1696 30.7193C43.2344 30.511 43.8987 30.2106 44.6232 29.883C44.9925 29.7161 45.3775 29.542 45.8391 29.3695L46.8089 28.9326C46.9734 28.8619 47.1384 28.809 47.3 28.7571C47.6578 28.6423 47.9996 28.5326 48.2855 28.2468C48.8333 27.8398 49.4051 27.4664 49.9979 27.1284C49.997 27.5361 50.0529 27.9419 50.1639 28.3341C50.2297 28.5232 50.2981 28.6985 50.364 28.8673C50.5783 29.4163 50.766 29.8972 50.7493 30.5621C50.7493 30.6201 50.749 30.6751 50.7486 30.7276C50.7455 31.1846 50.7437 31.4488 50.9983 31.7896C51.7786 31.495 52.46 30.9862 52.9642 30.3218C53.0457 30.2179 53.1039 30.0974 53.1578 29.9857C53.2829 29.7265 53.3849 29.5152 53.7024 29.6709C55.1506 30.3672 55.0933 31.2277 55.0378 32.061C54.9844 32.8641 54.9326 33.6419 56.2318 34.2229C56.2228 33.9474 56.2829 33.6741 56.4065 33.4278L56.5813 33.2225C56.5813 33.3721 56.5608 33.5428 56.54 33.716C56.5 34.0485 56.4589 34.3905 56.5594 34.6117C56.6265 34.5831 56.6498 34.5765 56.6581 34.5741C56.6614 34.5732 56.6624 34.5729 56.6628 34.5722C56.663 34.5719 56.6631 34.5715 56.6633 34.571C56.6644 34.5662 56.6687 34.5486 56.7735 34.4588L56.9482 34.3059C57.0768 34.204 57.2258 34.131 57.3851 34.0918C57.1435 34.807 57.0038 35.5526 56.9701 36.3067C56.9666 36.362 56.9633 36.419 56.9599 36.4773L56.9597 36.4794C56.9196 37.1615 56.869 38.0205 56.5594 38.4909C57.0295 38.4278 57.2627 37.9796 57.4744 37.5726C57.5558 37.416 57.6341 37.2655 57.7215 37.1454C57.7097 37.773 57.7418 38.4007 57.8176 39.0239C57.8296 39.1095 57.8441 39.203 57.8592 39.3013C57.9378 39.8098 58.0366 40.4489 57.9268 40.8149C57.9416 40.8094 57.955 40.8045 57.9672 40.8002C57.9812 40.7952 57.9937 40.7909 58.0049 40.787C58.0986 40.7546 58.1036 40.7529 58.2107 40.6315C58.2353 40.5789 58.2677 40.5303 58.3068 40.4873L58.403 40.3781L58.4466 40.3344C58.4358 40.9587 58.5051 41.4815 58.5727 41.9911C58.6418 42.512 58.709 43.019 58.6869 43.6064C58.9355 43.4697 59.027 43.2453 59.1242 43.0073C59.1978 42.8269 59.2746 42.6388 59.4252 42.475C59.4055 42.7645 59.3694 42.9653 59.3383 43.1379C59.2657 43.5409 59.2207 43.7907 59.4776 44.6592C59.5114 44.7792 59.5552 44.8961 59.6087 45.0087C59.6611 44.9747 59.7134 44.9453 59.7658 44.916C59.8008 44.8964 59.8358 44.8768 59.8708 44.8558C59.8691 44.7474 59.8915 44.64 59.9363 44.5413C60.0302 44.3515 60.0992 44.1503 60.1416 43.9428C60.254 44.0739 60.2379 44.3173 60.2228 44.5465C60.2203 44.5844 60.2177 44.6227 60.2159 44.6592C61.0896 44.585 62.138 44.1394 63.3568 43.3487C63.5403 43.3181 63.5534 43.4885 63.4879 43.72C64.2567 43.012 64.8414 42.1273 65.1916 41.1426C65.2417 40.8623 65.316 40.6241 65.393 40.3769C65.5309 39.9344 65.6778 39.4631 65.7115 38.67C65.7443 38.6688 65.7769 38.6748 65.8071 38.6876C65.8374 38.7004 65.8643 38.7198 65.8862 38.7443C65.9252 38.7443 65.906 38.7622 65.8909 38.7763C65.8688 38.7969 65.8557 38.8092 66.0478 38.7443C66.192 38.7006 66.2357 38.5826 66.2444 38.421C66.2767 38.1077 66.219 37.6723 66.1607 37.2321C66.0849 36.6594 66.0079 36.0784 66.1265 35.7475L66.2881 35.813C66.3711 35.8646 66.4473 35.9263 66.5153 35.9965C66.6528 36.1451 66.6709 36.2408 66.6852 36.3162C66.699 36.3892 66.7093 36.4431 66.8211 36.5076C67.0008 36.0856 66.7378 35.5998 66.4804 35.1245C66.3062 34.8028 66.1346 34.4859 66.1046 34.1967L66.441 34.4238C66.5408 34.5066 66.6491 34.5783 66.7643 34.6379C66.6931 34.4184 66.6068 34.2396 66.5159 34.051C66.3336 33.6727 66.1324 33.2553 65.9954 32.3925C66.062 32.4335 66.1103 32.47 66.1525 32.5019C66.2543 32.579 66.3215 32.6299 66.5284 32.6546L66.0609 31.7416C65.9954 31.545 65.9517 31.4139 65.8862 31.2304C65.8606 31.1587 65.8317 31.093 65.8033 31.0286C65.7591 30.9284 65.7162 30.831 65.6896 30.7193L66.2007 30.881C66.1376 30.7642 66.07 30.709 65.983 30.638C65.9495 30.6107 65.9132 30.581 65.8731 30.5446L65.5586 30.2432C65.3 29.9672 65.2132 29.7269 65.1231 29.477C65.032 29.2247 64.9375 28.9626 64.6587 28.6443C64.5627 28.5309 64.4575 28.4257 64.3441 28.3298C64.3051 28.2937 64.2647 28.2647 64.2269 28.2376C64.1501 28.1826 64.0836 28.135 64.0602 28.0502H64.5844C64.4703 27.7307 64.1811 27.5639 63.8846 27.393C63.7271 27.3022 63.5675 27.2102 63.4311 27.0935C63.3718 27.0431 63.3125 26.9806 63.2573 26.9224C63.2312 26.8949 63.206 26.8683 63.1821 26.8445L62.7453 26.3639C63.8542 26.8172 65.0421 27.0459 66.2401 27.0367C71.4167 27.0367 75.1518 22.9434 75.1518 17.972C75.1518 12.8478 71.3425 8.79816 66.2401 8.79816L66.2313 8.76321ZM46.1187 9.07774H45.9134C45.9649 9.18385 46.0228 9.22053 46.1001 9.26954C46.1342 9.29115 46.1721 9.31518 46.2148 9.34859L47.0405 10.2223C46.5794 10.2223 46.2837 10.0462 45.9759 9.86287C45.7266 9.7144 45.4692 9.56116 45.1096 9.49275C45.1336 9.56342 45.1636 9.61808 45.1906 9.66739C45.2472 9.77048 45.2909 9.85021 45.2406 10.0039C45.0876 9.96786 44.9865 9.88736 44.8787 9.80147C44.7248 9.67892 44.5572 9.54541 44.2053 9.51459C44.2604 9.6115 44.3073 9.65026 44.3441 9.68072C44.4035 9.7299 44.4368 9.75748 44.4368 9.97329L43.7422 9.35296L43.5107 9.30054L43.5981 9.73739C43.4992 9.67448 43.4073 9.59886 43.3122 9.52063C43.2224 9.44675 43.1298 9.37055 43.0258 9.30054C42.967 9.32725 42.9562 9.33218 42.9565 9.33605C42.9566 9.33693 42.9573 9.33775 42.9581 9.33876C42.9625 9.34422 42.9712 9.35514 42.9166 9.40975C42.9166 9.40975 42.9166 9.60633 42.8729 9.49712V9.5277C42.83 9.51237 42.7634 9.4734 42.6887 9.42962C42.5503 9.34861 42.384 9.25118 42.2875 9.25685C42.2285 9.26032 42.2261 9.28722 42.2344 9.30799C42.2243 9.29618 42.2091 9.27953 42.187 9.25685L42.1442 9.21262C41.9978 9.06117 41.8531 8.91156 41.6541 8.82C41.7453 9.02119 41.7684 9.24669 41.7196 9.46217L41.1779 8.78505C41.1779 8.7691 41.1616 8.7648 41.1443 8.76023C41.1404 8.75922 41.1365 8.75819 41.1327 8.75701C41.1303 8.75624 41.1278 8.75541 41.1255 8.75447C41.1463 9.10734 41.1198 9.46141 41.0469 9.80728C41.0003 9.77564 40.9935 9.76541 40.9908 9.76139C40.9902 9.76059 40.9898 9.76004 40.9894 9.75961C40.9883 9.75864 40.9866 9.75831 40.9811 9.75725C40.9726 9.7556 40.9548 9.75216 40.9158 9.74175H40.8852L40.9158 10.1349C40.9158 10.1349 40.8852 10.1131 40.8721 10.0912C40.8622 10.0746 40.8547 10.0706 40.8421 10.0639C40.8381 10.0618 40.8337 10.0594 40.8284 10.0563L40.5358 9.79855V9.84223L40.4484 10.0476C40.4202 10.1062 40.3801 10.1583 40.3304 10.2004C40.2297 10.1753 40.1798 10.1167 40.1221 10.049C40.0797 9.99926 40.0331 9.94461 39.9591 9.89465L39.7188 10.3315C39.5899 10.4646 39.5006 10.2543 39.3911 9.99638C39.2704 9.71238 39.1253 9.37064 38.8757 9.36606C38.975 9.60993 39.0226 9.87173 39.0155 10.1349C39.0059 10.4024 39.0475 10.6693 39.1378 10.9213C38.9804 10.8625 38.9138 10.7271 38.8483 10.5941C38.7774 10.4501 38.7078 10.3089 38.5262 10.2703L38.4432 10.6067C38.3399 10.5723 38.3235 10.5432 38.2847 10.4746C38.2743 10.4563 38.2623 10.435 38.2467 10.4101C38.2405 10.5732 38.1753 10.7284 38.0632 10.847L38.0282 10.2922C37.9232 10.3145 37.8319 10.3963 37.7356 10.4826C37.6436 10.565 37.5471 10.6514 37.4297 10.6941C37.4209 10.4627 37.4657 10.2325 37.5608 10.0213C37.4213 10.0679 37.3059 10.1958 37.196 10.3177C37.1512 10.3675 37.1071 10.4164 37.0628 10.4582L37.2157 10.065C37.0219 10.1783 36.8365 10.3054 36.6609 10.4451L36.5429 10.1742C36.4793 10.1925 36.4211 10.2259 36.3732 10.2715C36.3253 10.3172 36.2891 10.3737 36.2677 10.4363C36.2677 10.4363 36.2677 10.4014 36.2371 10.4014L36.0318 10.1742C35.9822 10.1901 35.9479 10.2123 35.9133 10.2347C35.8719 10.2615 35.8301 10.2886 35.761 10.3053C35.6295 10.3383 35.4946 10.3559 35.3591 10.3577C35.191 10.3867 35.1017 10.483 35.0033 10.5891C34.9533 10.643 34.901 10.6994 34.8349 10.7509C34.8349 10.4661 34.8961 10.3447 34.9715 10.1954C35.0117 10.1157 35.0559 10.0281 35.097 9.90339C34.9384 9.95072 34.9132 9.97497 34.8838 10.0032C34.8589 10.0271 34.831 10.0539 34.7169 10.1C34.8841 9.81422 35.0965 9.5575 35.346 9.33985C34.7192 9.56268 34.1691 9.95975 33.7602 10.4844C33.72 10.3773 33.7587 10.2997 33.8067 10.2033C33.837 10.1425 33.871 10.0743 33.8913 9.98639C33.1492 10.4743 33.0878 10.5838 32.8387 11.0283C32.7667 11.1569 32.6789 11.3135 32.5545 11.5154C32.4987 11.6083 32.4413 11.6994 32.3842 11.7901C32.0653 12.2958 31.754 12.7897 31.7725 13.538C31.958 13.1968 32.1682 12.8698 32.4016 12.5594C32.4458 12.5172 32.4511 12.5037 32.4543 12.4954C32.4585 12.4849 32.4592 12.4831 32.5327 12.4415C32.4854 12.7531 32.3313 13.0003 32.1526 13.287C31.8026 13.8485 31.3581 14.5617 31.4362 16.2071C31.5274 15.9848 31.5746 15.7466 31.6224 15.5052C31.7004 15.1111 31.7802 14.7081 32.0565 14.3505C31.9893 14.7413 31.9644 15.1383 31.9822 15.5344C31.9822 15.5953 32.0013 15.6986 32.0173 15.7853C32.0243 15.8229 32.0307 15.8574 32.0346 15.8839C32.0408 15.9246 32.0478 15.9131 32.0505 15.9087C32.051 15.9079 32.0514 15.9073 32.0515 15.9074C32.0519 15.9075 32.0513 15.911 32.0493 15.9227C32.0468 15.9369 32.0422 15.9633 32.0346 16.0106C32.0234 16.2762 31.8656 16.5098 31.6812 16.7826C31.3654 17.2501 30.9717 17.8329 31.1041 18.8894C31.1344 18.6494 31.2169 18.419 31.346 18.2144C31.4751 18.0098 31.6475 17.8361 31.8512 17.7055C31.8323 18.0056 31.7303 18.3203 31.631 18.6265C31.5005 19.0291 31.3748 19.4168 31.4493 19.7369C31.5291 19.5899 31.6507 19.4698 31.7987 19.3918L31.5803 21.8119C31.8324 21.6304 31.8881 21.4489 31.9397 21.2808C31.9775 21.1576 32.013 21.0417 32.122 20.9382C32.122 21.1816 32.082 21.3955 32.0411 21.6142C31.98 21.9413 31.9168 22.2791 31.9822 22.7424C31.9681 22.7329 31.9557 22.7246 31.9447 22.7172C31.8939 22.6831 31.8748 22.6703 31.8605 22.6535C31.8519 22.6435 31.845 22.632 31.8339 22.6137C31.8221 22.5939 31.8055 22.5663 31.7769 22.524C31.7327 22.856 31.7327 23.1924 31.7769 23.5244C31.71 23.467 31.6514 23.3761 31.592 23.284C31.5158 23.1658 31.4383 23.0455 31.34 22.9914L31.1784 24.8044C31.0667 24.6175 31.0416 24.3546 31.0164 24.0904C30.9904 23.8173 30.9642 23.5428 30.842 23.3497C30.7794 23.4338 30.7681 23.4724 30.7609 23.4969C30.7506 23.5321 30.749 23.5378 30.6149 23.6074C30.575 23.5424 30.5529 23.5113 30.5417 23.4977C30.5491 23.4986 30.5567 23.486 30.5493 23.4239C30.5277 23.2573 30.5511 23.0806 30.5744 22.9053C30.6121 22.6209 30.6493 22.3404 30.4926 22.1134C30.3642 22.3033 30.2545 22.5052 30.1649 22.7162C30.1446 22.7629 30.1253 22.8133 30.106 22.8636C30.0838 22.9215 30.0616 22.9793 30.0382 23.0308L29.9378 23.2798C29.9378 23.3013 29.9378 23.344 29.9085 23.3369C29.9155 23.1924 29.9492 23.0207 29.9845 22.8412C30.057 22.4729 30.136 22.0714 30.0033 21.8032C29.9875 21.8032 29.9813 21.7933 29.9766 21.7861C29.9658 21.7691 29.9639 21.7662 29.8722 21.9343C29.9399 21.7179 29.9477 21.5784 29.9542 21.461C29.9625 21.313 29.9688 21.2001 30.0907 21.0125C30.3306 20.5642 30.4791 20.0727 30.5275 19.5665C30.5275 19.5665 30.4969 19.6015 30.4969 19.6102L30.1038 20.0034C30.1344 19.7098 30.181 19.4181 30.2436 19.1297C30.3069 18.891 30.3917 18.6585 30.4969 18.4351C30.2294 18.502 30.1421 18.6294 30.0524 18.7603C29.9957 18.8432 29.9379 18.9275 29.8329 18.9986C29.8612 18.7542 29.8629 18.537 29.8645 18.3306C29.8671 17.9948 29.8695 17.6876 29.9858 17.3386C30.0095 17.2605 30.0421 17.1836 30.0754 17.1053C30.1036 17.0391 30.1322 16.9718 30.1562 16.9017C29.9944 16.9484 29.9102 17.0815 29.8262 17.2142C29.7922 17.2678 29.7583 17.3214 29.7193 17.3692C29.6258 17.1353 29.809 16.7836 30.0249 16.3693C30.2122 16.0097 30.4242 15.603 30.5013 15.1849C30.3875 15.2059 30.2948 15.2501 30.1995 15.2955C30.0569 15.3633 29.9086 15.4339 29.6756 15.4339C29.8308 15.1608 29.8661 15.0204 29.8986 14.8917C29.9502 14.6869 29.9943 14.5118 30.5013 13.8787C30.4338 13.8435 30.3426 13.8556 30.2542 13.8674C30.2111 13.8731 30.1687 13.8787 30.13 13.8787C30.2262 13.5751 30.4229 13.3594 30.6105 13.1537C30.8061 12.9392 30.9917 12.7356 31.043 12.4546C30.7569 12.6268 30.4501 12.7618 30.13 12.8565C30.196 12.6994 30.2608 12.5988 30.3188 12.5088C30.4222 12.3485 30.5039 12.2217 30.5319 11.8692C30.4776 11.8991 30.4423 11.923 30.4126 11.9432C30.3467 11.9879 30.3084 12.0138 30.1518 12.044C30.2372 11.8781 30.3131 11.7074 30.379 11.5328C30.6279 10.8164 30.6842 10.7761 30.8107 10.6854C30.8839 10.6328 30.9807 10.5634 31.1522 10.3359C30.871 10.4051 30.6006 10.5124 30.3484 10.6548C30.5083 10.3018 30.7807 10.0357 31.053 9.7696C31.3536 9.47588 31.6541 9.18224 31.8031 8.77195C31.7309 8.74099 31.6982 8.7466 31.6413 8.75638C31.6019 8.76316 31.5508 8.77195 31.4667 8.77195C31.594 8.54063 31.7913 8.35559 32.0303 8.24336L31.7376 8.06862C31.9537 7.9207 32.1392 7.73229 32.2836 7.51382H31.6022C31.6717 7.36179 31.8275 7.26914 32 7.16664C32.1745 7.06296 32.3659 6.9492 32.5021 6.7537L32.1439 6.78428C32.3218 6.48566 32.5672 6.23283 32.8603 6.046L32.7729 6.01542H32.7292C32.712 6.01116 32.694 6.01116 32.6768 6.01542L32.4584 5.94989C33.0302 5.58324 33.6684 5.3324 34.3368 5.21161C34.1331 5.08939 33.9487 5.08739 33.762 5.08535C33.6284 5.0839 33.4935 5.08243 33.3496 5.03687L34.3237 4.49518L33.7296 4.43839C33.9039 4.2863 34.0926 4.15169 34.2932 4.03648C34.5191 3.88495 34.6076 3.86123 34.7151 3.8324C34.7842 3.81385 34.8612 3.7932 34.9878 3.73506C34.9705 3.66956 34.9818 3.65235 34.9847 3.648C34.9851 3.64733 34.9854 3.64696 34.9853 3.64678C34.9852 3.64655 34.9846 3.64658 34.9833 3.64663C34.9748 3.647 34.9363 3.64865 34.8043 3.5909C34.7838 3.58302 34.757 3.574 34.7275 3.56405C34.6753 3.54642 34.6143 3.52586 34.564 3.50353C34.5747 3.50353 34.5788 3.50353 34.5828 3.50266C34.5853 3.50211 34.5878 3.5012 34.5919 3.4997C34.6022 3.49588 34.623 3.48824 34.682 3.47295L35.4421 3.54721C35.7328 3.55407 36.0199 3.61326 36.2896 3.72195C36.282 3.63297 36.2535 3.54703 36.2064 3.47113C36.1593 3.39523 36.095 3.33149 36.0187 3.2851C35.9952 3.2647 35.9525 3.24035 35.9064 3.21408C35.8242 3.16722 35.7313 3.11426 35.7173 3.06668C35.7133 3.05319 35.7101 3.0446 35.7073 3.03939C36.1833 3.10639 36.699 3.41937 37.2536 3.75597C37.8942 4.14479 38.5868 4.56512 39.33 4.67429L39.3868 4.42528C39.4277 4.47335 39.466 4.52501 39.5045 4.5769C39.6302 4.74665 39.7578 4.91884 39.9853 4.97571C39.9132 4.53352 39.9646 4.08001 40.1339 3.66516C40.3419 3.87244 40.4596 4.15347 40.4615 4.44712C40.5157 4.37117 40.574 4.29826 40.6362 4.2287C40.7791 3.99053 40.9573 3.77547 41.1648 3.5909C41.1316 3.85494 41.1464 4.12282 41.2085 4.3816C41.2948 4.34706 41.3205 4.29168 41.3529 4.22168C41.3698 4.18542 41.3884 4.14524 41.4182 4.10201C41.973 3.55751 42.5563 3.04277 43.1656 2.55993C43.1656 2.59554 43.1652 2.63023 43.1648 2.66406C43.1622 2.875 43.1601 3.05277 43.2617 3.21084C43.4208 3.14013 43.5885 2.97001 43.7734 2.78238C44.0455 2.50629 44.355 2.19227 44.7295 2.10123C44.7295 2.15206 44.7111 2.21969 44.6912 2.29281C44.646 2.45851 44.5931 2.65248 44.7295 2.74341C44.7891 2.78309 44.8125 2.80755 44.8208 2.81971C44.8209 2.82566 44.8232 2.82893 44.8242 2.82908C44.8253 2.82924 44.8253 2.82626 44.8208 2.81971C44.8206 2.80622 44.8313 2.77901 44.8912 2.74341C44.9734 2.69277 45.0447 2.626 45.1187 2.5567C45.3 2.38682 45.4976 2.20171 45.9134 2.20171C45.8777 2.22712 45.8479 2.2599 45.826 2.29782C45.6425 2.54682 45.328 3.01425 45.4896 3.32879C45.5867 3.27795 45.6654 3.21366 45.7472 3.14692C45.8199 3.08749 45.8951 3.02612 45.9877 2.97057C46.6095 2.64416 47.3038 2.48035 48.0059 2.4944C47.9369 2.62768 47.8326 2.73948 47.7045 2.81767C47.6672 2.83631 47.6419 2.84699 47.6193 2.85651C47.5889 2.86931 47.5636 2.87999 47.521 2.90504L47.3463 3.00552C47.923 3.04268 48.502 2.99111 49.0631 2.85262C48.9975 3.08675 48.8956 3.13516 48.7882 3.18617C48.6952 3.23034 48.5981 3.27645 48.517 3.44674C49.02 3.45475 49.5185 3.54324 49.9936 3.70885L50.3649 3.8399C50.2399 3.87462 50.1061 3.89036 49.9773 3.9055C49.7011 3.93797 49.4481 3.96771 49.3558 4.17628C49.4561 4.21049 49.6494 4.22922 49.8498 4.24864C50.0331 4.26641 50.2224 4.28476 50.3518 4.31607C50.9836 4.44242 51.412 4.79489 51.8684 5.17034C52.0432 5.31413 52.2221 5.46129 52.4181 5.60041C52.1932 5.8673 52.0712 5.89952 51.9603 5.92881C51.9096 5.94219 51.8613 5.95496 51.8065 5.98921C51.9985 6.24157 52.2112 6.22007 52.4262 6.19833C52.5536 6.18544 52.6817 6.17248 52.8069 6.21637C52.7972 6.23845 52.7894 6.25651 52.7831 6.27127C52.7628 6.31847 52.7571 6.33187 52.748 6.33478C52.7444 6.33594 52.7402 6.33545 52.7345 6.33477C52.7143 6.33238 52.6741 6.32764 52.5666 6.38237C52.4713 6.43092 52.4399 6.43543 52.4299 6.43686C52.4274 6.43723 52.4262 6.43739 52.4258 6.43804C52.4254 6.43858 52.4255 6.43944 52.4256 6.44101C52.4264 6.44888 52.4288 6.47454 52.3831 6.56585L52.6016 6.65322C53.009 6.75986 53.3708 6.99596 53.6325 7.32597L53.6794 7.38353C53.8995 7.65426 54.345 8.2025 54.5761 8.23899C54.2132 8.22424 53.8514 8.18777 53.4927 8.12978C53.6424 8.31479 53.89 8.41177 54.14 8.50967C54.4154 8.6175 54.6936 8.72646 54.847 8.95542L54.2966 8.91174C54.2966 9.00443 54.2966 9.028 54.3061 9.04665C54.3094 9.05301 54.3138 9.05879 54.3196 9.06656C54.3306 9.08109 54.3469 9.10255 54.3708 9.14764C54.3997 9.20201 54.4061 9.21409 54.407 9.21368C54.4073 9.21357 54.4071 9.21244 54.4069 9.21098C54.4058 9.20443 54.4036 9.19132 54.4363 9.23501C54.6927 9.5741 55.2153 10.0815 55.7104 10.5623C56.2614 11.0972 56.7783 11.5991 56.8565 11.7993L54.9256 10.2267C55.0203 10.5898 55.1674 10.9371 55.3625 11.2576C54.8387 11.0436 54.5928 10.776 54.3038 10.4614C54.1975 10.3457 54.0854 10.2236 53.9514 10.0956C54.0257 10.6591 54.9256 11.7338 55.3494 12.1881C55.87 12.6794 56.3305 13.2308 56.7211 13.8307H56.59L56.4022 13.8962C56.4491 13.9513 56.4713 14.016 56.4971 14.0915C56.5266 14.1776 56.561 14.2779 56.6424 14.3942C56.9693 14.7983 57.2698 15.2229 57.5424 15.6655C57.2732 15.5236 57.016 15.3599 56.7735 15.1762C56.5481 14.9981 56.3085 14.8388 56.0571 14.7C56.1116 14.8761 56.1958 15.0415 56.3061 15.1893C56.4313 15.3663 56.5231 15.5647 56.5769 15.7747C56.5274 15.7409 56.5115 15.7327 56.4976 15.7254C56.4845 15.7186 56.4731 15.7127 56.4371 15.6873L56.0003 15.2854C55.82 15.1189 55.5859 15.0227 55.3406 15.0145C55.5546 15.3347 55.7865 15.6424 56.0352 15.9363C56.4532 16.509 56.5609 16.9282 56.6768 17.3794C56.7475 17.6545 56.8212 17.9414 56.9701 18.2822C57.0665 18.4976 57.1842 18.7247 57.2937 18.9359C57.3329 19.0116 57.3712 19.0856 57.4069 19.1559V19.3306C57.1951 19.3306 57.1842 19.2942 57.1649 19.2298C57.1507 19.1827 57.1321 19.1205 57.0269 19.0467C56.9512 19.4502 57.0823 19.679 57.2293 19.9356C57.337 20.1235 57.4532 20.3264 57.503 20.6237C56.9371 20.4663 56.7667 20.1803 56.5393 19.7987C56.5017 19.7355 56.4625 19.6697 56.4196 19.6015C56.2232 19.9183 56.6107 20.5319 56.9823 21.1203C57.2717 21.5785 57.5514 22.0214 57.538 22.2968C57.4317 22.1903 57.3013 22.1109 57.1579 22.0653C57.3216 22.4907 57.3816 22.9489 57.3327 23.4021L57.2671 23.804C57.1159 23.5956 57.1198 23.2708 57.1237 22.9491C57.1248 22.8527 57.126 22.7564 57.123 22.6638C57.0599 22.8996 57.0103 23.1388 56.9744 23.3802C56.9415 23.4899 56.8921 23.6073 56.8438 23.7219C56.796 23.8355 56.7493 23.9464 56.7211 24.0442L56.5289 23.271L56.4415 23.4458C56.2998 23.9093 56.2479 24.3956 56.2886 24.8786C56.1934 24.8077 56.1959 24.7697 56.1976 24.7432C56.1996 24.7126 56.2006 24.6974 56.0483 24.6646C56.0388 25.0528 55.9543 25.4355 55.7993 25.7917C55.692 26.1652 55.6132 26.5464 55.5634 26.9318C55.433 26.7851 55.4364 26.6407 55.4411 26.4461C55.4427 26.38 55.4444 26.3082 55.4411 26.2285C55.2731 26.2587 55.1051 26.4543 54.9829 26.5967C54.9461 26.6395 54.9135 26.6774 54.8863 26.7047C54.8296 26.7614 54.7548 26.819 54.6686 26.8855C54.5754 26.9573 54.4689 27.0394 54.3577 27.1415C54.0252 27.492 53.7601 27.9007 53.5757 28.3472C53.5757 28.1851 53.6375 27.9773 53.7021 27.7598C53.7489 27.6024 53.7972 27.4398 53.8248 27.2857C53.8947 26.8834 53.9196 26.4746 53.899 26.0669C53.8998 25.2729 53.856 24.4795 53.768 23.6904C53.711 24.3405 53.5111 24.97 53.1826 25.5339C53.1239 25.3415 53.1006 24.761 53.0793 24.2329C53.061 23.7779 53.0442 23.3617 53.0078 23.2667C52.9377 23.2667 52.9192 23.2667 52.9091 23.2759C52.9054 23.2792 52.9029 23.2836 52.8994 23.2897C52.8921 23.3026 52.8807 23.3227 52.8462 23.354C52.7955 23.4001 52.7983 23.4037 52.8013 23.4076C52.8041 23.4112 52.8071 23.415 52.7719 23.4501C52.7598 23.4623 52.7516 23.472 52.7464 23.4797C52.733 23.3149 52.7097 23.1474 52.6863 22.9788C52.6217 22.5137 52.5559 22.0402 52.6933 21.5935C52.9128 21.0385 53.0053 20.4415 52.9642 19.8461C52.9148 19.9132 52.8695 19.9861 52.824 20.0593C52.7123 20.239 52.5994 20.4208 52.4225 20.5232C52.4507 20.1072 52.4507 19.6898 52.4225 19.2738C52.3385 19.0128 52.2843 18.7432 52.2608 18.47L52.3482 18.221L52.7501 19.0641C52.8416 18.9802 52.9055 18.8706 52.9336 18.7496C53.0865 18.0244 52.6933 15.0801 52.4574 14.4204C52.3752 14.2223 52.2803 14.0297 52.1735 13.8438C52.1361 13.7816 52.0922 13.7149 52.0494 13.6502C52.0322 13.624 52.0151 13.5981 51.9987 13.5729C51.9413 13.4832 51.931 13.4428 51.9256 13.4213C51.9235 13.4133 51.9222 13.4079 51.9192 13.4035C51.9132 13.3944 51.9006 13.3897 51.862 13.3754C51.8475 13.3701 51.8293 13.3633 51.8065 13.3545C51.789 13.5605 51.8154 13.8818 51.8395 14.1747C51.8634 14.4657 51.8851 14.7287 51.8589 14.8223C51.6099 14.7219 51.3609 13.5729 51.2954 13.2147C51.2805 13.142 51.266 13.0657 51.2511 12.9871C51.1567 12.4895 51.0452 11.9022 50.7056 11.5853C50.7795 11.9015 50.7987 12.228 50.7624 12.5507C50.717 12.4071 50.6768 12.2651 50.6375 12.1264C50.4687 11.5307 50.3171 10.9958 49.8494 10.6591C49.2809 10.2671 48.6768 9.92929 48.0452 9.65002L48.1544 9.80291C48.3625 10.0543 48.5968 10.2828 48.8534 10.4844C49.1955 10.7042 49.4789 11.0041 49.679 11.3581C49.5332 11.3216 49.4039 11.2369 49.3121 11.1178L48.8316 10.681C48.5875 10.4437 48.3055 10.2488 47.9972 10.1043C47.6335 9.96012 47.3838 9.7979 47.1285 9.63204C46.8502 9.45123 46.5653 9.2661 46.1187 9.09522V9.07774ZM52.7464 23.4797C52.7336 23.4987 52.7392 23.5051 52.7484 23.5055L52.7464 23.4797ZM52.7597 23.5036C52.7547 23.5121 52.7501 23.5227 52.7501 23.5288L52.7484 23.5055C52.752 23.5056 52.756 23.5049 52.7597 23.5036ZM52.7719 23.4938C52.7719 23.4867 52.7656 23.4937 52.7597 23.5036C52.7663 23.5014 52.7719 23.4974 52.7719 23.4938ZM35.7073 3.03939C35.7014 3.02816 35.6979 3.03266 35.6947 3.03767L35.7073 3.03939ZM35.6823 3.0361C35.6877 3.04854 35.6913 3.04287 35.6947 3.03767L35.6823 3.0361ZM29.9085 23.3369C29.9076 23.3547 29.9072 23.372 29.9072 23.389C29.9072 23.3811 29.9032 23.371 29.8996 23.3617C29.8931 23.3451 29.8876 23.3309 29.9072 23.3365L29.9085 23.3369ZM30.532 23.4894C30.5331 23.4919 30.5374 23.4971 30.5417 23.4977C30.5331 23.4871 30.5309 23.4869 30.532 23.4894ZM42.2509 9.33225C42.254 9.33424 42.2516 9.32815 42.2344 9.30799C42.2393 9.32019 42.2479 9.33026 42.2509 9.33225ZM26.5466 35.1234C26.0492 35.2379 25.5358 35.3343 25.0238 35.4305C24.4195 35.5439 23.8172 35.657 23.2457 35.799C23.7991 35.6639 24.3816 35.5542 24.9666 35.4441C25.4976 35.3441 26.031 35.2436 26.5466 35.1234ZM20.9661 36.6538C20.9567 36.6563 20.9475 36.6585 20.9386 36.6605L20.9998 36.5513C21.1589 36.3681 21.3427 36.2078 21.5459 36.0751C20.4885 36.2733 19.4152 36.3742 18.3394 36.3766C8.78546 36.3678 1.09689 28.4827 1.16241 18.7846C1.22794 9.06902 9.02573 1.1926 18.5709 1.20571C20.8578 1.21033 23.1201 1.67708 25.2221 2.57792C27.2962 3.46683 29.1719 4.76031 30.7398 6.38243C30.5501 6.6652 30.3881 6.96653 30.2567 7.28229C30.3988 7.2447 30.4774 7.18206 30.553 7.12179C30.6796 7.02094 30.7978 6.92674 31.1915 6.96775C31.0521 7.08913 30.9041 7.14954 30.7615 7.20771C30.5244 7.30447 30.3024 7.39504 30.1606 7.74972H30.1911C30.2083 7.79197 30.2151 7.80868 30.2226 7.80902C30.2275 7.80923 30.2327 7.80244 30.2414 7.79122C30.2632 7.76282 30.3069 7.70603 30.4227 7.66235C30.3906 7.77991 30.3167 7.90479 30.2342 8.04416C30.1482 8.18963 30.0527 8.35087 29.9858 8.53605C29.9377 8.68747 29.8747 8.83379 29.798 8.9729C29.7523 9.06191 29.7102 9.1223 29.6699 9.18024C29.633 9.2332 29.5975 9.28411 29.5621 9.35296C29.834 9.32576 29.9976 9.18854 30.1793 9.03612C30.2895 8.94368 30.4064 8.84566 30.5581 8.76321C30.3548 9.21458 29.9272 9.62431 29.5127 10.0215C29.0366 10.4777 28.5779 10.9172 28.4962 11.3843C28.6169 11.3397 28.7036 11.2723 28.7944 11.2017C28.9171 11.1063 29.0471 11.0052 29.2781 10.9475C29.0173 11.475 28.7882 12.0177 28.5923 12.5725C28.5794 12.6192 28.5657 12.6657 28.5512 12.7118C26.6976 13.2289 25.5931 15.2041 26.8889 17.2861C27.6054 17.8759 28.2563 18.1249 28.8111 17.9938C28.7974 17.8725 28.7635 17.7544 28.7106 17.6443C28.6907 17.5945 28.658 17.4944 28.6221 17.3845C28.5667 17.2146 28.5034 17.0208 28.4671 16.951L28.4699 16.9454C28.5051 17.0049 28.572 17.2099 28.6304 17.3887C28.6663 17.4987 28.699 17.5988 28.7189 17.6488C28.9408 18.1766 28.7786 18.5913 28.5982 19.0527C28.5367 19.21 28.4731 19.3728 28.4218 19.5474C27.8513 19.6362 27.3187 19.8886 26.8887 20.2742C25.4161 22.592 26.9242 24.7795 29.138 24.9732C29.1809 25.7284 29.2717 26.591 29.4529 26.9668C29.4723 27.0105 29.4773 27.029 29.4797 27.0379C29.4809 27.0421 29.4814 27.0441 29.4826 27.0456C29.4838 27.0471 29.4855 27.0481 29.4889 27.0501C29.4948 27.0534 29.5057 27.0596 29.5271 27.076C29.5194 26.8387 29.5385 26.6013 29.5839 26.3683C29.6074 26.1856 29.6815 26.0131 29.798 25.8703C29.8266 26.3568 29.9229 26.8079 30.0187 27.2564C30.1129 27.6979 30.2066 28.1369 30.2348 28.605C30.2845 28.5359 30.3277 28.4422 30.3704 28.3499C30.414 28.2554 30.4571 28.1623 30.5057 28.0982L30.508 28.1004C30.5254 28.116 30.534 28.1237 30.5404 28.1329C30.5467 28.142 30.5509 28.1526 30.5593 28.1736C30.5625 28.1817 30.5664 28.1913 30.5712 28.2031L30.8551 29.1598H31.4099C31.3226 29.5398 30.3003 30.7674 29.9203 31.1562C29.8171 31.3118 29.7265 31.4754 29.6494 31.6455C29.6327 31.6999 29.6076 31.7515 29.5752 31.7984C29.4343 32.0583 29.2373 32.2836 28.9985 32.458C28.1301 33.0316 27.1939 33.4953 26.2114 33.8384C25.7629 34.0726 25.2934 34.2642 24.8091 34.4107C24.6937 34.454 24.5745 34.5068 24.4565 34.5591C24.3959 34.5859 24.3354 34.6127 24.2762 34.6379C24.2804 34.6551 24.2804 34.6731 24.2762 34.6903C23.9485 34.7995 23.4942 34.9961 23.0923 35.1796C22.8844 35.2686 22.6817 35.3693 22.4851 35.481C22.2079 35.6364 21.9396 35.807 21.6813 35.9921C21.4386 36.1463 21.2181 36.333 21.026 36.5469L20.9661 36.6538ZM29.1368 24.9518C29.1114 24.4951 29.1034 24.0799 29.1034 23.8389C29.1002 23.8389 29.0954 23.8435 29.0904 23.8493C29.0905 24.0925 29.0916 24.506 29.1341 24.9485L29.1368 24.9518ZM29.016 23.9225V23.5113L29.0031 23.5049V23.9394L29.016 23.9225ZM28.6374 23.3218C28.6398 23.3191 28.6421 23.3168 28.6443 23.3147H28.623L28.6374 23.3218ZM28.6701 23.301C28.6782 23.3002 28.6849 23.3031 28.691 23.3057C28.7063 23.3122 28.7175 23.3169 28.7364 23.2579C28.7364 23.2361 28.767 23.2361 28.767 23.2361C28.7366 23.1849 28.7173 23.1582 28.7046 23.1406C28.6958 23.1284 28.6902 23.1205 28.6861 23.112C28.679 23.0967 28.6769 23.0791 28.6713 23.0303C28.6682 23.0043 28.6642 22.9695 28.6578 22.9215C28.8238 22.9871 29.0073 23.0526 29.0946 23.0089C29.1449 22.9838 29.159 22.9659 29.1786 22.9411C29.193 22.9227 29.2104 22.9007 29.2475 22.8691C29.3039 22.8287 29.3657 22.7963 29.431 22.773L28.8325 22.0435L28.9136 21.4952L28.8327 21.991C28.5774 21.9732 28.3306 21.8924 28.1141 21.756C27.8976 21.6195 27.7183 21.4317 27.592 21.2091C27.6264 22.3814 28.0659 23.0303 28.6701 23.301ZM29.0417 20.6283C29.0266 20.6608 29.0137 20.6943 29.0031 20.7285C28.9708 20.8646 28.9532 21.0037 28.9506 21.1436C28.9456 21.1381 28.9413 21.1335 28.9375 21.1296C28.9404 20.9915 28.9579 20.8542 28.9898 20.7198C29.005 20.6708 29.0249 20.6234 29.0491 20.5782L29.0417 20.6283ZM29.0491 20.5782L29.0553 20.5363V20.5669L29.0491 20.5782ZM28.9594 19.6273C28.9751 19.5807 28.9907 19.5352 29.0058 19.4912C29.0318 19.4151 29.0564 19.3436 29.0772 19.2782C28.8125 19.3524 28.6838 19.5841 28.5606 19.8057C28.517 19.884 28.4742 19.9611 28.4263 20.0296L28.3313 20.1511C28.331 20.1558 28.3306 20.1604 28.3303 20.165L28.4395 20.0252C28.4875 19.9564 28.5295 19.8815 28.5722 19.8055C28.6189 19.7223 28.6664 19.6377 28.7235 19.5578C28.787 19.5578 28.8435 19.5808 28.9032 19.6052C28.9215 19.6127 28.9402 19.6203 28.9594 19.6273ZM28.2692 17.313C28.2613 17.2225 28.2579 17.1328 28.2584 17.0437C28.2576 17.1463 28.2598 17.249 28.265 17.3517V17.3211L28.2692 17.313ZM28.2589 17.0031C28.2661 16.606 28.3469 16.2205 28.4291 15.8281C28.5186 15.4012 28.6097 14.9661 28.6097 14.4991C28.5682 14.5376 28.5288 14.5785 28.4918 14.6214C28.4595 14.6499 28.4454 14.6635 28.4332 14.6752C28.4175 14.6904 28.4052 14.7023 28.3607 14.7393C28.3607 14.351 28.4856 14.0676 28.6165 13.7705C28.6799 13.6265 28.7448 13.4792 28.7976 13.3152C28.807 13.2776 28.8174 13.2424 28.8273 13.209C28.8634 13.087 28.8927 12.988 28.8413 12.8783L28.8049 12.8985C28.8465 13.002 28.8184 13.0972 28.784 13.2133C28.7741 13.2467 28.7637 13.282 28.7543 13.3195C28.5664 13.7022 28.4284 14.1074 28.3437 14.5252L28.3655 14.5165C28.1244 14.758 27.9362 15.0469 27.8129 15.3651C27.6896 15.6832 27.6338 16.0235 27.6491 16.3644C27.8406 16.0569 28.1208 15.8147 28.4529 15.6698C28.331 16.1045 28.2659 16.5526 28.2589 17.0031ZM28.3983 13.1212C28.4224 13.066 28.4451 13.0103 28.4667 12.9542C28.4299 13.0142 28.3918 13.0734 28.3524 13.1317C28.3679 13.129 28.3833 13.1255 28.3983 13.1212ZM31.5157 5.49827C31.6045 5.42407 31.6902 5.35074 31.7682 5.27277C31.6367 5.27277 31.5606 5.31551 31.478 5.36193C31.4363 5.38536 31.3929 5.40972 31.3399 5.43C31.3271 5.46409 31.3169 5.49916 31.3095 5.5349C31.369 5.51849 31.4251 5.49189 31.4755 5.45627L31.5157 5.49827ZM66.2313 10.1131C69.084 10.1131 70.9537 11.5023 70.9537 17.9414C70.9537 24.3064 69.084 25.6737 66.2313 25.6737C63.3787 25.6737 61.5046 24.3064 61.5046 17.9414C61.5046 11.5023 63.3743 10.1131 66.2313 10.1131ZM44.4171 11.5067C44.4528 11.2746 44.3858 11.1762 44.3042 11.0561C44.2791 11.0191 44.2525 10.98 44.2271 10.9344C44.5066 10.9846 44.7727 11.0917 45.0091 11.2489C45.0393 11.1885 45.0491 11.1494 45.0581 11.1133C45.0687 11.0711 45.0783 11.0329 45.1183 10.9693C45.2621 11.0805 45.3965 11.2032 45.5202 11.3363C45.5697 11.207 45.5569 11.1764 45.5297 11.1116C45.5137 11.0734 45.4927 11.0234 45.4765 10.9344C45.7355 11.0041 45.9786 11.1227 46.193 11.2838L46.2148 11.0742C46.1935 11.0336 46.1759 10.9912 46.1624 10.9475C46.6822 10.9911 47.3026 11.1834 47.4424 11.6202C47.477 11.5669 47.4824 11.5168 47.4883 11.4621C47.492 11.4271 47.496 11.3902 47.5079 11.3494C47.9081 11.3744 47.9459 11.4432 48.0707 11.6707C48.0985 11.7213 48.1306 11.7798 48.1719 11.8474C48.2282 11.9355 48.3077 12.0285 48.3841 12.1176C48.4856 12.2362 48.5813 12.348 48.6088 12.4328C48.1764 12.4652 47.8156 12.3007 47.4366 12.1279C47.0497 11.9516 46.6438 11.7665 46.1231 11.7731C45.8883 11.7731 45.6951 11.8514 45.488 11.9353C45.3097 12.0075 45.1212 12.0839 44.8868 12.1182C44.5376 12.1361 44.1909 12.1873 43.8515 12.2711C43.7519 12.308 43.7364 12.3215 43.728 12.3288C43.7269 12.3298 43.726 12.3306 43.7249 12.3314C43.7169 12.3374 43.7058 12.3393 43.6084 12.3554C43.5884 12.3587 43.5648 12.3626 43.5369 12.3672C43.5609 12.289 43.5819 12.2376 43.5979 12.1986C43.6256 12.1308 43.6381 12.1002 43.6243 12.0309C43.3784 11.903 43.0731 12.157 42.7309 12.4417C42.465 12.663 42.1768 12.9027 41.8769 12.9963C41.8029 13.0217 41.7158 13.0594 41.622 13.0999C41.3447 13.2199 41.0089 13.3652 40.7804 13.2934C40.5122 13.2091 40.4624 12.9534 40.4189 12.7297C40.4128 12.6984 40.4068 12.6676 40.4003 12.6381L40.3654 12.4983C40.3517 12.4532 40.3342 12.4093 40.313 12.3672C40.2824 12.3906 40.2718 12.3947 40.2644 12.3976C40.2539 12.4017 40.25 12.4032 40.2038 12.4546L40.1076 12.7036C40.029 13.2147 40.0072 13.4768 40.4528 13.7258C40.7435 13.8886 40.7618 14.1022 40.7826 14.3448C40.8009 14.5579 40.821 14.7933 41.0294 15.0364C41.0982 15.1166 41.1677 15.2047 41.2391 15.2951C41.6303 15.7907 42.0786 16.3586 42.7768 16.111C43.1193 15.9912 42.965 15.7907 42.8508 15.6424C42.8194 15.6015 42.791 15.5646 42.7768 15.5344C42.9105 15.3625 42.9674 15.3509 43.1547 15.3128C43.1817 15.3073 43.2113 15.3013 43.2442 15.2941L43.2879 15.3728C43.4627 15.731 43.6592 15.8096 44.0917 15.7616C44.4323 15.7593 44.7649 15.6576 45.0484 15.4689C44.9657 15.4399 44.9066 15.4325 44.8611 15.4269C44.7695 15.4155 44.7326 15.4109 44.6684 15.2504C44.8028 15.068 44.949 15.0966 45.155 15.137C45.2301 15.1517 45.3132 15.168 45.4066 15.1762C45.6616 15.1806 45.9158 15.2054 46.1668 15.2504C46.1233 15.3608 45.9928 15.3662 45.8419 15.3725C45.7957 15.3744 45.7475 15.3764 45.6993 15.3815C45.9383 15.5932 46.9056 15.474 47.5797 15.391C47.7681 15.3678 47.9337 15.3474 48.054 15.3378C47.9487 15.3047 47.8442 15.288 47.7387 15.2713C47.6079 15.2505 47.4754 15.2294 47.3375 15.1762C47.1293 15.0827 46.9108 15.0138 46.6866 14.9709C46.2616 14.851 45.8443 14.7051 45.4372 14.534C44.2938 14.2585 43.7846 14.4261 43.3278 14.5765C43.0603 14.6646 42.8107 14.7467 42.4623 14.7306C42.3789 14.3016 42.7012 14.18 43.1888 13.9962C43.3913 13.9198 43.6223 13.8327 43.8646 13.7084C44.1213 13.579 44.3817 13.4758 44.6394 13.3737C44.9386 13.2552 45.2342 13.1381 45.5159 12.9832C46.2005 12.575 46.4003 12.6492 46.8166 12.804C46.9661 12.8595 47.1435 12.9255 47.3812 12.9832C47.5492 13.0242 47.7412 13.0267 47.9235 13.0291C48.1298 13.0318 48.3236 13.0344 48.4559 13.0924C48.6042 13.1555 48.6847 13.2239 48.7567 13.2852C48.8693 13.3809 48.9614 13.4591 49.2597 13.4725C49.3614 14.4342 49.5847 14.6802 49.8415 14.9631C50.0256 15.1659 50.2269 15.3877 50.413 15.9057C50.5289 16.4002 50.6193 16.9003 50.6838 17.4041C50.8715 17.8892 50.9021 18.421 50.7712 18.9244C50.6587 19.3447 50.4458 19.7315 50.1508 20.0514C49.9692 20.1699 49.8083 20.3175 49.6747 20.4883C49.2531 21.0842 48.9819 21.2802 48.7697 21.4336C48.6256 21.5377 48.5087 21.6222 48.3903 21.7988C47.9535 22.4628 48.3903 24.0049 49.2072 22.6157C49.4795 22.0863 49.8825 21.6352 50.378 21.3052C50.4373 21.2561 50.4955 21.1993 50.5542 21.1419C50.7204 20.9795 50.8913 20.8125 51.1075 20.8028C51.088 21.0477 50.9874 21.3187 50.8897 21.5818C50.8131 21.7881 50.7383 21.9897 50.7056 22.1702C50.6302 22.5563 50.6179 22.8875 50.6064 23.1962C50.5834 23.8165 50.5637 24.3461 50.0416 25.049C49.7735 25.3569 49.4429 25.6041 49.0718 25.7742C48.7263 26.0422 48.3596 26.2818 47.9753 26.4906C47.7548 26.556 47.5456 26.6547 47.355 26.7833C47.215 26.9283 47.058 27.0559 46.8876 27.1634C46.2367 27.4429 46.0838 27.041 45.9221 26.5867C45.8327 26.3867 45.6908 26.2146 45.5115 26.0887C45.4611 26.0442 45.4205 26.0031 45.3833 25.9656C45.282 25.8632 45.2068 25.7872 45.031 25.7392C45.031 25.6081 45.0457 25.5267 45.0601 25.4468C45.074 25.3696 45.0877 25.2937 45.0877 25.1757L44.9785 24.302C44.9196 23.9633 44.7685 23.6474 44.5417 23.389L44.3014 23.2798C44.257 23.2495 44.2005 23.1866 44.134 23.1126C44.0566 23.0264 43.9656 22.9252 43.8646 22.8429C43.7678 22.868 43.7357 22.9019 43.6839 22.9567C43.6725 22.9687 43.6602 22.9817 43.6461 22.9958C43.4959 22.7853 43.3077 22.6045 43.0913 22.4628C42.9795 22.4047 42.8908 22.3481 42.8129 22.2983C42.6567 22.1985 42.544 22.1265 42.3749 22.1265V22.3318C42.1682 22.1351 41.9509 21.9499 41.724 21.777C41.3282 21.5403 41.3239 21.5416 41.0615 21.6191C41.0139 21.6331 40.9579 21.6497 40.8896 21.6678C40.7146 21.4843 40.5936 21.256 40.5401 21.0081C40.7627 20.9859 41.0102 21.0169 41.2266 21.0441C41.435 21.0702 41.6145 21.0927 41.7153 21.0606C41.7895 20.5494 41.1605 20.1606 40.6406 20.2568C40.4959 20.2874 40.3532 20.3671 40.1985 20.4536C39.9562 20.5889 39.6846 20.7407 39.33 20.746C38.9547 20.746 38.702 20.5558 38.4761 20.3859C38.1763 20.1602 37.9239 19.9703 37.4953 20.3092C37.4156 20.3815 37.3439 20.462 37.2812 20.5494C36.9772 21.1575 37.8258 20.9055 38.008 20.8514C38.0274 20.8456 38.0392 20.8421 38.0413 20.8421C38.2809 20.8102 38.5244 20.8562 38.7359 20.9732C38.6822 21.0346 38.6437 21.1027 38.6055 21.1701C38.5567 21.2563 38.5086 21.3414 38.4301 21.41L38.0282 21.7988C37.9548 21.7016 37.9481 21.6747 37.9463 21.6673C37.9459 21.6658 37.9457 21.6651 37.9453 21.6648C37.9449 21.6645 37.9442 21.6645 37.9429 21.6645C37.9371 21.6646 37.9188 21.665 37.8535 21.6372C37.6703 21.7751 37.4743 21.8951 37.2681 21.9954C37.2635 21.9981 37.2582 21.9995 37.2528 21.9995C37.2475 21.9995 37.2422 21.9981 37.2375 21.9954L36.9973 22.0915C36.7541 22.1329 36.6977 22.185 36.6239 22.2533C36.5652 22.3077 36.4954 22.3723 36.3114 22.4497C36.2422 22.4818 36.1802 22.5025 36.1232 22.5216C35.9859 22.5676 35.8778 22.6037 35.7697 22.7643C35.4033 23.2977 35.3597 23.8339 35.3169 24.3616C35.2846 24.7588 35.2527 25.1512 35.0839 25.5339C34.7665 25.5339 34.6128 25.3218 34.462 25.1136C34.4053 25.0352 34.3489 24.9574 34.2844 24.8917C33.2453 23.8365 33.2914 23.4698 33.4599 22.1292C33.4735 22.0213 33.4878 21.9071 33.5025 21.7857C33.5309 21.8828 33.5439 21.9831 33.5565 22.0801C33.5903 22.3407 33.6209 22.5766 33.9393 22.6594C34.5902 22.2226 33.865 20.8858 33.5898 20.5276C33.3925 20.2556 33.167 20.0052 32.9171 19.7806C32.1781 19.038 32.5429 17.599 32.7566 16.7562C32.8056 16.5628 32.8467 16.4008 32.8647 16.2858L33.0481 13.6254C33.2899 13.5891 33.516 13.527 33.7361 13.4667C34.3112 13.3088 34.8453 13.1623 35.512 13.5161C35.6602 13.5929 35.789 13.6703 35.9138 13.7454C36.1017 13.8584 36.2806 13.966 36.5036 14.0578C36.6333 14.1112 36.7874 14.1364 36.9372 14.1608C37.2165 14.2064 37.4808 14.2496 37.5433 14.4685C37.3821 14.7693 36.8774 14.6406 36.3295 14.5008C35.883 14.3868 35.4077 14.2656 35.0664 14.3636C34.5008 14.5178 33.9627 14.7595 33.4719 15.0801L33.44 15.0991C33.2648 15.2035 33.1775 15.2556 33.1486 15.4907L33.8301 15.4689C33.8498 15.4397 33.865 15.4092 33.8804 15.3784C33.9574 15.2245 34.0369 15.0655 34.6776 15.0582C34.9484 15.613 35.1625 15.7266 35.8221 15.6261C36.1691 15.5795 36.2078 15.5193 36.2379 15.4725C36.2783 15.4096 36.3032 15.3708 37.0366 15.4208C37.0511 15.6871 37.0463 15.6907 37.0161 15.7136C37.0007 15.7252 36.9787 15.7419 36.9492 15.8009C36.6565 16.3557 37.6569 16.1897 37.8229 15.9101C37.7426 15.7334 37.7141 15.7423 37.6874 15.7507C37.6633 15.7583 37.6407 15.7655 37.5826 15.6349C37.6779 15.5677 37.7868 15.5224 37.9015 15.502C38.0163 15.4816 38.1341 15.4867 38.2467 15.5169L38.3428 15.7222V15.7659C38.9027 14.8158 38.7661 14.4344 38.6583 14.1332C38.5802 13.9152 38.5172 13.7393 38.7447 13.42C38.9063 13.1841 39.0374 12.4983 38.6791 12.3803C38.6282 12.4721 38.6069 12.5583 38.5886 12.6325C38.5443 12.8126 38.5173 12.9222 38.1243 12.8696C37.8489 12.7984 37.5616 12.7865 37.2812 12.8347C37.2389 12.7884 37.2083 12.7465 37.1814 12.7098C37.0893 12.5837 37.0415 12.5183 36.7133 12.542V12.7691C36.4974 12.7151 36.3444 12.5587 36.2016 12.4127C36.0556 12.2633 35.9203 12.1249 35.7391 12.1182C35.6078 12.1134 35.5839 12.1544 35.5631 12.1902C35.5271 12.252 35.5002 12.2982 34.9441 12.0658C34.4673 11.8685 34.1229 12.2126 33.7933 12.5418C33.5974 12.7374 33.4068 12.9279 33.1967 12.9963C33.188 12.7823 33.2056 12.5682 33.2491 12.3585C33.284 12.2274 33.3496 11.9872 33.4675 11.9216L33.6204 12.2143C33.8528 11.8612 33.8683 11.8501 33.9955 11.7588C34.0524 11.7179 34.1316 11.6611 34.2626 11.5503C34.3209 11.5922 34.3306 11.5992 34.3296 11.6041C34.3294 11.6051 34.3288 11.606 34.3281 11.6071C34.3237 11.6137 34.315 11.6268 34.3674 11.7032L34.433 11.7906C34.6797 11.5474 35.0015 11.395 35.346 11.3581C35.3298 11.4 35.3132 11.433 35.2985 11.462C35.2537 11.5506 35.2277 11.602 35.2935 11.76C35.5738 11.578 35.8656 11.4145 36.1673 11.2707L36.1978 11.7382C36.2761 11.7107 36.342 11.6607 36.4115 11.608C36.4856 11.5518 36.5638 11.4925 36.6653 11.4542V12.0614L36.9667 11.7163C37.0166 11.6753 37.0657 11.6402 37.113 11.6064C37.1816 11.5573 37.2462 11.5111 37.3031 11.4542C37.3225 11.5816 37.312 11.7117 37.2725 11.8343C37.2513 12.0308 37.2594 12.0495 37.2911 12.122C37.3052 12.1542 37.3239 12.1972 37.3467 12.2711C37.378 12.2357 37.3794 12.2271 37.3809 12.2184C37.3826 12.2087 37.3842 12.1989 37.4254 12.1532L37.7181 11.7163C37.7766 11.6578 37.7828 11.6402 37.7855 11.6328C37.786 11.6314 37.7864 11.6303 37.787 11.6294C37.7886 11.6271 37.7919 11.6258 37.8037 11.6213C37.8155 11.6168 37.8357 11.6091 37.871 11.594C37.9102 11.6861 37.9423 11.781 37.9671 11.878L38.12 12.127C38.1283 11.978 38.1578 11.8309 38.2073 11.6901C38.2846 11.7098 38.3203 11.7125 38.337 11.7138C38.3456 11.7145 38.3492 11.7148 38.3509 11.7167C38.3522 11.7182 38.3524 11.7205 38.3528 11.7245C38.3544 11.7402 38.3586 11.7815 38.4345 11.8954L38.6092 11.6027C38.6364 11.6753 38.6472 11.6925 38.6573 11.7088C38.6667 11.7239 38.6756 11.7382 38.6966 11.795C38.7185 11.8539 38.7185 11.8703 38.7185 11.8801C38.7185 11.89 38.7185 11.8932 38.7403 11.926L38.7709 12.0134C38.9135 11.8398 39.1031 11.7109 39.3169 11.6421C39.3539 11.8225 39.3418 12.0095 39.282 12.1838C39.4057 12.0922 39.5083 12.0063 39.6137 11.9181C39.6945 11.8505 39.777 11.7815 39.8717 11.7076L39.981 12.044C40.1045 11.8736 40.1283 11.8361 40.2429 11.6561L40.2518 11.6421C40.3749 11.713 40.4146 11.7635 40.4529 11.8122C40.4854 11.8535 40.5168 11.8934 40.5969 11.9435C40.6309 11.8754 40.6296 11.8604 40.6285 11.847C40.6274 11.8345 40.6264 11.8235 40.6537 11.7731V11.7163L40.7105 11.5853C40.7602 11.6531 40.8041 11.6975 40.8488 11.7428C40.8905 11.7849 40.9329 11.8278 40.9813 11.8911L41.1867 12.1532L41.2172 12.1838C41.1941 11.9327 41.1428 11.6851 41.0643 11.4455C41.1621 11.4975 41.253 11.5911 41.3421 11.6829C41.4401 11.7839 41.5359 11.8827 41.6366 11.9216C41.6366 11.7484 41.6008 11.6613 41.565 11.5741C41.5358 11.5031 41.5066 11.4321 41.4968 11.3144C41.672 11.3752 41.7875 11.4658 41.8872 11.544C41.9665 11.6062 42.0358 11.6606 42.1172 11.6857C42.1409 11.6312 42.1388 11.6127 42.1369 11.5953C42.1353 11.5806 42.1338 11.5668 42.1477 11.5328L42.2133 11.3581C42.2133 11.3581 42.2133 11.3931 42.2482 11.4018L42.2875 11.4761C42.3461 11.5731 42.4401 11.6436 42.5496 11.6726V11.2838C42.8496 11.3627 43.1419 11.468 43.4233 11.5984L43.3447 10.9999C43.7401 11.0732 44.1096 11.2479 44.4171 11.5067ZM38.2752 23.035C38.2775 23.0385 38.2794 23.0413 38.2818 23.0436C38.2913 23.0526 38.3094 23.0526 38.3996 23.0526C38.5429 23.0146 38.6788 22.9526 38.8015 22.8691C38.9292 22.7782 39.0155 22.6722 39.1015 22.5664C39.1685 22.4841 39.2353 22.402 39.3213 22.3274L39.3519 22.9783C39.7599 23.0493 39.9143 22.8465 40.0937 22.611C40.1352 22.5566 40.178 22.5004 40.2256 22.4454C40.3546 22.5065 40.4168 22.5923 40.4814 22.6814C40.5415 22.7642 40.6036 22.85 40.7236 22.9215C40.86 23.0029 41.02 23.0017 41.1813 23.0005C41.3145 22.9994 41.4486 22.9984 41.5711 23.0439C41.6434 23.0669 41.674 23.0938 41.7085 23.1241C41.7719 23.1798 41.8484 23.247 42.222 23.3234C42.4341 23.3668 42.5386 23.4037 42.5952 23.4237C42.6325 23.4368 42.6489 23.4426 42.6615 23.438C42.6714 23.4344 42.679 23.4244 42.6925 23.4066C42.7066 23.388 42.7272 23.3608 42.7637 23.3234L42.8205 23.271C43.1108 23.5621 43.4677 23.778 43.8602 23.9001C43.9025 23.9881 43.912 24.0387 43.92 24.0812C43.9327 24.1484 43.9414 24.1951 44.0699 24.3369C44.1642 24.4516 44.2407 24.5797 44.297 24.717C44.3773 25.0843 44.3921 25.4629 44.3407 25.8353C44.3407 25.9464 44.3453 26.0368 44.3491 26.114C44.3631 26.392 44.3685 26.4986 44.1223 26.7789L43.5806 27.4211L43.467 27.0847C43.2802 27.135 43.0492 27.3028 42.7911 27.4902C42.1074 27.9865 41.2341 28.6205 40.4921 27.574C40.2864 27.168 40.2472 26.6979 40.3829 26.2635C40.5191 26.2838 40.6053 26.3193 40.6859 26.3525C40.8302 26.4118 40.9561 26.4637 41.3177 26.4076C41.3625 26.1191 41.4432 25.8373 41.558 25.5689C41.5992 25.5171 41.6569 25.4735 41.714 25.4304C41.8691 25.3134 42.0203 25.1992 41.8288 24.9311C41.6515 24.855 41.4712 24.8966 41.2726 24.9423C41.1288 24.9755 40.9754 25.0108 40.8066 25.0053C40.4665 24.9311 40.1222 24.8771 39.7756 24.8437C39.558 24.8437 39.3723 24.8975 39.2069 24.9455C39.0669 24.986 38.9414 25.0224 38.8233 25.0184C38.6552 25.0184 38.5583 24.9607 38.4532 24.8981C38.3342 24.8273 38.2047 24.7502 37.9496 24.7432C37.9174 25.0117 38.0156 25.1647 38.1112 25.3138C38.1712 25.4072 38.2301 25.4991 38.2554 25.6169C38.2915 25.8078 38.2204 25.9596 38.1587 26.0913C38.0934 26.2307 38.0387 26.3476 38.1331 26.4644C38.2723 26.6368 38.5649 26.5224 38.8392 26.4152C38.9264 26.3812 39.0118 26.3478 39.0898 26.3246C39.2128 26.4538 39.2384 26.5202 39.2809 26.6305C39.2988 26.6769 39.3196 26.731 39.3519 26.8008C39.6017 27.3376 39.4654 27.4021 39.2192 27.5187C39.1468 27.5529 39.0649 27.5917 38.9806 27.6483C38.9224 27.6909 38.8626 27.749 38.8037 27.8062C38.7298 27.8779 38.6574 27.9482 38.5918 27.9846C38.3943 28.0573 38.1827 28.0833 37.9735 28.0606C37.7644 28.0379 37.5633 27.967 37.3861 27.8536C37.295 27.7761 37.1718 27.6263 37.0394 27.4652C36.918 27.3174 36.7888 27.1602 36.6696 27.041C36.608 26.9794 36.5455 26.9195 36.4848 26.8613C36.4078 26.7874 36.3337 26.7163 36.2677 26.6479C35.49 25.9024 35.6945 25.4287 35.8949 24.9644C35.9658 24.8001 36.0362 24.6371 36.0624 24.4636C36.089 24.2712 36.156 24.0866 36.259 23.9219C36.3685 23.7701 36.4961 23.6322 36.639 23.5113C36.8952 23.2988 37.0318 23.303 37.1757 23.3074C37.363 23.3132 37.5626 23.3193 38.0544 22.8473L38.2248 22.9871C38.2589 23.0103 38.2688 23.0253 38.2752 23.035Z" fill="black"/>
<path fill-rule="evenodd" clip-rule="evenodd" d="M117.95 34.5941C117.95 34.7558 117.876 34.8431 117.71 34.8431C117.677 34.8458 117.645 34.8404 117.615 34.8274C117.585 34.8145 117.559 34.7943 117.539 34.7689C117.513 34.7486 117.491 34.722 117.478 34.6915C117.464 34.661 117.458 34.6275 117.461 34.5941V33.7947L116.333 34.8038L116.268 34.8344C116.24 34.8464 116.211 34.8537 116.181 34.8562C116.148 34.8575 116.115 34.8519 116.084 34.8398C116.053 34.8277 116.025 34.8094 116.002 34.786C115.978 34.7627 115.96 34.7347 115.948 34.704C115.936 34.6732 115.93 34.6403 115.932 34.6072C115.933 34.5741 115.94 34.5415 115.953 34.5111C115.968 34.4795 115.99 34.4523 116.019 34.4325L116.779 33.751C116.708 33.742 116.638 33.7274 116.569 33.7073C116.451 33.6602 116.342 33.5938 116.246 33.5107C116.147 33.4337 116.069 33.3331 116.019 33.2181C115.957 33.1011 115.927 32.9701 115.932 32.838C115.928 32.7088 115.958 32.5809 116.019 32.4667C116.071 32.3504 116.149 32.2474 116.246 32.1652C116.343 32.0853 116.452 32.0218 116.569 31.9774C116.689 31.9373 116.814 31.9166 116.941 31.9162H117.71C117.742 31.915 117.775 31.921 117.805 31.9338C117.835 31.9467 117.862 31.966 117.884 31.9905C117.907 32.0133 117.925 32.0407 117.936 32.0708C117.947 32.101 117.952 32.1331 117.95 32.1652V34.5941ZM117.461 32.4099H116.941C116.874 32.4033 116.806 32.4138 116.744 32.4405C116.681 32.4588 116.622 32.4884 116.569 32.5278C116.521 32.5622 116.482 32.6083 116.456 32.6617C116.43 32.7152 116.418 32.7743 116.421 32.8336C116.42 32.8933 116.43 32.9527 116.451 33.0084C116.482 33.0618 116.522 33.1092 116.569 33.1482C116.625 33.1825 116.683 33.2117 116.744 33.2355C116.807 33.258 116.874 33.2683 116.941 33.2661H117.408C117.425 33.2615 117.443 33.2615 117.461 33.2661V32.4099Z" fill="black"/>
<path d="M115.919 32.1557V34.5941C115.919 34.6268 115.912 34.6591 115.899 34.6891C115.887 34.7192 115.868 34.7463 115.844 34.7689C115.823 34.7941 115.796 34.814 115.766 34.8269C115.735 34.8398 115.702 34.8454 115.669 34.8431C115.636 34.8468 115.603 34.8429 115.571 34.8315C115.54 34.8202 115.511 34.8018 115.488 34.7777C115.465 34.7537 115.448 34.7246 115.437 34.6928C115.427 34.6609 115.424 34.6272 115.429 34.5941V32.803L113.717 34.7601C113.693 34.785 113.667 34.807 113.638 34.8257C113.606 34.8474 113.568 34.8582 113.529 34.8562C113.495 34.8585 113.46 34.853 113.429 34.8401C113.397 34.8273 113.368 34.8074 113.345 34.782C113.323 34.7588 113.306 34.7314 113.295 34.7014C113.283 34.6713 113.278 34.6393 113.28 34.6072V32.1652C113.275 32.1322 113.278 32.0984 113.288 32.0666C113.298 32.0348 113.316 32.0057 113.339 31.9817C113.362 31.9576 113.39 31.9392 113.422 31.9279C113.453 31.9165 113.487 31.9125 113.52 31.9162C113.587 31.9149 113.651 31.9365 113.704 31.9774C113.726 32.0028 113.744 32.0325 113.755 32.0647C113.767 32.097 113.771 32.1312 113.769 32.1652V33.9651L115.486 32.0124C115.505 31.985 115.531 31.9626 115.56 31.9468C115.593 31.9272 115.631 31.9166 115.669 31.9162C115.702 31.914 115.735 31.9196 115.766 31.9325C115.796 31.9454 115.823 31.9653 115.844 31.9905C115.868 32.0127 115.887 32.0398 115.9 32.0699C115.912 32.0971 115.918 32.1263 115.919 32.1557Z" fill="black"/>
<path d="M112.987 34.5941C112.989 34.6262 112.984 34.6582 112.972 34.6883C112.961 34.7183 112.944 34.7457 112.922 34.7689C112.9 34.7934 112.873 34.8127 112.843 34.8256C112.812 34.8384 112.78 34.8444 112.747 34.8431C112.682 34.84 112.62 34.8127 112.574 34.7667C112.528 34.7207 112.501 34.6591 112.498 34.5941V33.6374H111.152V34.6247C111.154 34.6568 111.149 34.6888 111.138 34.7188C111.126 34.7489 111.109 34.7763 111.087 34.7995C111.065 34.8239 111.038 34.8433 111.008 34.8561C110.978 34.869 110.945 34.875 110.912 34.8737C110.878 34.876 110.844 34.8705 110.812 34.8576C110.78 34.8448 110.752 34.8249 110.729 34.7995C110.706 34.7763 110.689 34.7489 110.678 34.7188C110.667 34.6888 110.662 34.6568 110.663 34.6247V32.1652C110.661 32.1312 110.666 32.097 110.677 32.0647C110.688 32.0325 110.706 32.0028 110.729 31.9774C110.78 31.9355 110.846 31.9138 110.912 31.9162C110.945 31.9125 110.979 31.9165 111.01 31.9279C111.042 31.9392 111.07 31.9576 111.094 31.9817C111.117 32.0057 111.134 32.0348 111.144 32.0666C111.155 32.0984 111.157 32.1322 111.152 32.1652V33.1307H112.498V32.1652C112.494 32.1315 112.497 32.0973 112.508 32.0651C112.519 32.033 112.537 32.0038 112.561 31.9797C112.585 31.9557 112.615 31.9375 112.647 31.9265C112.679 31.9155 112.713 31.912 112.747 31.9162C112.811 31.9151 112.873 31.9368 112.922 31.9774C112.945 32.0028 112.962 32.0325 112.973 32.0647C112.985 32.097 112.989 32.1312 112.987 32.1652V34.5941Z" fill="black"/>
<path fill-rule="evenodd" clip-rule="evenodd" d="M109.859 32.554C109.818 32.5135 109.771 32.4796 109.72 32.4536C109.631 32.4024 109.528 32.3839 109.427 32.4011C109.401 32.3975 109.374 32.3975 109.348 32.4011H109.296L108.903 32.5977C108.871 32.5995 108.84 32.5945 108.81 32.5832C108.781 32.5719 108.754 32.5545 108.732 32.5322C108.708 32.5105 108.689 32.4833 108.678 32.4529C108.667 32.4225 108.663 32.3897 108.667 32.3575C108.662 32.3256 108.662 32.2932 108.667 32.2614C108.68 32.2614 108.69 32.2428 108.7 32.2232C108.707 32.2099 108.715 32.196 108.724 32.1871C108.815 32.0812 108.93 31.9989 109.06 31.9468C109.192 31.8991 109.33 31.874 109.471 31.8726C109.612 31.874 109.752 31.8991 109.886 31.9468C110.013 32.0031 110.127 32.0848 110.222 32.1871C110.325 32.2833 110.406 32.4012 110.458 32.5322C110.507 32.6608 110.533 32.7967 110.536 32.9341V34.5636C110.541 34.5965 110.537 34.6299 110.527 34.6613C110.516 34.6927 110.499 34.7214 110.476 34.7453C110.453 34.7691 110.425 34.7876 110.394 34.7992C110.363 34.8108 110.329 34.8154 110.296 34.8126C110.262 34.8148 110.228 34.8093 110.196 34.7965C110.164 34.7836 110.136 34.7637 110.113 34.7383C110.086 34.7098 110.067 34.6754 110.056 34.6378L109.951 34.7033C109.8 34.7729 109.637 34.8101 109.471 34.8126C109.333 34.8099 109.198 34.7848 109.069 34.7383C108.941 34.6785 108.824 34.5972 108.724 34.498C108.627 34.4005 108.549 34.2866 108.492 34.1617C108.441 34.0308 108.416 33.8914 108.418 33.751C108.415 33.6134 108.44 33.4765 108.492 33.3491C108.548 33.2201 108.627 33.1019 108.724 32.9996C108.827 32.9071 108.943 32.8305 109.069 32.7725C109.196 32.7183 109.333 32.6915 109.471 32.6938C109.636 32.6934 109.8 32.7276 109.951 32.7943C109.985 32.8077 110.018 32.8253 110.047 32.8467C110.026 32.7578 109.989 32.6734 109.938 32.5977L109.894 32.554H109.859ZM110.034 33.7816C110.033 33.632 109.975 33.4883 109.872 33.3797C109.817 33.3249 109.75 33.2831 109.676 33.2574C109.607 33.2262 109.533 33.2113 109.457 33.2137C109.382 33.2126 109.308 33.2275 109.239 33.2574C109.17 33.2846 109.107 33.3263 109.056 33.3797C109.006 33.4366 108.962 33.498 108.925 33.5632C108.898 33.6332 108.884 33.7069 108.881 33.7816C108.882 33.8568 108.898 33.931 108.928 33.9999C108.958 34.0689 109.001 34.1313 109.056 34.1835C109.111 34.234 109.172 34.2766 109.239 34.3102C109.309 34.336 109.383 34.3507 109.457 34.3539C109.532 34.3521 109.606 34.3373 109.676 34.3102C109.747 34.2779 109.814 34.2352 109.872 34.1835C109.924 34.1277 109.967 34.0643 109.999 33.9956C110.022 33.9266 110.034 33.8543 110.034 33.7816Z" fill="black"/>
<path d="M108.383 34.5941C108.385 34.6458 108.371 34.697 108.343 34.7405C108.315 34.784 108.275 34.8177 108.227 34.8369C108.179 34.8561 108.126 34.8599 108.075 34.8477C108.025 34.8355 107.98 34.808 107.946 34.7689C107.924 34.7457 107.906 34.7183 107.895 34.6883C107.884 34.6582 107.879 34.6262 107.88 34.5941V32.4099H106.854V34.5941C106.857 34.6281 106.853 34.6624 106.842 34.6945C106.83 34.7266 106.811 34.7557 106.787 34.7797C106.763 34.8036 106.733 34.8217 106.701 34.8327C106.669 34.8437 106.634 34.8473 106.6 34.8431C106.568 34.8441 106.536 34.8379 106.507 34.825C106.478 34.8122 106.451 34.793 106.43 34.7689C106.408 34.7457 106.391 34.7183 106.379 34.6883C106.368 34.6582 106.363 34.6262 106.365 34.5941V32.1652C106.363 32.1312 106.367 32.097 106.378 32.0647C106.39 32.0325 106.407 32.0028 106.43 31.9774C106.478 31.9374 106.538 31.9158 106.6 31.9162H108.143C108.175 31.915 108.208 31.921 108.238 31.9338C108.268 31.9467 108.295 31.966 108.317 31.9905C108.34 32.0133 108.358 32.0407 108.369 32.0708C108.38 32.101 108.385 32.1331 108.383 32.1652V34.5941Z" fill="black"/>
<path fill-rule="evenodd" clip-rule="evenodd" d="M103.053 33.3666C103.06 33.4538 103.06 33.5415 103.053 33.6287L103.425 32.1085C103.438 32.0526 103.469 32.0022 103.512 31.9643C103.552 31.9254 103.605 31.9035 103.66 31.9031C103.713 31.9044 103.764 31.9228 103.805 31.9556C103.844 31.9762 103.875 32.0103 103.892 32.0517L104.587 33.4976L105.281 32.0648C105.298 32.0234 105.329 31.9893 105.369 31.9687C105.407 31.9339 105.457 31.9151 105.508 31.9162C105.565 31.9176 105.619 31.9393 105.661 31.9774C105.701 32.0126 105.732 32.0578 105.749 32.1085L106.185 33.9563L106.24 34.1747L106.24 34.176C106.312 34.463 106.347 34.6017 106.347 34.616C106.345 34.6815 106.319 34.744 106.273 34.7907C106.225 34.8344 106.163 34.8579 106.098 34.8562C106.043 34.8542 105.99 34.836 105.945 34.8038C105.905 34.7687 105.875 34.7234 105.858 34.6728L105.421 32.8686L104.805 34.1529C104.788 34.1966 104.758 34.2335 104.718 34.2578C104.679 34.2943 104.629 34.3148 104.576 34.3148C104.523 34.3148 104.472 34.2943 104.434 34.2578C104.395 34.232 104.365 34.1956 104.346 34.1529L103.73 32.8686L103.294 34.6728C103.28 34.725 103.249 34.7712 103.206 34.8038C103.16 34.8418 103.102 34.8626 103.042 34.8626C102.983 34.8626 102.925 34.8418 102.879 34.8038C102.835 34.7563 102.811 34.6936 102.813 34.6291C102.813 34.6291 102.857 34.3932 102.966 33.9694L102.973 33.9425C102.969 33.9472 102.964 33.9518 102.957 33.9563C102.886 34.1364 102.779 34.3 102.643 34.4369C102.504 34.5734 102.341 34.683 102.162 34.7601C101.983 34.8311 101.792 34.8681 101.599 34.8694C101.406 34.8669 101.215 34.8299 101.035 34.7601C100.86 34.6838 100.701 34.574 100.568 34.4369C100.427 34.3018 100.316 34.1395 100.241 33.9599C100.166 33.7804 100.129 33.5874 100.131 33.3928C100.129 33.2024 100.166 33.0136 100.24 32.838C100.316 32.6618 100.422 32.5006 100.554 32.3618C100.696 32.2274 100.858 32.1167 101.035 32.0342C101.215 31.9659 101.406 31.9303 101.599 31.9293C101.791 31.9292 101.982 31.9647 102.162 32.0342C102.34 32.1146 102.503 32.2255 102.643 32.3618C102.919 32.6343 103.076 33.0049 103.079 33.3928L103.053 33.3666ZM102.573 33.3666C102.573 33.239 102.547 33.1128 102.497 32.9956C102.447 32.8784 102.373 32.7727 102.28 32.6851C102.191 32.5917 102.084 32.5174 101.965 32.4667C101.72 32.3794 101.451 32.3794 101.205 32.4667C101.088 32.5196 100.981 32.5936 100.891 32.6851C100.802 32.778 100.728 32.8841 100.672 32.9996C100.627 33.1166 100.605 33.2412 100.607 33.3666C100.605 33.4963 100.627 33.6252 100.672 33.7466C100.726 33.8634 100.8 33.9699 100.891 34.0612C100.979 34.1554 101.086 34.2298 101.205 34.2796C101.449 34.3787 101.722 34.3787 101.965 34.2796C102.086 34.232 102.193 34.1573 102.28 34.0612C102.375 33.9738 102.45 33.8664 102.498 33.7466C102.547 33.6258 102.572 33.4968 102.573 33.3666Z" fill="black"/>
<path d="M100.38 34.5941C100.384 34.6278 100.38 34.6621 100.369 34.6943C100.358 34.7264 100.34 34.7556 100.316 34.7796C100.292 34.8037 100.263 34.8219 100.231 34.8329C100.199 34.8439 100.164 34.8474 100.131 34.8431C100.1 34.8438 100.07 34.8363 100.043 34.8213C100.013 34.814 99.9862 34.7952 99.9691 34.7689L98.9556 33.7685V34.5941C98.958 34.6259 98.9538 34.6578 98.9432 34.6879C98.9327 34.7179 98.9161 34.7455 98.8944 34.7689C98.8732 34.7941 98.8463 34.814 98.8159 34.8269C98.7856 34.8398 98.7526 34.8454 98.7197 34.8431C98.6867 34.8457 98.6536 34.8403 98.6232 34.8274C98.5928 34.8145 98.5659 34.7944 98.5449 34.7689C98.5213 34.7463 98.5026 34.7192 98.4898 34.6891C98.4771 34.6591 98.4705 34.6268 98.4707 34.5941V32.1652C98.47 32.1306 98.4762 32.0961 98.489 32.0639C98.5017 32.0316 98.5208 32.0022 98.5449 31.9774C98.5929 31.9349 98.6557 31.913 98.7197 31.9162C98.7836 31.9134 98.8462 31.9353 98.8944 31.9774C98.9165 32.0032 98.9332 32.033 98.9437 32.0652C98.9542 32.0975 98.9582 32.1315 98.9556 32.1652V32.9909L99.9691 31.9905C99.9897 31.9707 100.015 31.9571 100.043 31.9512C100.072 31.9452 100.102 31.9452 100.131 31.9512C100.195 31.9484 100.257 31.9703 100.305 32.0124C100.331 32.036 100.351 32.0652 100.364 32.0977C100.377 32.1303 100.382 32.1653 100.38 32.2002C100.377 32.2642 100.35 32.3248 100.305 32.3706L99.2526 33.4146L100.305 34.4806C100.328 34.5011 100.346 34.526 100.359 34.5538C100.372 34.5816 100.379 34.6116 100.38 34.6422V34.5941Z" fill="black"/>
<path fill-rule="evenodd" clip-rule="evenodd" d="M94.1808 32.5977V32.5759C94.1409 32.535 94.0934 32.5024 94.041 32.4798C93.9501 32.4265 93.8431 32.4079 93.7396 32.4274C93.7107 32.4224 93.6811 32.4224 93.6522 32.4274H93.6216L93.2285 32.6239C93.1964 32.6255 93.1644 32.6205 93.1343 32.6092C93.1043 32.5979 93.0769 32.5806 93.0537 32.5584C93.0177 32.5245 92.9932 32.4801 92.9838 32.4315C92.9744 32.3828 92.9805 32.3325 93.0013 32.2876C93.0143 32.2599 93.032 32.2348 93.0537 32.2133C93.1466 32.1092 93.2615 32.0271 93.3901 31.973C93.53 31.9221 93.6781 31.8969 93.827 31.8988C93.9669 31.9014 94.1056 31.9265 94.2376 31.973C94.3662 32.0271 94.4811 32.1092 94.574 32.2133C94.6715 32.31 94.75 32.4241 94.8055 32.5497C94.8055 32.5295 94.8157 32.5108 94.826 32.4919C94.8335 32.478 94.8411 32.464 94.8448 32.4492C94.9049 32.3343 94.9865 32.232 95.0851 32.1478C95.1806 32.0707 95.2865 32.0075 95.3996 31.9599C95.5193 31.9198 95.6447 31.8992 95.7709 31.8988H96.5398C96.5728 31.8962 96.6059 31.9016 96.6363 31.9145C96.6667 31.9274 96.6935 31.9475 96.7145 31.973C96.7372 31.9959 96.7548 32.0232 96.7661 32.0534C96.7774 32.0835 96.7821 32.1157 96.7801 32.1478V34.5898C96.7801 34.7514 96.7058 34.8388 96.5398 34.8388C96.5069 34.841 96.4739 34.8355 96.4435 34.8225C96.4132 34.8096 96.3863 34.7898 96.3651 34.7645C96.323 34.7163 96.3011 34.6537 96.3039 34.5898V33.7947L95.1637 34.8038L95.0982 34.8344C95.0713 34.8488 95.0413 34.8563 95.0108 34.8562C94.9779 34.8588 94.9448 34.8535 94.9144 34.8405C94.8839 34.8276 94.8571 34.8075 94.8361 34.782C94.8111 34.8084 94.7804 34.8289 94.7463 34.8417C94.7123 34.8546 94.6758 34.8596 94.6395 34.8562C94.6067 34.8575 94.574 34.8515 94.5438 34.8387C94.5136 34.8258 94.4866 34.8065 94.4648 34.782C94.4395 34.7531 94.4215 34.7187 94.4123 34.6815L94.2944 34.747C94.1486 34.8175 93.9889 34.8548 93.827 34.8562C93.6897 34.8552 93.5537 34.83 93.4251 34.782C93.2939 34.7256 93.1752 34.644 93.0756 34.5417C92.9818 34.4429 92.905 34.3293 92.8484 34.2053C92.7977 34.0744 92.7725 33.9351 92.7741 33.7947C92.771 33.657 92.7963 33.5202 92.8484 33.3928C92.905 33.2649 92.9817 33.1469 93.0756 33.0433C93.1779 32.9478 93.2962 32.8709 93.4251 32.8162C93.5515 32.7604 93.6888 32.7336 93.827 32.7375C93.9883 32.7361 94.1479 32.7704 94.2944 32.838C94.3338 32.8482 94.3709 32.866 94.4036 32.8904C94.3827 32.8014 94.3457 32.717 94.2944 32.6414L94.1808 32.5977ZM96.234 33.2836V32.4099H95.701C95.634 32.4048 95.5668 32.4153 95.5045 32.4405C95.4425 32.4616 95.3838 32.491 95.3297 32.5278C95.2811 32.5674 95.2409 32.6164 95.2118 32.672C95.188 32.7225 95.176 32.7778 95.1768 32.8336C95.1757 32.8947 95.1907 32.955 95.2205 33.0084C95.2448 33.0633 95.2823 33.1113 95.3297 33.1482C95.3852 33.1825 95.4437 33.2117 95.5045 33.2355C95.5708 33.2569 95.6401 33.2673 95.7098 33.2661H96.1466C96.168 33.2599 96.1908 33.2599 96.2122 33.2661L96.234 33.2836ZM94.3337 33.7947C94.3334 33.6441 94.2738 33.4997 94.1677 33.3928C94.1136 33.3381 94.0479 33.2963 93.9755 33.2705C93.907 33.2393 93.8323 33.2244 93.7571 33.2268C93.6819 33.2253 93.6074 33.2402 93.5386 33.2705C93.468 33.2949 93.4049 33.337 93.3552 33.3928C93.3002 33.4451 93.2558 33.5074 93.2241 33.5763C93.1979 33.6463 93.1831 33.72 93.1804 33.7947C93.1788 33.8703 93.1936 33.9454 93.2238 34.0148C93.2539 34.0842 93.2988 34.1462 93.3552 34.1966C93.4086 34.249 93.4707 34.2919 93.5386 34.3233C93.6086 34.3495 93.6824 34.3643 93.7571 34.367C93.8318 34.3652 93.9058 34.3504 93.9755 34.3233C94.0456 34.2909 94.1104 34.2482 94.1677 34.1966C94.2222 34.1441 94.2641 34.0798 94.29 34.0088C94.32 33.9414 94.3349 33.8684 94.3337 33.7947ZM94.8186 33.2836V34.4019L95.535 33.751C95.4702 33.7401 95.406 33.7256 95.3428 33.7073C95.2221 33.6633 95.1109 33.5965 95.0152 33.5107C94.9326 33.4516 94.8653 33.3738 94.8186 33.2836Z" fill="black"/>
<path d="M92.6693 34.6072C92.6708 34.6393 92.6658 34.6713 92.6546 34.7014C92.6433 34.7314 92.626 34.7588 92.6038 34.782C92.5835 34.8072 92.5574 34.8271 92.5277 34.84C92.498 34.8529 92.4657 34.8585 92.4334 34.8562C92.4006 34.8575 92.3679 34.8515 92.3377 34.8387C92.3075 34.8258 92.2805 34.8065 92.2587 34.782C92.2364 34.7588 92.2192 34.7314 92.2079 34.7014C92.1966 34.6713 92.1916 34.6393 92.1931 34.6072V33.6374H90.8345V34.6247C90.8361 34.6568 90.8311 34.6888 90.8198 34.7188C90.8085 34.7489 90.7912 34.7763 90.769 34.7995C90.748 34.825 90.7212 34.8451 90.6907 34.858C90.6603 34.8709 90.6272 34.8763 90.5943 34.8737C90.562 34.876 90.5296 34.8704 90.5 34.8575C90.4703 34.8445 90.4442 34.8246 90.4239 34.7995C90.4017 34.7763 90.3844 34.7489 90.3731 34.7188C90.3618 34.6888 90.3568 34.6568 90.3584 34.6247V32.1652C90.3563 32.1312 90.361 32.097 90.3723 32.0647C90.3835 32.0325 90.4011 32.0028 90.4239 31.9774C90.4705 31.9356 90.5317 31.9136 90.5943 31.9162C90.7603 31.9162 90.8345 31.9992 90.8345 32.1652V33.1307H92.1757V32.1652C92.1757 31.9992 92.2499 31.9162 92.4159 31.9162C92.4785 31.9136 92.5397 31.9356 92.5863 31.9774C92.6091 32.0028 92.6267 32.0325 92.6379 32.0647C92.6492 32.097 92.6539 32.1312 92.6518 32.1652L92.6693 34.6072Z" fill="black"/>
<path d="M90.3365 32.1652C90.3385 32.1967 90.3337 32.2282 90.3224 32.2576C90.3111 32.287 90.2936 32.3136 90.271 32.3356C90.249 32.3602 90.2221 32.3799 90.192 32.3935C90.1619 32.407 90.1293 32.4141 90.0963 32.4143H89.4148V34.5985C89.4177 34.63 89.4142 34.6617 89.4044 34.6917C89.3947 34.7218 89.3789 34.7495 89.358 34.7732C89.3344 34.7979 89.3059 34.8173 89.2742 34.8301C89.2426 34.843 89.2086 34.8489 89.1745 34.8475C89.1417 34.8488 89.109 34.8428 89.0788 34.8299C89.0486 34.8171 89.0216 34.7977 88.9998 34.7732C88.9775 34.7501 88.9603 34.7227 88.949 34.6926C88.9377 34.6626 88.9327 34.6306 88.9342 34.5985V32.4143H88.244C88.1753 32.4115 88.1099 32.3835 88.0605 32.3356C88.038 32.3136 88.0204 32.287 88.0091 32.2576C87.9978 32.2282 87.993 32.1967 87.995 32.1652C87.9929 32.1331 87.9977 32.101 88.009 32.0708C88.0203 32.0407 88.0379 32.0133 88.0605 31.9905C88.0841 31.9658 88.1126 31.9464 88.1443 31.9336C88.1759 31.9208 88.2099 31.9149 88.244 31.9162H90.0788C90.1117 31.9136 90.1448 31.919 90.1753 31.932C90.2057 31.9449 90.2325 31.965 90.2535 31.9905C90.2762 32.0133 90.2938 32.0407 90.3051 32.0708C90.3164 32.101 90.3211 32.1331 90.319 32.1652H90.3365Z" fill="black"/>
<path fill-rule="evenodd" clip-rule="evenodd" d="M88.2964 33.3797C88.2995 33.5731 88.2623 33.765 88.1872 33.9432C88.1116 34.1239 88.0001 34.2873 87.8596 34.4238C87.7262 34.5609 87.5675 34.6707 87.3922 34.747C87.2123 34.8168 87.0215 34.8538 86.8286 34.8562C86.7031 34.8544 86.5784 34.8368 86.4573 34.8038C86.3361 34.7721 86.2199 34.7236 86.1122 34.6597C86.0148 34.6097 85.9238 34.5481 85.8413 34.4762V35.8435C85.843 35.9081 85.8195 35.9707 85.7758 36.0183C85.7283 36.0619 85.6656 36.0854 85.6011 36.0838C85.5683 36.089 85.5348 36.0865 85.5032 36.0762C85.4717 36.066 85.443 36.0485 85.4196 36.025C85.3961 36.0016 85.3786 35.9729 85.3683 35.9413C85.3581 35.9098 85.3555 35.8763 85.3608 35.8435V32.1652C85.3587 32.1312 85.3635 32.097 85.3747 32.0647C85.386 32.0325 85.4035 32.0028 85.4263 31.9774C85.4745 31.9353 85.5371 31.9134 85.6011 31.9162C85.7627 31.9162 85.8413 31.9992 85.8413 32.1652V32.2963C85.9248 32.2244 86.0156 32.1615 86.1122 32.1085C86.2174 32.0405 86.3345 31.9931 86.4573 31.9687C86.5784 31.9357 86.7031 31.9181 86.8286 31.9162C87.0212 31.9172 87.2121 31.9528 87.3922 32.0211C87.5668 32.1006 87.7253 32.2117 87.8596 32.3487C88 32.4835 88.1115 32.6456 88.1872 32.8249C88.261 33.0005 88.2982 33.1893 88.2964 33.3797ZM87.8072 33.3797C87.809 33.2543 87.7868 33.1297 87.7416 33.0127C87.6856 32.8972 87.6119 32.7911 87.5232 32.6982C87.4327 32.6067 87.326 32.5327 87.2087 32.4798C87.0868 32.4358 86.9582 32.4137 86.8286 32.4143C86.699 32.4129 86.5702 32.4351 86.4486 32.4798C86.33 32.5305 86.223 32.6049 86.134 32.6982C86.0398 32.7864 85.9653 32.8936 85.9156 33.0127C85.8634 33.1278 85.838 33.2533 85.8413 33.3797C85.8373 33.5103 85.8627 33.6402 85.9156 33.7598C86.0234 33.9957 86.2126 34.1849 86.4486 34.2927C86.5697 34.3404 86.6985 34.3655 86.8286 34.367C86.9587 34.3647 87.0873 34.3395 87.2087 34.2927C87.3278 34.243 87.435 34.1685 87.5232 34.0743C87.6138 33.983 87.6878 33.8765 87.7416 33.7598C87.7871 33.6383 87.8093 33.5094 87.8072 33.3797Z" fill="black"/>
<path fill-rule="evenodd" clip-rule="evenodd" d="M85.339 33.3797C85.3434 33.5728 85.3077 33.7647 85.2341 33.9432C85.1634 34.1244 85.0547 34.2883 84.9152 34.4238C84.7787 34.5611 84.6171 34.6709 84.439 34.747C84.2595 34.8176 84.0685 34.8546 83.8755 34.8562C83.6826 34.8541 83.4917 34.8171 83.312 34.747C83.1344 34.6677 82.9718 34.5584 82.8314 34.4238C82.6913 34.2887 82.5803 34.1264 82.5052 33.9468C82.4301 33.7673 82.3924 33.5743 82.3946 33.3797C82.3928 33.1893 82.43 33.0005 82.5038 32.8249C82.5795 32.6487 82.686 32.4875 82.8183 32.3487C82.9597 32.2142 83.122 32.1036 83.2989 32.0211C83.4788 31.9524 83.6698 31.9169 83.8624 31.9162C84.0551 31.9165 84.2461 31.952 84.4259 32.0211C84.6032 32.1005 84.7646 32.2115 84.9021 32.3487C85.0414 32.4827 85.1501 32.6451 85.221 32.8249C85.2934 33.0007 85.3291 33.1895 85.3259 33.3797H85.339ZM84.8628 33.3797C84.8631 33.2521 84.8372 33.1259 84.7869 33.0087C84.7366 32.8915 84.6628 32.7858 84.5701 32.6982C84.4795 32.6067 84.3729 32.5327 84.2556 32.4798C84.1341 32.4343 84.0052 32.4121 83.8755 32.4143C83.7459 32.4129 83.6171 32.4351 83.4954 32.4798C83.2595 32.5876 83.0703 32.7768 82.9625 33.0127C82.9173 33.1297 82.8951 33.2543 82.897 33.3797C82.8948 33.5094 82.917 33.6383 82.9625 33.7598C83.0132 33.8783 83.0876 33.9853 83.1809 34.0743C83.2691 34.1685 83.3763 34.243 83.4954 34.2927C83.6166 34.3404 83.7454 34.3655 83.8755 34.367C84.0057 34.3664 84.1347 34.3412 84.2556 34.2927C84.3747 34.243 84.4819 34.1685 84.5701 34.0743C84.6653 33.9869 84.7399 33.8795 84.7885 33.7598C84.8371 33.6389 84.8623 33.5099 84.8628 33.3797Z" fill="black"/>
<path d="M82.3858 34.6072C82.3858 34.7689 82.3116 34.8562 82.1499 34.8562C82.1171 34.8575 82.0845 34.8515 82.0543 34.8387C82.0241 34.8258 81.9971 34.8065 81.9752 34.782C81.953 34.7588 81.9357 34.7314 81.9244 34.7014C81.9132 34.6713 81.9081 34.6393 81.9097 34.6072V32.423H80.8176V34.6072C80.8224 34.6403 80.8197 34.6741 80.8095 34.7059C80.7992 34.7377 80.7819 34.7668 80.7587 34.7908C80.7354 34.8149 80.707 34.8333 80.6756 34.8446C80.6441 34.856 80.6105 34.8599 80.5773 34.8562C80.5444 34.8585 80.5114 34.8529 80.481 34.84C80.4507 34.8271 80.4238 34.8072 80.4025 34.782C80.3803 34.7588 80.363 34.7314 80.3518 34.7014C80.3405 34.6713 80.3355 34.6393 80.337 34.6072V32.1652C80.3349 32.1312 80.3397 32.097 80.3509 32.0647C80.3622 32.0325 80.3797 32.0028 80.4025 31.9774C80.4508 31.9353 80.5133 31.9134 80.5773 31.9162H82.1281C82.1604 31.914 82.1927 31.9196 82.2224 31.9325C82.2521 31.9454 82.2782 31.9653 82.2985 31.9905C82.3211 32.0133 82.3387 32.0407 82.35 32.0708C82.3613 32.101 82.3661 32.1331 82.364 32.1652L82.3858 34.6072Z" fill="black"/>
<path d="M79.9438 32.6982C79.8786 32.6497 79.81 32.6059 79.7385 32.5672C79.6595 32.5132 79.5726 32.4719 79.4808 32.4448C79.2678 32.3944 79.0448 32.4065 78.8386 32.4798C78.7213 32.5327 78.6146 32.6067 78.5241 32.6982C78.4299 32.7864 78.3554 32.8936 78.3057 33.0127C78.2576 33.1292 78.2324 33.2537 78.2314 33.3797C78.2319 33.5099 78.2571 33.6389 78.3057 33.7598C78.3532 33.88 78.428 33.9877 78.5241 34.0743C78.6123 34.1685 78.7195 34.243 78.8386 34.2927C78.9597 34.3404 79.0885 34.3655 79.2187 34.367C79.3075 34.3631 79.3955 34.3484 79.4808 34.3233C79.5717 34.296 79.6584 34.2563 79.7385 34.2053C79.8118 34.1697 79.8807 34.1258 79.9438 34.0743C79.9438 34.0743 80.3807 33.9345 80.2627 34.4238C80.1278 34.5589 79.9694 34.6685 79.7953 34.747C79.6112 34.8176 79.4159 34.8546 79.2187 34.8562C79.0258 34.8541 78.8349 34.8171 78.6551 34.747C78.4776 34.6677 78.315 34.5584 78.1746 34.4238C78.0345 34.2887 77.9235 34.1264 77.8484 33.9468C77.8076 33.8495 77.7779 33.7482 77.7596 33.6448V34.6072C77.7611 34.6393 77.7561 34.6713 77.7448 34.7014C77.7336 34.7314 77.7163 34.7588 77.6941 34.782C77.674 34.8074 77.6479 34.8276 77.6182 34.8405C77.5885 34.8535 77.556 34.8589 77.5237 34.8562C77.4907 34.8588 77.4576 34.8535 77.4272 34.8405C77.3968 34.8276 77.3699 34.8075 77.349 34.782C77.3267 34.7588 77.3094 34.7314 77.2982 34.7014C77.2869 34.6713 77.2819 34.6393 77.2834 34.6072V33.6374H75.9248V34.6247C75.9264 34.6568 75.9213 34.6888 75.9101 34.7188C75.8988 34.7489 75.8815 34.7763 75.8593 34.7995C75.8383 34.8238 75.8121 34.8432 75.7826 34.856C75.7531 34.8689 75.7211 34.8749 75.6889 34.8737C75.656 34.8763 75.6229 34.8709 75.5925 34.858C75.562 34.8451 75.5352 34.825 75.5142 34.7995C75.4893 34.7783 75.4703 34.7511 75.4588 34.7206C75.4473 34.69 75.4438 34.657 75.4487 34.6247V32.1652C75.4436 32.131 75.4469 32.096 75.4583 32.0633C75.4697 32.0305 75.4889 32.0011 75.5142 31.9774C75.5622 31.9349 75.6249 31.913 75.6889 31.9162C75.8506 31.9162 75.9248 31.9992 75.9248 32.1652V33.1307H77.2834V32.1652C77.2834 31.9992 77.3577 31.9162 77.5237 31.9162C77.5547 31.9145 77.5858 31.919 77.6151 31.9295C77.6444 31.94 77.6712 31.9563 77.6941 31.9774C77.7169 32.0028 77.7344 32.0325 77.7457 32.0647C77.7569 32.097 77.7617 32.1312 77.7596 32.1652V33.1409C77.8118 32.842 77.9559 32.5646 78.1746 32.3487C78.316 32.2142 78.4783 32.1036 78.6551 32.0211C78.8351 31.9524 79.026 31.9169 79.2187 31.9162C79.4156 31.9165 79.6109 31.952 79.7953 32.0211C79.9706 32.0995 80.1292 32.2107 80.2627 32.3487C80.4331 32.5104 80.2191 32.8904 79.9438 32.6982Z" fill="black"/>
<path fill-rule="evenodd" clip-rule="evenodd" d="M74.6536 32.5977V32.5759C74.6105 32.5295 74.5585 32.4924 74.5007 32.4667C74.4085 32.4171 74.3028 32.3987 74.1993 32.4143C74.1703 32.4097 74.1408 32.4097 74.1119 32.4143H74.0682L73.6663 32.6108C73.6343 32.6127 73.6022 32.6078 73.5721 32.5964C73.5421 32.585 73.5149 32.5674 73.4922 32.5447C73.4695 32.522 73.4518 32.4947 73.4404 32.4647C73.429 32.4347 73.4241 32.4026 73.426 32.3706C73.4228 32.337 73.4305 32.3033 73.4479 32.2745C73.4591 32.2479 73.4738 32.2229 73.4916 32.2002C73.5829 32.0944 73.6982 32.012 73.8279 31.9599C73.9683 31.9106 74.116 31.8854 74.2648 31.8857C74.4019 31.8883 74.5377 31.9134 74.6667 31.9599C74.7964 32.012 74.9118 32.0944 75.0031 32.2002C75.1056 32.2952 75.1867 32.411 75.2409 32.5398C75.2952 32.6686 75.3213 32.8075 75.3176 32.9472V34.5767C75.3176 34.7383 75.2433 34.8257 75.0773 34.8257C75.0451 34.8279 75.0127 34.8223 74.983 34.8094C74.9534 34.7965 74.9273 34.7766 74.907 34.7514C74.8896 34.7401 74.8749 34.7254 74.8636 34.7081C74.8523 34.6908 74.8448 34.6713 74.8414 34.6509L74.7322 34.7165C74.586 34.7859 74.4266 34.8231 74.2648 34.8257C74.1247 34.8245 73.9858 34.7994 73.8541 34.7514C73.7257 34.6947 73.6099 34.613 73.5134 34.5111C73.4128 34.4161 73.3326 34.3017 73.2775 34.1748V34.1005C73.2131 34.2063 73.1369 34.3045 73.0503 34.3932C72.917 34.5303 72.7582 34.6401 72.5829 34.7165C72.4031 34.7862 72.2122 34.8232 72.0194 34.8257C71.7677 34.8225 71.521 34.7548 71.3029 34.6291C71.207 34.5812 71.1187 34.5193 71.0408 34.4456V35.8129C71.0392 35.8785 71.0127 35.941 70.9666 35.9877C70.9437 36.0104 70.9164 36.0279 70.8862 36.0392C70.8561 36.0505 70.8239 36.0553 70.7918 36.0532C70.7591 36.0585 70.7256 36.0559 70.694 36.0457C70.6625 36.0354 70.6338 36.0179 70.6103 35.9944C70.5869 35.971 70.5693 35.9423 70.5591 35.9108C70.5489 35.8792 70.5463 35.8457 70.5516 35.8129V32.1652C70.5495 32.1312 70.5542 32.097 70.5655 32.0647C70.5767 32.0325 70.5943 32.0028 70.6171 31.9774C70.6653 31.9353 70.7279 31.9134 70.7918 31.9162C70.8255 31.912 70.8598 31.9155 70.8919 31.9265C70.9241 31.9375 70.9533 31.9557 70.9773 31.9797C71.0014 32.0038 71.0196 32.033 71.0306 32.0651C71.0416 32.0973 71.0451 32.1315 71.0408 32.1652V32.2963C71.1197 32.2226 71.2078 32.1594 71.3029 32.1085C71.4089 32.042 71.5257 31.9947 71.648 31.9687C71.7691 31.9357 71.8939 31.9181 72.0194 31.9162C72.212 31.9172 72.4028 31.9528 72.5829 32.0211C72.7576 32.1006 72.916 32.2117 73.0503 32.3487C73.1869 32.4841 73.294 32.6462 73.3649 32.8249C73.4074 32.9225 73.4368 33.0253 73.4522 33.1307L73.5352 33.0433C73.6345 32.948 73.7499 32.8711 73.876 32.8162C74.0055 32.7604 74.1457 32.7336 74.2866 32.7375C74.4479 32.7371 74.6073 32.7713 74.7541 32.838C74.7887 32.8503 74.8211 32.868 74.8502 32.8904C74.84 32.8006 74.8069 32.7148 74.7541 32.6414L74.6536 32.5977ZM74.8196 33.7947C74.816 33.6431 74.7533 33.4988 74.6448 33.3928C74.5952 33.337 74.532 33.2949 74.4614 33.2705C74.3211 33.2146 74.1648 33.2146 74.0245 33.2705C73.9539 33.2949 73.8907 33.337 73.841 33.3928C73.7885 33.4452 73.7469 33.5076 73.7187 33.5763C73.6884 33.645 73.6735 33.7196 73.675 33.7947C73.6747 33.8693 73.6892 33.9433 73.7177 34.0123C73.7462 34.0813 73.7881 34.1439 73.841 34.1966C73.8945 34.249 73.9566 34.2919 74.0245 34.3233C74.0973 34.3504 74.1741 34.3651 74.2517 34.367C74.3263 34.3638 74.4 34.3491 74.4701 34.3233C74.5381 34.2919 74.6001 34.249 74.6536 34.1966C74.705 34.1398 74.7491 34.0766 74.7846 34.0088C74.8105 33.9402 74.8252 33.8679 74.8283 33.7947H74.8196ZM72.9499 33.3797C72.9489 33.2537 72.9236 33.1292 72.8756 33.0127C72.8196 32.8972 72.7459 32.7911 72.6572 32.6982C72.5666 32.6067 72.46 32.5327 72.3427 32.4798C72.0968 32.3925 71.8284 32.3925 71.5825 32.4798C71.4652 32.5327 71.3585 32.6067 71.268 32.6982C71.1738 32.7842 71.0996 32.8897 71.0505 33.0075C71.0014 33.1252 70.9788 33.2523 70.984 33.3797C70.9819 33.5094 71.0041 33.6383 71.0496 33.7598C71.0982 33.8795 71.1728 33.9869 71.268 34.0743C71.3562 34.1685 71.4634 34.243 71.5825 34.2927C71.8262 34.3918 72.099 34.3918 72.3427 34.2927C72.4618 34.243 72.569 34.1685 72.6572 34.0743C72.7478 33.983 72.8217 33.8765 72.8756 33.7598C72.9241 33.6389 72.9493 33.5099 72.9499 33.3797Z" fill="black"/>
<path d="M70.4729 32.1652C70.4747 32.1963 70.4702 32.2274 70.4597 32.2567C70.4492 32.2859 70.4329 32.3128 70.4118 32.3356C70.3894 32.3598 70.3624 32.3792 70.3324 32.3928C70.3024 32.4063 70.2699 32.4136 70.237 32.4143H69.5643V34.5985C69.5658 34.6306 69.5608 34.6626 69.5495 34.6926C69.5383 34.7227 69.521 34.7501 69.4987 34.7732C69.4744 34.7981 69.445 34.8175 69.4127 34.8303C69.3803 34.8431 69.3457 34.8489 69.3109 34.8475C69.2788 34.8484 69.2469 34.8422 69.2174 34.8294C69.188 34.8166 69.1617 34.7974 69.1405 34.7732C69.1183 34.7501 69.101 34.7227 69.0898 34.6926C69.0785 34.6626 69.0735 34.6306 69.075 34.5985V32.4143H68.4023C68.3322 32.4114 68.2656 32.3835 68.2144 32.3356C68.1924 32.3134 68.1755 32.2867 68.1649 32.2572C68.1544 32.2278 68.1504 32.1964 68.1532 32.1652C68.1506 32.1335 68.1547 32.1015 68.1652 32.0714C68.1758 32.0413 68.1925 32.0137 68.2144 31.9905C68.2388 31.9657 68.2681 31.9463 68.3005 31.9335C68.3328 31.9207 68.3675 31.9148 68.4023 31.9162H70.237C70.2699 31.914 70.3029 31.9196 70.3333 31.9325C70.3636 31.9454 70.3905 31.9653 70.4118 31.9905C70.4543 32.0385 70.4762 32.1012 70.4729 32.1652Z" fill="black"/>
</g>
<defs>
<clipPath id="clip0_759_380">
<rect width="117.95" height="45" fill="white"/>
</clipPath>
</defs>
</svg>
