<svg width="104" height="34" viewBox="0 0 104 34" fill="none" xmlns="http://www.w3.org/2000/svg">
<g clip-path="url(#clip0_759_368)">
<path d="M55.8627 18.8648L47.0209 0H41.0078V33.8842H45.1282V4.68794L54.2814 24.5542H56.9093L66.1297 4.68794V33.8842H70.5398V0H64.4149L55.8627 18.8648Z" fill="black"/>
<path fill-rule="evenodd" clip-rule="evenodd" d="M100.674 17.1864C98.8813 15.3312 96.7015 14.4055 94.1314 14.4055C93.1033 14.4055 92.5439 14.4341 91.3711 14.8299L99.9918 2.08055L96.9167 0.0209961L87.0928 14.6683C85.7115 16.7201 84.7539 18.4768 84.2184 19.9351C83.6811 21.3935 83.4141 22.7843 83.4141 24.1031C83.4141 25.8779 83.847 27.5409 84.7124 29.0954C85.5792 30.6491 86.7714 31.8556 88.2906 32.7132C89.8096 33.5714 91.4574 34 93.2332 34C95.0682 34 96.7814 33.5569 98.3743 32.6698C99.967 31.7828 101.196 30.5874 102.062 29.0847C102.928 27.5822 103.361 25.8994 103.361 24.0375C103.361 21.3253 102.465 19.0405 100.674 17.1864ZM97.9951 28.682C96.7174 29.9582 95.1745 30.5964 93.3649 30.5964C91.5572 30.5964 90.0137 29.9582 88.7348 28.682C87.4556 27.4045 86.8176 25.8643 86.8176 24.0589C86.8176 22.2388 87.4556 20.691 88.7341 19.415C90.0121 18.138 91.555 17.5 93.3642 17.5C95.1725 17.5 96.7163 18.138 97.9951 19.415C99.2739 20.691 99.9135 22.2388 99.9135 24.0589C99.9135 25.8643 99.2739 27.4045 97.9951 28.682Z" fill="black"/>
<path d="M29.1381 16.7824C29.0398 17.0612 28.8959 17.4691 28.6561 17.7948L26.408 21.0844C26.2712 21.2703 26.908 21.8107 27.0728 21.5869L29.3601 18.2435L29.6561 17.5236L31.3843 13.3786C31.6751 12.6813 32.4021 12.9418 32.7761 13.1991C32.8202 13.2295 32.867 13.26 32.9153 13.2913C33.3731 13.5888 33.9601 13.9702 33.4944 15.2045L32.0968 18.9082C32.0443 19.0481 32.0009 19.1884 31.9586 19.3257C31.8668 19.6228 31.7795 19.9058 31.6122 20.1395C31.3225 20.5432 31.0103 21.0234 30.7007 21.4996C30.3635 22.0184 30.0293 22.5324 29.7306 22.9376C29.2148 23.6304 26.7284 25.2003 24.8678 25.5762L23.6113 21.2199C23.4499 20.6283 23.4204 20.2196 24.2167 19.229C24.6466 18.6245 25.011 18.0445 25.3673 17.4774C25.6819 16.9767 25.9904 16.4859 26.3319 15.997C26.546 15.6916 26.7362 15.3693 26.8629 15.0161L28.3204 10.8899C28.5259 10.3097 29.1538 9.97488 30.092 10.6131C30.6796 11.0124 31.1954 11.5643 30.88 12.3629L29.2081 16.5907C29.1874 16.6427 29.1644 16.708 29.1381 16.7824Z" fill="black"/>
<path d="M34.0857 16.3514C33.7875 16.1417 33.5951 16.5828 33.4643 16.9489L32.2817 20.2475C32.1124 20.7714 31.9942 20.9313 31.7758 21.2271L31.7382 21.278C31.427 21.7007 31.126 22.1717 30.8251 22.6428C30.5235 23.115 30.2218 23.5872 29.9097 24.0109C26.8793 27.5945 19.3854 28.7015 15.1227 28.7434C16.2902 30.6308 17.8181 32.2554 19.1648 33.1561C10.0161 30.2935 4.49987 18.3786 9.94305 9.51534C7.74545 10.2563 3.15533 13.6361 3.2941 19.6546C3.31385 20.5122 3.39609 21.3388 3.53558 22.1372C2.98469 20.6635 2.72545 19.2231 2.75462 17.8757C2.81603 15.0359 3.88304 11.5888 7.54491 9.27404C11.732 6.627 16.177 6.69874 21.5057 10.5838C22.2955 11.1606 23.4591 10.9952 24.1368 10.3807C23.8699 11.0441 23.6069 11.7086 23.3538 12.3743C23.2122 12.7464 23.0631 13.1073 22.8373 13.4145C22.4391 13.9549 22.0542 14.5409 21.6682 15.1287C21.2219 15.8082 20.774 16.4902 20.3019 17.107C19.586 18.0409 19.2256 18.0197 18.8518 17.9976L18.8103 17.9952C18.6063 17.9837 18.4406 17.9838 18.3044 17.9838C17.8235 17.9839 17.7092 17.984 17.5717 17.475L16.371 13.0232C16.2596 12.6127 15.9147 12.0975 15.1984 12.0184C14.8108 11.9759 14.7108 11.9762 14.4404 11.977C14.3702 11.9771 14.2884 11.9774 14.1872 11.9769C13.4716 11.9747 13.0162 12.516 13.0087 13.2754C12.9551 18.6322 14.3844 24.7839 15.2259 27.1684C17.2529 27.2595 21.7401 26.7284 23.7817 25.838C23.7489 25.731 23.7038 25.584 23.6497 25.4084C23.3197 24.3356 22.6604 22.192 22.4924 21.5294C22.2567 20.599 22.4629 19.8715 22.9084 19.2986C23.3987 18.6675 23.8488 17.9772 24.2936 17.295C24.6861 16.6929 25.0746 16.0971 25.4829 15.554C25.7811 15.1571 25.9885 14.6703 26.142 14.1471L27.1135 10.8325C27.3588 10.1213 27.2293 9.61951 26.7331 9.26408C26.036 8.76489 25.1715 9.32343 24.7121 9.62027C24.6729 9.64563 24.6366 9.66908 24.6036 9.68979C24.9516 8.73384 24.4203 7.62861 23.2114 6.85761C20.9276 5.39894 18.7686 4.56509 16.7706 4.1747C17.1858 4.04716 17.6056 3.94264 18.0291 3.86238C24.1375 2.70371 31.4728 6.45454 34.0886 12.5354H34.3121C32.285 5.21906 24.9339 0.0996016 17.1045 0.098877C12.1861 0.0996016 7.40307 2.04847 3.98575 5.9194C3.16838 6.84511 1.64142 9.18818 1.15103 11.1227C0.941613 11.949 0.800131 12.9031 0.722053 13.5189C0.170978 15.1542 -0.107096 16.986 0.0381907 19.0481C0.232027 21.8037 1.01625 24.0167 2.64629 26.4557C4.79153 29.6656 9.22821 33.1154 14.7911 33.7442C14.7748 33.7352 14.7588 33.7261 14.7428 33.717C14.7282 33.7087 14.7136 33.7004 14.6987 33.6922C16.8826 34.009 19.1139 33.9396 20.2008 33.7815C23.8975 33.2424 28.6189 30.9663 31.5819 26.8921C33.3645 24.4411 34.0516 22.4475 34.6072 19.4229C34.8827 17.9235 34.9355 16.9462 34.0857 16.3514Z" fill="black"/>
<path d="M76.1015 3.98765H73.7734L75.0459 0.0332031H80.4323V33.8189H76.1015V3.98765Z" fill="black"/>
</g>
<defs>
<clipPath id="clip0_759_368">
<rect width="103.361" height="34" fill="white"/>
</clipPath>
</defs>
</svg>
