<svg width="175" height="36" viewBox="0 0 175 36" fill="none" xmlns="http://www.w3.org/2000/svg">
<path d="M55.2419 19.4985C55.2638 19.5195 55.2788 19.5465 55.2849 19.5761L55.4995 20.7448C55.4733 20.876 55.4023 20.9201 55.3286 20.9103C54.0331 20.5629 52.9425 20.6434 52.7598 21.145C52.5838 21.6287 53.3018 22.3501 54.4418 22.9066C55.743 23.6393 56.5078 24.5344 56.5078 25.5013C56.5078 27.9858 51.4473 30.001 45.2066 30.001C40.1898 30.001 35.4762 29.461 31.3776 28.5115C31.3406 28.5035 31.308 28.4819 31.2861 28.4511C31.2643 28.4203 31.2549 28.3824 31.2598 28.345L31.547 26.7735C31.5503 26.7541 31.5575 26.7355 31.5681 26.7188C31.5787 26.7022 31.5925 26.6878 31.6087 26.6764C31.6249 26.6651 31.6432 26.6571 31.6626 26.6528C31.6819 26.6485 31.7019 26.6481 31.7214 26.6516C33.7365 27.3484 36.3337 27.766 39.1763 27.766C42.5307 27.766 45.5432 27.185 47.6128 26.2606C49.3942 25.4649 50.4771 24.4161 50.4771 23.2663C50.4771 22.4198 49.8903 21.6287 48.8707 20.9529C48.8446 20.9388 48.8149 20.9328 48.7854 20.9357C48.7559 20.9385 48.7279 20.95 48.705 20.9687C47.9076 21.5724 47.0726 22.1252 46.2051 22.6237C43.1437 24.3833 39.9026 25.3204 36.8865 25.4767L36.7655 25.4705C36.4323 25.4706 36.1031 25.3973 35.8017 25.2559C35.5002 25.1145 35.2339 24.9086 35.0218 24.6527C34.8096 24.3969 34.657 24.0975 34.5746 23.7761C34.4923 23.4546 34.4824 23.1191 34.5456 22.7933L37.9272 4.25636C37.9231 4.13749 37.8592 4.07959 37.7836 4.07703C22.2088 5.4743 10.5472 11.1776 10.5472 18C10.5472 25.8707 26.0634 32.2504 45.2035 32.2504C64.3436 32.2504 79.8592 25.8702 79.8592 18C79.8592 11.5271 69.3624 6.06149 54.9859 4.32553C54.9659 4.32317 54.9457 4.32475 54.9264 4.33017C54.9071 4.33559 54.889 4.34474 54.8732 4.35711C54.8574 4.36949 54.8443 4.38483 54.8345 4.40227C54.8246 4.41971 54.8184 4.4389 54.816 4.45875C56.9283 8.81554 55.3415 14.3841 51.1637 18.7604C51.1128 18.929 51.1673 19.0002 51.2445 19.0135C52.5548 19.121 53.8614 19.2695 55.1624 19.4588C55.1923 19.4637 55.2201 19.4776 55.2419 19.4985Z" fill="black"/>
<path fill-rule="evenodd" clip-rule="evenodd" d="M45.203 0C20.2375 0 0 8.05875 0 18C0 27.9418 20.238 36 45.203 36C70.168 36 90.4059 27.9412 90.4059 18C90.4059 8.05875 70.168 0 45.203 0ZM45.1937 8.51939C45.1999 8.4246 45.203 8.32775 45.203 8.2304C45.2032 7.3692 44.9551 6.52603 44.4881 5.80105C44.0212 5.07607 43.355 4.49976 42.5687 4.14056C42.5162 4.10931 42.4864 4.04936 42.4967 3.98634L42.9265 1.63706C42.9346 1.60455 42.9534 1.57565 42.9798 1.55496C43.0063 1.53427 43.039 1.52295 43.0726 1.5228C43.7829 1.50794 44.4911 1.50026 45.203 1.50026C67.6727 1.50026 85.8864 8.88728 85.8864 18C85.8864 27.1127 67.6722 34.4997 45.203 34.4997C22.7343 34.4997 4.52009 27.1127 4.52009 18C4.52009 9.5339 20.2416 2.5573 40.4899 1.60939C40.5273 1.61124 40.5626 1.62683 40.5892 1.65314C40.6157 1.67945 40.6315 1.71461 40.6335 1.75184L36.9595 21.8844C36.9456 21.9756 36.9966 22.0499 37.0748 22.0663C37.1131 22.0745 37.1531 22.0673 37.186 22.0463C38.0217 21.4081 38.8141 20.7157 39.5583 19.9737C43.3068 16.242 45.3584 11.8227 45.1937 8.51939Z" fill="black"/>
<path d="M102.591 16.3183H111.017V19.8315H98.3255V1.74891H102.591V16.3183Z" fill="black"/>
<path fill-rule="evenodd" clip-rule="evenodd" d="M114.592 19.8315L121.364 1.74891H125.681L132.48 19.8315H127.956L126.793 16.4475H120.227L119.09 19.8315H114.592ZM123.536 6.47622L121.158 13.3734H125.862L123.536 6.47622Z" fill="black"/>
<path fill-rule="evenodd" clip-rule="evenodd" d="M136.741 1.74891V19.8315H144.134C147.055 19.8315 153.31 19.3149 153.31 10.7644C153.31 1.95557 146.253 1.74891 144.521 1.74891H136.741ZM141.006 5.26211H143.979C145.762 5.26211 148.709 5.83042 148.709 10.8419C148.709 14.5876 147.055 16.3183 143.72 16.3183H141.006V5.26211Z" fill="black"/>
<path fill-rule="evenodd" clip-rule="evenodd" d="M156.819 19.8315L163.591 1.74891H167.908L174.707 19.8315H170.183L169.02 16.4475H162.454L161.317 19.8315H156.819ZM165.763 6.47622L163.385 13.3734H168.089L165.763 6.47622Z" fill="black"/>
<path d="M104.733 23.9011H99.8904V32.4444H98.5972V22.8142H106.026V32.4444H104.733V23.9011Z" fill="black"/>
<path fill-rule="evenodd" clip-rule="evenodd" d="M108.186 34.9895V25.4557H109.314V26.4187H109.355C110.057 25.3594 111.061 25.1805 111.666 25.1805C113.386 25.1805 114.817 26.3361 114.817 28.95C114.817 31.6603 113.29 32.7196 111.694 32.7196C111.419 32.7196 110.015 32.6508 109.396 31.4401V34.9895H108.186ZM111.405 26.0335C110.786 26.0335 109.314 26.3361 109.314 28.9776C109.314 31.1375 110.552 31.8666 111.474 31.8666C112.45 31.8666 113.537 31.1787 113.537 28.95C113.537 27.1478 112.781 26.0335 111.405 26.0335Z" fill="black"/>
<path fill-rule="evenodd" clip-rule="evenodd" d="M117.316 27.5193C117.275 26.061 118.692 26.0335 119.132 26.0335C120.673 26.0335 120.7 27.1065 120.7 27.4367C120.7 28.3107 120.395 28.3307 119.451 28.3923L119.338 28.3997C116.532 28.6611 115.913 29.404 115.913 30.6147C115.913 32.0867 116.903 32.7196 118.375 32.7196C119.325 32.7196 120.288 32.3619 120.769 31.4814C120.921 32.3894 121.333 32.4995 122.021 32.4995C122.283 32.4995 122.406 32.4857 122.571 32.4444V31.5915C121.842 31.632 121.842 31.3143 121.842 30.7948V30.766L121.911 27.533C121.952 25.4969 120.26 25.1805 119.132 25.1805C116.656 25.1805 116.161 26.5838 116.161 27.5193H117.316ZM120.673 29.4591C120.563 31.3989 119.462 31.8666 118.513 31.8666C117.729 31.8666 117.165 31.3989 117.165 30.5734C117.165 29.5305 117.953 29.4047 118.919 29.2503C118.998 29.2377 119.079 29.2249 119.16 29.2114C119.369 29.1815 119.552 29.1638 119.715 29.148C120.15 29.1059 120.44 29.0778 120.7 28.8675L120.673 29.4591Z" fill="black"/>
<path d="M128.786 26.3086H125.209V32.4444H123.999V25.4557H128.786V26.3086Z" fill="black"/>
<path d="M133.285 32.4444H134.221L136.587 26.8314H136.628L136.587 27.2029V32.4444H137.798V25.4557H136.133L133.753 31.1375L131.373 25.4557H129.708V32.4444H130.919V27.2029L130.892 26.8314H130.919L133.285 32.4444Z" fill="black"/>
<path fill-rule="evenodd" clip-rule="evenodd" d="M142.522 26.0335C142.082 26.0335 140.665 26.061 140.706 27.5193H139.551C139.551 26.5838 140.046 25.1805 142.522 25.1805C143.65 25.1805 145.343 25.4969 145.301 27.533L145.233 30.766V30.7948C145.232 31.3143 145.232 31.632 145.962 31.5915V32.4444C145.797 32.4857 145.673 32.4995 145.411 32.4995C144.724 32.4995 144.311 32.3894 144.16 31.4814C143.678 32.3619 142.715 32.7196 141.766 32.7196C140.294 32.7196 139.303 32.0867 139.303 30.6147C139.303 29.404 139.922 28.6611 142.729 28.3997L142.842 28.3923C143.785 28.3307 144.091 28.3107 144.091 27.4367C144.091 27.1065 144.063 26.0335 142.522 26.0335ZM141.903 31.8666C142.853 31.8666 143.953 31.3989 144.063 29.4591L144.091 28.8675C143.83 29.0778 143.541 29.1059 143.105 29.148C142.943 29.1638 142.759 29.1815 142.55 29.2114C142.469 29.2249 142.389 29.2377 142.31 29.2503C141.343 29.4047 140.555 29.5305 140.555 30.5734C140.555 31.3989 141.119 31.8666 141.903 31.8666Z" fill="black"/>
<path d="M148.569 26.3086V32.4444H149.779V26.3086H152.201V25.4557H146.147V26.3086H148.569Z" fill="black"/>
<path d="M154.336 25.4557V31.0274L157.982 25.4557H159.33V32.4444H158.12V26.8589L154.488 32.4444H153.126V25.4557H154.336Z" fill="black"/>
<path d="M162.518 28.5098V25.4557H161.307V32.4444H162.518V28.95L165.655 32.4444H167.099L163.646 28.7024L166.921 25.4557H165.503L162.518 28.5098Z" fill="black"/>
<path fill-rule="evenodd" clip-rule="evenodd" d="M170.776 26.0335C170.336 26.0335 168.919 26.061 168.96 27.5193H167.805C167.805 26.5838 168.3 25.1805 170.776 25.1805C171.904 25.1805 173.596 25.4969 173.555 27.533L173.486 30.766V30.7948C173.486 31.3143 173.486 31.632 174.216 31.5915V32.4444C174.05 32.4857 173.927 32.4995 173.665 32.4995C172.977 32.4995 172.565 32.3894 172.413 31.4814C171.932 32.3619 170.969 32.7196 170.019 32.7196C168.547 32.7196 167.557 32.0867 167.557 30.6147C167.557 29.404 168.176 28.6611 170.983 28.3997L171.096 28.3923C172.039 28.3307 172.344 28.3107 172.344 27.4367C172.344 27.1065 172.317 26.0335 170.776 26.0335ZM170.157 31.8666C171.106 31.8666 172.207 31.3989 172.317 29.4591L172.344 28.8675C172.084 29.0778 171.794 29.1059 171.359 29.148C171.196 29.1638 171.013 29.1815 170.804 29.2114C170.723 29.2249 170.643 29.2377 170.564 29.2503C169.597 29.4047 168.809 29.5305 168.809 30.5734C168.809 31.3989 169.373 31.8666 170.157 31.8666Z" fill="black"/>
</svg>
